font.ufo
<glyph name="exclam" format="1">
  <advance width="375"/>
  <unicode hex="0021"/>
  <outline>
    <contour>
      <point x="238" y="60" type="curve" smooth="yes"/>
      <point x="238" y="24"/>
      <point x="205" y="-9"/>
      <point x="171" y="-9" type="curve" smooth="yes"/>
      <point x="140" y="-9"/>
      <point x="121" y="12"/>
      <point x="121" y="40" type="curve" smooth="yes"/>
      <point x="121" y="78"/>
      <point x="154" y="109"/>
      <point x="190" y="109" type="curve" smooth="yes"/>
      <point x="218" y="109"/>
      <point x="238" y="88"/>
    </contour>
    <contour>
      <point x="203" y="295" type="line"/>
      <point x="200" y="244"/>
      <point x="203" y="222"/>
      <point x="210" y="201" type="curve"/>
      <point x="203" y="191"/>
      <point x="196" y="186"/>
      <point x="182" y="186" type="curve" smooth="yes"/>
      <point x="157" y="186"/>
      <point x="144" y="206"/>
      <point x="140" y="252" type="curve" smooth="yes"/>
      <point x="127" y="694" type="line"/>
      <point x="123" y="752"/>
      <point x="145" y="780"/>
      <point x="173" y="780" type="curve" smooth="yes"/>
      <point x="203" y="780"/>
      <point x="227" y="751"/>
      <point x="223" y="694" type="curve" smooth="yes"/>
    </contour>
  </outline>
</glyph>
<glyph name="quotedbl" format="1">
  <advance width="316"/>
  <unicode hex="0022"/>
  <outline>
    <contour>
      <point x="122" y="836" type="curve" smooth="yes"/>
      <point x="122" y="875"/>
      <point x="111" y="904"/>
      <point x="80" y="904" type="curve" smooth="yes"/>
      <point x="51" y="904"/>
      <point x="40" y="875"/>
      <point x="40" y="837" type="curve" smooth="yes"/>
      <point x="40" y="741"/>
      <point x="58" y="595"/>
      <point x="81" y="595" type="curve" smooth="yes"/>
      <point x="106" y="595"/>
      <point x="122" y="740"/>
    </contour>
    <contour>
      <point x="276" y="836" type="curve" smooth="yes"/>
      <point x="276" y="875"/>
      <point x="264" y="904"/>
      <point x="234" y="904" type="curve" smooth="yes"/>
      <point x="205" y="904"/>
      <point x="194" y="875"/>
      <point x="194" y="837" type="curve" smooth="yes"/>
      <point x="194" y="741"/>
      <point x="211" y="595"/>
      <point x="235" y="595" type="curve" smooth="yes"/>
      <point x="260" y="595"/>
      <point x="276" y="740"/>
    </contour>
  </outline>
</glyph>
<glyph name="numbersign" format="1">
  <advance width="772"/>
  <unicode hex="0023"/>
  <outline>
    <contour>
      <point x="366" y="725" type="curve" smooth="yes"/>
      <point x="331" y="725"/>
      <point x="307" y="702"/>
      <point x="294" y="656" type="curve" smooth="yes"/>
      <point x="123" y="62" type="line" smooth="yes"/>
      <point x="117" y="40"/>
      <point x="106" y="30"/>
      <point x="89" y="23" type="curve"/>
      <point x="94" y="5"/>
      <point x="106" y="-9"/>
      <point x="129" y="-9" type="curve" smooth="yes"/>
      <point x="164" y="-9"/>
      <point x="188" y="15"/>
      <point x="201" y="61" type="curve" smooth="yes"/>
      <point x="372" y="655" type="line" smooth="yes"/>
      <point x="378" y="677"/>
      <point x="389" y="687"/>
      <point x="407" y="694" type="curve"/>
      <point x="401" y="711"/>
      <point x="387" y="725"/>
    </contour>
    <contour>
      <point x="634" y="725" type="curve" smooth="yes"/>
      <point x="598" y="725"/>
      <point x="577" y="702"/>
      <point x="561" y="656" type="curve" smooth="yes"/>
      <point x="392" y="62" type="line" smooth="yes"/>
      <point x="385" y="40"/>
      <point x="374" y="30"/>
      <point x="358" y="23" type="curve"/>
      <point x="363" y="5"/>
      <point x="374" y="-9"/>
      <point x="397" y="-9" type="curve" smooth="yes"/>
      <point x="432" y="-9"/>
      <point x="457" y="15"/>
      <point x="470" y="61" type="curve" smooth="yes"/>
      <point x="640" y="655" type="line" smooth="yes"/>
      <point x="647" y="677"/>
      <point x="657" y="687"/>
      <point x="676" y="694" type="curve"/>
      <point x="670" y="711"/>
      <point x="656" y="725"/>
    </contour>
    <contour>
      <point x="633" y="224" type="curve" smooth="yes"/>
      <point x="633" y="230"/>
      <point x="630" y="237"/>
      <point x="629" y="242" type="curve"/>
      <point x="136" y="242" type="line" smooth="yes"/>
      <point x="91" y="242"/>
      <point x="56" y="229"/>
      <point x="56" y="195" type="curve" smooth="yes"/>
      <point x="56" y="188"/>
      <point x="58" y="182"/>
      <point x="60" y="176" type="curve"/>
      <point x="553" y="176" type="line" smooth="yes"/>
      <point x="598" y="176"/>
      <point x="633" y="190"/>
    </contour>
    <contour>
      <point x="717" y="521" type="curve" smooth="yes"/>
      <point x="717" y="528"/>
      <point x="715" y="535"/>
      <point x="713" y="539" type="curve"/>
      <point x="220" y="539" type="line" smooth="yes"/>
      <point x="175" y="539"/>
      <point x="140" y="526"/>
      <point x="140" y="492" type="curve" smooth="yes"/>
      <point x="140" y="486"/>
      <point x="142" y="479"/>
      <point x="145" y="474" type="curve"/>
      <point x="637" y="474" type="line" smooth="yes"/>
      <point x="683" y="474"/>
      <point x="717" y="487"/>
    </contour>
  </outline>
</glyph>
<glyph name="dollar" format="1">
  <advance width="603"/>
  <unicode hex="0024"/>
  <outline>
    <contour>
      <point x="293" y="698" type="line"/>
      <point x="293" y="792" type="line" smooth="yes"/>
      <point x="293" y="814"/>
      <point x="284" y="825"/>
      <point x="268" y="831" type="curve"/>
      <point x="279" y="849"/>
      <point x="297" y="863"/>
      <point x="320" y="863" type="curve" smooth="yes"/>
      <point x="358" y="863"/>
      <point x="376" y="840"/>
      <point x="376" y="794" type="curve" smooth="yes"/>
      <point x="376" y="698" type="line"/>
    </contour>
    <contour>
      <point x="347" y="27" type="line"/>
      <point x="347" y="-72" type="line" smooth="yes"/>
      <point x="347" y="-94"/>
      <point x="355" y="-103"/>
      <point x="372" y="-110" type="curve"/>
      <point x="360" y="-128"/>
      <point x="343" y="-142"/>
      <point x="319" y="-142" type="curve" smooth="yes"/>
      <point x="283" y="-142"/>
      <point x="264" y="-118"/>
      <point x="264" y="-72" type="curve" smooth="yes"/>
      <point x="264" y="27" type="line"/>
    </contour>
    <component base="S"/>
  </outline>
</glyph>
<glyph name="percent" format="1">
  <advance width="849"/>
  <unicode hex="0025"/>
  <outline>
    <contour>
      <point x="213" y="330" type="curve" smooth="yes"/>
      <point x="312" y="330"/>
      <point x="376" y="435"/>
      <point x="376" y="544" type="curve" smooth="yes"/>
      <point x="376" y="638"/>
      <point x="327" y="725"/>
      <point x="238" y="725" type="curve" smooth="yes"/>
      <point x="139" y="725"/>
      <point x="81" y="618"/>
      <point x="81" y="513" type="curve" smooth="yes"/>
      <point x="81" y="417"/>
      <point x="129" y="330"/>
    </contour>
    <contour>
      <point x="230" y="663" type="curve" smooth="yes"/>
      <point x="284" y="663"/>
      <point x="313" y="600"/>
      <point x="313" y="534" type="curve" smooth="yes"/>
      <point x="313" y="455"/>
      <point x="276" y="393"/>
      <point x="228" y="393" type="curve" smooth="yes"/>
      <point x="175" y="393"/>
      <point x="143" y="454"/>
      <point x="143" y="524" type="curve" smooth="yes"/>
      <point x="143" y="600"/>
      <point x="179" y="663"/>
    </contour>
    <contour>
      <point x="168" y="42" type="line"/>
      <point x="160" y="30"/>
      <point x="147" y="15"/>
      <point x="141" y="11" type="curve"/>
      <point x="153" y="-8"/>
      <point x="169" y="-9"/>
      <point x="178" y="-9" type="curve" smooth="yes"/>
      <point x="200" y="-9"/>
      <point x="212" y="8"/>
      <point x="224" y="25" type="curve" smooth="yes"/>
      <point x="681" y="675" type="line" smooth="yes"/>
      <point x="690" y="687"/>
      <point x="700" y="702"/>
      <point x="710" y="706" type="curve"/>
      <point x="697" y="722"/>
      <point x="681" y="725"/>
      <point x="672" y="725" type="curve" smooth="yes"/>
      <point x="649" y="725"/>
      <point x="633" y="703"/>
      <point x="625" y="693" type="curve" smooth="yes"/>
    </contour>
    <contour>
      <point x="605" y="-9" type="curve" smooth="yes"/>
      <point x="704" y="-9"/>
      <point x="768" y="96"/>
      <point x="768" y="205" type="curve" smooth="yes"/>
      <point x="768" y="298"/>
      <point x="719" y="387"/>
      <point x="631" y="387" type="curve" smooth="yes"/>
      <point x="531" y="387"/>
      <point x="473" y="278"/>
      <point x="473" y="175" type="curve" smooth="yes"/>
      <point x="473" y="78"/>
      <point x="521" y="-9"/>
    </contour>
    <contour>
      <point x="622" y="324" type="curve" smooth="yes"/>
      <point x="676" y="324"/>
      <point x="704" y="261"/>
      <point x="704" y="193" type="curve" smooth="yes"/>
      <point x="704" y="114"/>
      <point x="669" y="53"/>
      <point x="621" y="53" type="curve" smooth="yes"/>
      <point x="567" y="53"/>
      <point x="535" y="114"/>
      <point x="535" y="184" type="curve" smooth="yes"/>
      <point x="535" y="261"/>
      <point x="571" y="324"/>
    </contour>
  </outline>
</glyph>
<glyph name="ampersand" format="1">
  <advance width="728"/>
  <unicode hex="0026"/>
  <outline>
    <contour>
      <point x="314" y="434" type="curve"/>
      <point x="222" y="434"/>
      <point x="172" y="479"/>
      <point x="172" y="559" type="curve" smooth="yes"/>
      <point x="172" y="626"/>
      <point x="213" y="674"/>
      <point x="268" y="674" type="curve" smooth="yes"/>
      <point x="321" y="674"/>
      <point x="348" y="651"/>
      <point x="353" y="590" type="curve"/>
      <point x="396" y="577"/>
      <point x="430" y="596"/>
      <point x="430" y="631" type="curve" smooth="yes"/>
      <point x="430" y="687"/>
      <point x="378" y="725"/>
      <point x="295" y="725" type="curve" smooth="yes"/>
      <point x="194" y="725"/>
      <point x="98" y="649"/>
      <point x="98" y="529" type="curve" smooth="yes"/>
      <point x="98" y="435"/>
      <point x="159" y="371"/>
      <point x="255" y="371" type="curve" smooth="yes"/>
      <point x="311" y="371"/>
      <point x="332" y="407"/>
    </contour>
    <contour>
      <point x="211" y="400" type="line"/>
      <point x="140" y="365"/>
      <point x="72" y="302"/>
      <point x="72" y="204" type="curve" smooth="yes"/>
      <point x="72" y="83"/>
      <point x="172" y="-9"/>
      <point x="338" y="-9" type="curve" smooth="yes"/>
      <point x="488" y="-9"/>
      <point x="600" y="98"/>
      <point x="600" y="231" type="curve" smooth="yes"/>
      <point x="600" y="287"/>
      <point x="588" y="330"/>
      <point x="559" y="369" type="curve"/>
      <point x="524" y="351" type="line"/>
      <point x="567" y="351" type="line" smooth="yes"/>
      <point x="677" y="351"/>
      <point x="726" y="396"/>
      <point x="726" y="457" type="curve" smooth="yes"/>
      <point x="726" y="502"/>
      <point x="685" y="542"/>
      <point x="625" y="510" type="curve"/>
      <point x="637" y="447"/>
      <point x="619" y="403"/>
      <point x="501" y="403" type="curve" smooth="yes"/>
      <point x="451" y="403"/>
      <point x="429" y="385"/>
      <point x="444" y="349" type="curve"/>
      <point x="518" y="349"/>
      <point x="546" y="297"/>
      <point x="546" y="228" type="curve" smooth="yes"/>
      <point x="546" y="129"/>
      <point x="448" y="65"/>
      <point x="348" y="65" type="curve" smooth="yes"/>
      <point x="225" y="65"/>
      <point x="153" y="124"/>
      <point x="153" y="224" type="curve" smooth="yes"/>
      <point x="153" y="294"/>
      <point x="196" y="361"/>
      <point x="259" y="388" type="curve"/>
    </contour>
  </outline>
</glyph>
<glyph name="quotesingle" format="1">
  <advance width="162"/>
  <unicode hex="0027"/>
  <outline>
    <contour>
      <point x="124" y="793" type="curve" smooth="yes"/>
      <point x="124" y="831"/>
      <point x="111" y="860"/>
      <point x="80" y="860" type="curve" smooth="yes"/>
      <point x="51" y="860"/>
      <point x="39" y="831"/>
      <point x="39" y="794" type="curve" smooth="yes"/>
      <point x="39" y="713"/>
      <point x="58" y="595"/>
      <point x="81" y="595" type="curve" smooth="yes"/>
      <point x="106" y="595"/>
      <point x="124" y="712"/>
    </contour>
  </outline>
</glyph>
<glyph name="parenleft" format="1">
  <advance width="452"/>
  <unicode hex="0028"/>
  <outline>
    <contour>
      <point x="424" y="767" type="curve"/>
      <point x="419" y="778"/>
      <point x="407" y="783"/>
      <point x="395" y="783" type="curve" smooth="yes"/>
      <point x="320" y="783"/>
      <point x="112" y="543"/>
      <point x="112" y="253" type="curve" smooth="yes"/>
      <point x="112" y="-51"/>
      <point x="324" y="-278"/>
      <point x="395" y="-278" type="curve" smooth="yes"/>
      <point x="409" y="-278"/>
      <point x="419" y="-272"/>
      <point x="424" y="-261" type="curve"/>
      <point x="319" y="-161"/>
      <point x="194" y="-3"/>
      <point x="194" y="253" type="curve" smooth="yes"/>
      <point x="194" y="509"/>
      <point x="319" y="667"/>
    </contour>
  </outline>
</glyph>
<glyph name="parenright" format="1">
  <advance width="452"/>
  <unicode hex="0029"/>
  <outline>
    <contour>
      <point x="343" y="253" type="curve" smooth="yes"/>
      <point x="343" y="543"/>
      <point x="135" y="783"/>
      <point x="60" y="783" type="curve" smooth="yes"/>
      <point x="47" y="783"/>
      <point x="36" y="778"/>
      <point x="31" y="767" type="curve"/>
      <point x="136" y="667"/>
      <point x="261" y="509"/>
      <point x="261" y="253" type="curve" smooth="yes"/>
      <point x="261" y="-3"/>
      <point x="136" y="-161"/>
      <point x="31" y="-261" type="curve"/>
      <point x="36" y="-272"/>
      <point x="46" y="-278"/>
      <point x="60" y="-278" type="curve" smooth="yes"/>
      <point x="131" y="-278"/>
      <point x="343" y="-51"/>
    </contour>
  </outline>
</glyph>
<glyph name="asterisk" format="1">
  <advance width="550"/>
  <unicode hex="002A"/>
  <outline>
    <contour>
      <point x="321" y="887" type="curve" smooth="yes"/>
      <point x="321" y="851"/>
      <point x="310" y="801"/>
      <point x="300" y="767" type="curve"/>
      <point x="338" y="793"/>
      <point x="400" y="830"/>
      <point x="439" y="830" type="curve" smooth="yes"/>
      <point x="463" y="830"/>
      <point x="485" y="816"/>
      <point x="485" y="787" type="curve" smooth="yes"/>
      <point x="485" y="741"/>
      <point x="397" y="721"/>
      <point x="335" y="719" type="curve"/>
      <point x="328" y="719"/>
      <point x="320" y="719"/>
      <point x="314" y="720" type="curve"/>
      <point x="359" y="689"/>
      <point x="421" y="629"/>
      <point x="421" y="588" type="curve" smooth="yes"/>
      <point x="421" y="567"/>
      <point x="402" y="548"/>
      <point x="379" y="548" type="curve" smooth="yes"/>
      <point x="335" y="548"/>
      <point x="293" y="632"/>
      <point x="274" y="690" type="curve"/>
      <point x="256" y="633"/>
      <point x="214" y="547"/>
      <point x="170" y="547" type="curve" smooth="yes"/>
      <point x="144" y="547"/>
      <point x="130" y="570"/>
      <point x="130" y="589" type="curve" smooth="yes"/>
      <point x="130" y="628"/>
      <point x="190" y="688"/>
      <point x="234" y="720" type="curve"/>
      <point x="228" y="719"/>
      <point x="222" y="719"/>
      <point x="215" y="719" type="curve"/>
      <point x="152" y="722"/>
      <point x="64" y="741"/>
      <point x="64" y="787" type="curve" smooth="yes"/>
      <point x="64" y="816"/>
      <point x="90" y="828"/>
      <point x="112" y="828" type="curve" smooth="yes"/>
      <point x="147" y="828"/>
      <point x="212" y="794"/>
      <point x="250" y="768" type="curve"/>
      <point x="240" y="801"/>
      <point x="231" y="851"/>
      <point x="231" y="888" type="curve" smooth="yes"/>
      <point x="231" y="923"/>
      <point x="245" y="952"/>
      <point x="273" y="952" type="curve" smooth="yes"/>
      <point x="306" y="952"/>
      <point x="321" y="924"/>
    </contour>
  </outline>
</glyph>
<glyph name="plus" format="1">
  <advance width="673"/>
  <unicode hex="002B"/>
  <outline>
    <contour>
      <point x="371" y="545" type="line"/>
      <point x="367" y="547"/>
      <point x="360" y="550"/>
      <point x="352" y="550" type="curve" smooth="yes"/>
      <point x="302" y="550"/>
      <point x="302" y="500"/>
      <point x="302" y="477" type="curve" smooth="yes"/>
      <point x="303" y="430"/>
      <point x="304" y="381"/>
      <point x="306" y="324" type="curve"/>
      <point x="242" y="325"/>
      <point x="192" y="326"/>
      <point x="143" y="327" type="curve" smooth="yes"/>
      <point x="120" y="327"/>
      <point x="69" y="326"/>
      <point x="69" y="278" type="curve" smooth="yes"/>
      <point x="69" y="270"/>
      <point x="72" y="262"/>
      <point x="74" y="257" type="curve"/>
      <point x="306" y="261" type="line"/>
      <point x="302" y="25" type="line"/>
      <point x="306" y="23"/>
      <point x="313" y="23"/>
      <point x="320" y="23" type="curve" smooth="yes"/>
      <point x="368" y="23"/>
      <point x="371" y="72"/>
      <point x="371" y="96" type="curve"/>
      <point x="370" y="147"/>
      <point x="369" y="200"/>
      <point x="368" y="261" type="curve"/>
      <point x="431" y="261"/>
      <point x="481" y="259"/>
      <point x="530" y="257" type="curve" smooth="yes"/>
      <point x="553" y="257"/>
      <point x="604" y="259"/>
      <point x="604" y="310" type="curve" smooth="yes"/>
      <point x="604" y="315"/>
      <point x="603" y="324"/>
      <point x="600" y="327" type="curve"/>
      <point x="368" y="324" type="line"/>
    </contour>
  </outline>
</glyph>
<glyph name="comma" format="1">
  <advance width="264"/>
  <unicode hex="002C"/>
  <outline>
    <contour>
      <point x="135" y="-32" type="curve" smooth="yes"/>
      <point x="135" y="-75"/>
      <point x="117" y="-119"/>
      <point x="80" y="-145" type="curve"/>
      <point x="82" y="-160"/>
      <point x="94" y="-167"/>
      <point x="105" y="-167" type="curve" smooth="yes"/>
      <point x="154" y="-167"/>
      <point x="211" y="-88"/>
      <point x="211" y="10" type="curve" smooth="yes"/>
      <point x="211" y="66"/>
      <point x="183" y="125"/>
      <point x="129" y="125" type="curve" smooth="yes"/>
      <point x="95" y="125"/>
      <point x="69" y="97"/>
      <point x="67" y="68" type="curve"/>
      <point x="110" y="56"/>
      <point x="135" y="15"/>
    </contour>
  </outline>
</glyph>
<glyph name="hyphen" format="1">
  <advance width="503"/>
  <unicode hex="002D"/>
  <outline>
    <contour>
      <point x="443" y="361" type="curve" smooth="yes"/>
      <point x="443" y="309"/>
      <point x="390" y="309"/>
      <point x="368" y="309" type="curve" smooth="yes"/>
      <point x="65" y="309" type="line"/>
      <point x="63" y="313"/>
      <point x="60" y="322"/>
      <point x="60" y="328" type="curve" smooth="yes"/>
      <point x="60" y="379"/>
      <point x="113" y="379"/>
      <point x="135" y="379" type="curve" smooth="yes"/>
      <point x="441" y="379" type="line"/>
      <point x="442" y="375"/>
      <point x="443" y="367"/>
    </contour>
  </outline>
</glyph>
<glyph name="period" format="1">
  <advance width="356"/>
  <unicode hex="002E"/>
  <outline>
    <contour>
      <point x="242" y="74" type="curve" smooth="yes"/>
      <point x="242" y="104"/>
      <point x="220" y="128"/>
      <point x="188" y="128" type="curve" smooth="yes"/>
      <point x="150" y="128"/>
      <point x="112" y="91"/>
      <point x="112" y="52" type="curve" smooth="yes"/>
      <point x="112" y="22"/>
      <point x="134" y="-2"/>
      <point x="167" y="-2" type="curve" smooth="yes"/>
      <point x="206" y="-2"/>
      <point x="242" y="35"/>
    </contour>
  </outline>
</glyph>
<glyph name="slash" format="1">
  <advance width="537"/>
  <unicode hex="002F"/>
  <outline>
    <contour>
      <point x="492" y="943" type="curve"/>
      <point x="480" y="934"/>
      <point x="472" y="911"/>
      <point x="466" y="896" type="curve" smooth="yes"/>
      <point x="129" y="-70" type="line" smooth="yes"/>
      <point x="125" y="-87"/>
      <point x="110" y="-127"/>
      <point x="74" y="-127" type="curve" smooth="yes"/>
      <point x="66" y="-127"/>
      <point x="53" y="-125"/>
      <point x="37" y="-112" type="curve"/>
      <point x="44" y="-105"/>
      <point x="56" y="-83"/>
      <point x="62" y="-65" type="curve" smooth="yes"/>
      <point x="398" y="898" type="line" smooth="yes"/>
      <point x="404" y="916"/>
      <point x="418" y="956"/>
      <point x="453" y="956" type="curve" smooth="yes"/>
      <point x="466" y="956"/>
      <point x="478" y="952"/>
    </contour>
  </outline>
</glyph>
<glyph name="zero" format="1">
  <advance width="653"/>
  <unicode hex="0030"/>
  <outline>
    <contour>
      <point x="58" y="359" type="curve" smooth="yes"/>
      <point x="58" y="148"/>
      <point x="169" y="-9"/>
      <point x="327" y="-9" type="curve" smooth="yes"/>
      <point x="484" y="-9"/>
      <point x="594" y="148"/>
      <point x="594" y="359" type="curve" smooth="yes"/>
      <point x="594" y="581"/>
      <point x="484" y="725"/>
      <point x="327" y="725" type="curve" smooth="yes"/>
      <point x="169" y="725"/>
      <point x="58" y="581"/>
    </contour>
    <contour>
      <point x="316" y="664" type="curve" smooth="yes"/>
      <point x="408" y="664"/>
      <point x="499" y="567"/>
      <point x="505" y="374" type="curve" smooth="yes"/>
      <point x="513" y="181"/>
      <point x="428" y="54"/>
      <point x="335" y="54" type="curve" smooth="yes"/>
      <point x="245" y="54"/>
      <point x="155" y="150"/>
      <point x="148" y="342" type="curve" smooth="yes"/>
      <point x="140" y="536"/>
      <point x="225" y="664"/>
    </contour>
  </outline>
</glyph>
<glyph name="one" format="1">
  <advance width="351"/>
  <unicode hex="0031"/>
  <outline>
    <contour>
      <point x="233" y="62" type="line"/>
      <point x="233" y="40"/>
      <point x="241" y="30"/>
      <point x="258" y="23" type="curve"/>
      <point x="247" y="5"/>
      <point x="228" y="-9"/>
      <point x="206" y="-9" type="curve" smooth="yes"/>
      <point x="168" y="-9"/>
      <point x="149" y="15"/>
      <point x="149" y="61" type="curve" smooth="yes"/>
      <point x="149" y="619" type="line" smooth="yes"/>
      <point x="149" y="640"/>
      <point x="140" y="654"/>
      <point x="115" y="654" type="curve" smooth="yes"/>
      <point x="92" y="654"/>
      <point x="65" y="644"/>
      <point x="39" y="628" type="curve"/>
      <point x="30" y="631"/>
      <point x="25" y="638"/>
      <point x="25" y="648" type="curve" smooth="yes"/>
      <point x="25" y="678"/>
      <point x="86" y="725"/>
      <point x="150" y="725" type="curve" smooth="yes"/>
      <point x="204" y="725"/>
      <point x="233" y="690"/>
      <point x="233" y="636" type="curve" smooth="yes"/>
    </contour>
  </outline>
</glyph>
<glyph name="two" format="1">
  <advance width="577"/>
  <unicode hex="0032"/>
  <outline>
    <contour>
      <point x="490" y="512" type="curve" smooth="yes"/>
      <point x="490" y="638"/>
      <point x="403" y="725"/>
      <point x="271" y="725" type="curve" smooth="yes"/>
      <point x="152" y="725"/>
      <point x="53" y="656"/>
      <point x="53" y="561" type="curve" smooth="yes"/>
      <point x="53" y="514"/>
      <point x="85" y="484"/>
      <point x="121" y="484" type="curve" smooth="yes"/>
      <point x="142" y="484"/>
      <point x="158" y="492"/>
      <point x="170" y="503" type="curve"/>
      <point x="152" y="518"/>
      <point x="141" y="538"/>
      <point x="141" y="564" type="curve" smooth="yes"/>
      <point x="141" y="627"/>
      <point x="202" y="668"/>
      <point x="269" y="668" type="curve" smooth="yes"/>
      <point x="339" y="668"/>
      <point x="401" y="618"/>
      <point x="401" y="517" type="curve" smooth="yes"/>
      <point x="401" y="385"/>
      <point x="277" y="244"/>
      <point x="54" y="61" type="curve"/>
      <point x="51" y="26"/>
      <point x="74" y="0"/>
      <point x="117" y="0" type="curve" smooth="yes"/>
      <point x="426" y="0" type="line" smooth="yes"/>
      <point x="497" y="0"/>
      <point x="533" y="27"/>
      <point x="533" y="66" type="curve" smooth="yes"/>
      <point x="533" y="81"/>
      <point x="526" y="95"/>
      <point x="512" y="106" type="curve"/>
      <point x="492" y="89"/>
      <point x="458" y="78"/>
      <point x="411" y="77" type="curve" smooth="yes"/>
      <point x="89" y="64" type="line"/>
      <point x="124" y="45" type="line"/>
      <point x="353" y="225"/>
      <point x="490" y="360"/>
    </contour>
  </outline>
</glyph>
<glyph name="three" format="1">
  <advance width="555"/>
  <unicode hex="0033"/>
  <outline>
    <contour>
      <point x="466" y="577" type="curve" smooth="yes"/>
      <point x="466" y="667"/>
      <point x="389" y="725"/>
      <point x="288" y="725" type="curve" smooth="yes"/>
      <point x="182" y="725"/>
      <point x="90" y="655"/>
      <point x="90" y="623" type="curve" smooth="yes"/>
      <point x="90" y="610"/>
      <point x="100" y="602"/>
      <point x="109" y="599" type="curve"/>
      <point x="145" y="629"/>
      <point x="204" y="656"/>
      <point x="269" y="656" type="curve" smooth="yes"/>
      <point x="332" y="656"/>
      <point x="383" y="623"/>
      <point x="383" y="564" type="curve" smooth="yes"/>
      <point x="383" y="441"/>
      <point x="157" y="417"/>
      <point x="157" y="358" type="curve" smooth="yes"/>
      <point x="157" y="348"/>
      <point x="162" y="337"/>
      <point x="169" y="333" type="curve"/>
      <point x="187" y="338"/>
      <point x="207" y="340"/>
      <point x="226" y="340" type="curve" smooth="yes"/>
      <point x="329" y="340"/>
      <point x="428" y="281"/>
      <point x="428" y="181" type="curve" smooth="yes"/>
      <point x="428" y="111"/>
      <point x="365" y="54"/>
      <point x="276" y="54" type="curve" smooth="yes"/>
      <point x="194" y="54"/>
      <point x="125" y="103"/>
      <point x="91" y="179" type="curve"/>
      <point x="68" y="174"/>
      <point x="46" y="155"/>
      <point x="46" y="124" type="curve" smooth="yes"/>
      <point x="46" y="47"/>
      <point x="152" y="-9"/>
      <point x="247" y="-9" type="curve" smooth="yes"/>
      <point x="388" y="-9"/>
      <point x="497" y="71"/>
      <point x="497" y="203" type="curve" smooth="yes"/>
      <point x="497" y="312"/>
      <point x="413" y="393"/>
      <point x="305" y="404" type="curve"/>
      <point x="391" y="431"/>
      <point x="466" y="497"/>
    </contour>
  </outline>
</glyph>
<glyph name="four" format="1">
  <advance width="586"/>
  <unicode hex="0034"/>
  <outline>
    <contour>
      <point x="444" y="662" type="line"/>
      <point x="444" y="707"/>
      <point x="428" y="725"/>
      <point x="397" y="725" type="curve" smooth="yes"/>
      <point x="287" y="725"/>
      <point x="54" y="371"/>
      <point x="54" y="234" type="curve" smooth="yes"/>
      <point x="54" y="183"/>
      <point x="86" y="167"/>
      <point x="135" y="167" type="curve" smooth="yes"/>
      <point x="476" y="167" type="line" smooth="yes"/>
      <point x="531" y="167"/>
      <point x="568" y="184"/>
      <point x="568" y="217" type="curve" smooth="yes"/>
      <point x="568" y="231"/>
      <point x="562" y="242"/>
      <point x="557" y="248" type="curve"/>
      <point x="539" y="232"/>
      <point x="507" y="230"/>
      <point x="487" y="230" type="curve" smooth="yes"/>
      <point x="148" y="230" type="line" smooth="yes"/>
      <point x="128" y="230"/>
      <point x="119" y="235"/>
      <point x="119" y="253" type="curve" smooth="yes"/>
      <point x="119" y="351"/>
      <point x="310" y="619"/>
      <point x="349" y="619" type="curve" smooth="yes"/>
      <point x="358" y="619"/>
      <point x="361" y="616"/>
      <point x="361" y="603" type="curve" smooth="yes"/>
      <point x="361" y="61" type="line" smooth="yes"/>
      <point x="361" y="15"/>
      <point x="380" y="-9"/>
      <point x="417" y="-9" type="curve" smooth="yes"/>
      <point x="440" y="-9"/>
      <point x="459" y="5"/>
      <point x="469" y="23" type="curve"/>
      <point x="453" y="30"/>
      <point x="444" y="40"/>
      <point x="444" y="62" type="curve" smooth="yes"/>
    </contour>
  </outline>
</glyph>
<glyph name="five" format="1">
  <advance width="551"/>
  <unicode hex="0035"/>
  <outline>
    <contour>
      <point x="368" y="717" type="line"/>
      <point x="392" y="717"/>
      <point x="424" y="721"/>
      <point x="444" y="736" type="curve"/>
      <point x="455" y="727"/>
      <point x="461" y="713"/>
      <point x="461" y="699" type="curve" smooth="yes"/>
      <point x="461" y="647"/>
      <point x="393" y="639"/>
      <point x="351" y="639" type="curve" smooth="yes"/>
      <point x="201" y="639" type="line"/>
      <point x="148" y="387" type="line"/>
      <point x="118" y="406" type="line"/>
      <point x="161" y="429"/>
      <point x="218" y="444"/>
      <point x="276" y="444" type="curve" smooth="yes"/>
      <point x="400" y="444"/>
      <point x="489" y="354"/>
      <point x="489" y="232" type="curve" smooth="yes"/>
      <point x="489" y="110"/>
      <point x="392" y="-9"/>
      <point x="254" y="-9" type="curve" smooth="yes"/>
      <point x="167" y="-9"/>
      <point x="72" y="41"/>
      <point x="72" y="118" type="curve" smooth="yes"/>
      <point x="72" y="149"/>
      <point x="102" y="170"/>
      <point x="124" y="170" type="curve"/>
      <point x="150" y="99"/>
      <point x="210" y="61"/>
      <point x="280" y="61" type="curve" smooth="yes"/>
      <point x="367" y="61"/>
      <point x="421" y="128"/>
      <point x="421" y="207" type="curve" smooth="yes"/>
      <point x="421" y="319"/>
      <point x="329" y="378"/>
      <point x="230" y="378" type="curve" smooth="yes"/>
      <point x="181" y="378"/>
      <point x="140" y="365"/>
      <point x="126" y="360" type="curve"/>
      <point x="108" y="361"/>
      <point x="89" y="373"/>
      <point x="89" y="402" type="curve" smooth="yes"/>
      <point x="89" y="428"/>
      <point x="107" y="515"/>
      <point x="135" y="638" type="curve" smooth="yes"/>
      <point x="147" y="699"/>
      <point x="189" y="717"/>
      <point x="259" y="717" type="curve" smooth="yes"/>
    </contour>
  </outline>
</glyph>
<glyph name="six" format="1">
  <advance width="601"/>
  <unicode hex="0036"/>
  <outline>
    <contour>
      <point x="63" y="302" type="curve" smooth="yes"/>
      <point x="63" y="128"/>
      <point x="152" y="-9"/>
      <point x="317" y="-9" type="curve" smooth="yes"/>
      <point x="438" y="-9"/>
      <point x="545" y="74"/>
      <point x="545" y="225" type="curve" smooth="yes"/>
      <point x="545" y="341"/>
      <point x="456" y="437"/>
      <point x="331" y="437" type="curve" smooth="yes"/>
      <point x="289" y="437"/>
      <point x="248" y="417"/>
      <point x="247" y="372" type="curve"/>
      <point x="379" y="382"/>
      <point x="465" y="308"/>
      <point x="465" y="196" type="curve" smooth="yes"/>
      <point x="465" y="99"/>
      <point x="405" y="51"/>
      <point x="335" y="51" type="curve" smooth="yes"/>
      <point x="211" y="51"/>
      <point x="150" y="172"/>
      <point x="150" y="311" type="curve" smooth="yes"/>
      <point x="150" y="538"/>
      <point x="311" y="672"/>
      <point x="486" y="689" type="curve"/>
      <point x="487" y="691"/>
      <point x="487" y="695"/>
      <point x="487" y="697" type="curve" smooth="yes"/>
      <point x="487" y="717"/>
      <point x="464" y="725"/>
      <point x="441" y="725" type="curve" smooth="yes"/>
      <point x="246" y="725"/>
      <point x="63" y="535"/>
    </contour>
  </outline>
</glyph>
<glyph name="seven" format="1">
  <advance width="481"/>
  <unicode hex="0037"/>
  <outline>
    <contour>
      <point x="122" y="717" type="line"/>
      <point x="71" y="717"/>
      <point x="24" y="697"/>
      <point x="24" y="647" type="curve" smooth="yes"/>
      <point x="24" y="627"/>
      <point x="35" y="612"/>
      <point x="46" y="607" type="curve"/>
      <point x="65" y="627"/>
      <point x="90" y="637"/>
      <point x="124" y="637" type="curve" smooth="yes"/>
      <point x="281" y="637" type="line" smooth="yes"/>
      <point x="308" y="637"/>
      <point x="343" y="638"/>
      <point x="375" y="646" type="curve"/>
      <point x="271" y="483"/>
      <point x="112" y="231"/>
      <point x="112" y="89" type="curve" smooth="yes"/>
      <point x="112" y="28"/>
      <point x="143" y="-9"/>
      <point x="186" y="-9" type="curve" smooth="yes"/>
      <point x="223" y="-9"/>
      <point x="238" y="20"/>
      <point x="241" y="36" type="curve"/>
      <point x="217" y="43"/>
      <point x="204" y="68"/>
      <point x="204" y="102" type="curve" smooth="yes"/>
      <point x="204" y="333"/>
      <point x="441" y="599"/>
      <point x="441" y="680" type="curve" smooth="yes"/>
      <point x="441" y="700"/>
      <point x="436" y="712"/>
      <point x="433" y="717" type="curve"/>
    </contour>
  </outline>
</glyph>
<glyph name="eight" format="1">
  <advance width="575"/>
  <unicode hex="0038"/>
  <outline>
    <contour>
      <point x="141" y="201" type="curve" smooth="yes"/>
      <point x="141" y="275"/>
      <point x="175" y="326"/>
      <point x="214" y="361" type="curve"/>
      <point x="315" y="301"/>
      <point x="438" y="260"/>
      <point x="438" y="156" type="curve" smooth="yes"/>
      <point x="438" y="85"/>
      <point x="374" y="45"/>
      <point x="311" y="45" type="curve" smooth="yes"/>
      <point x="201" y="45"/>
      <point x="141" y="125"/>
    </contour>
    <contour>
      <point x="418" y="517" type="curve" smooth="yes"/>
      <point x="418" y="447"/>
      <point x="391" y="402"/>
      <point x="360" y="369" type="curve"/>
      <point x="261" y="425"/>
      <point x="152" y="464"/>
      <point x="152" y="562" type="curve" smooth="yes"/>
      <point x="152" y="631"/>
      <point x="211" y="674"/>
      <point x="275" y="674" type="curve" smooth="yes"/>
      <point x="366" y="674"/>
      <point x="418" y="592"/>
    </contour>
    <contour>
      <point x="499" y="530" type="curve" smooth="yes"/>
      <point x="499" y="653"/>
      <point x="383" y="725"/>
      <point x="286" y="725" type="curve" smooth="yes"/>
      <point x="153" y="725"/>
      <point x="74" y="625"/>
      <point x="74" y="544" type="curve" smooth="yes"/>
      <point x="74" y="467"/>
      <point x="121" y="421"/>
      <point x="180" y="382" type="curve"/>
      <point x="115" y="347"/>
      <point x="60" y="275"/>
      <point x="60" y="188" type="curve" smooth="yes"/>
      <point x="60" y="63"/>
      <point x="191" y="-9"/>
      <point x="302" y="-9" type="curve" smooth="yes"/>
      <point x="426" y="-9"/>
      <point x="515" y="85"/>
      <point x="515" y="179" type="curve" smooth="yes"/>
      <point x="515" y="259"/>
      <point x="461" y="309"/>
      <point x="394" y="350" type="curve"/>
      <point x="450" y="384"/>
      <point x="499" y="446"/>
    </contour>
  </outline>
</glyph>
<glyph name="nine" format="1">
  <advance width="556"/>
  <unicode hex="0039"/>
  <outline>
    <contour>
      <point x="514" y="408" type="curve" smooth="yes"/>
      <point x="514" y="589"/>
      <point x="418" y="725"/>
      <point x="252" y="725" type="curve" smooth="yes"/>
      <point x="132" y="725"/>
      <point x="32" y="643"/>
      <point x="32" y="503" type="curve" smooth="yes"/>
      <point x="32" y="391"/>
      <point x="124" y="280"/>
      <point x="258" y="280" type="curve" smooth="yes"/>
      <point x="300" y="280"/>
      <point x="342" y="300"/>
      <point x="342" y="345" type="curve"/>
      <point x="214" y="333"/>
      <point x="108" y="407"/>
      <point x="108" y="532" type="curve" smooth="yes"/>
      <point x="108" y="616"/>
      <point x="167" y="663"/>
      <point x="237" y="663" type="curve" smooth="yes"/>
      <point x="374" y="663"/>
      <point x="430" y="514"/>
      <point x="430" y="392" type="curve" smooth="yes"/>
      <point x="430" y="194"/>
      <point x="291" y="45"/>
      <point x="115" y="28" type="curve"/>
      <point x="114" y="26"/>
      <point x="114" y="23"/>
      <point x="114" y="20" type="curve" smooth="yes"/>
      <point x="114" y="0"/>
      <point x="137" y="-9"/>
      <point x="160" y="-9" type="curve" smooth="yes"/>
      <point x="355" y="-9"/>
      <point x="514" y="196"/>
    </contour>
  </outline>
</glyph>
<glyph name="colon" format="1">
  <advance width="317"/>
  <unicode hex="003A"/>
  <outline>
    <contour>
      <point x="227" y="453" type="curve" smooth="yes"/>
      <point x="227" y="485"/>
      <point x="205" y="508"/>
      <point x="173" y="508" type="curve" smooth="yes"/>
      <point x="135" y="508"/>
      <point x="97" y="472"/>
      <point x="97" y="432" type="curve" smooth="yes"/>
      <point x="97" y="402"/>
      <point x="120" y="379"/>
      <point x="152" y="379" type="curve" smooth="yes"/>
      <point x="191" y="379"/>
      <point x="227" y="415"/>
    </contour>
    <contour>
      <point x="227" y="77" type="curve" smooth="yes"/>
      <point x="227" y="108"/>
      <point x="205" y="131"/>
      <point x="173" y="131" type="curve" smooth="yes"/>
      <point x="135" y="131"/>
      <point x="97" y="95"/>
      <point x="97" y="56" type="curve" smooth="yes"/>
      <point x="97" y="25"/>
      <point x="120" y="2"/>
      <point x="152" y="2" type="curve" smooth="yes"/>
      <point x="191" y="2"/>
      <point x="227" y="38"/>
    </contour>
  </outline>
</glyph>
<glyph name="semicolon" format="1">
  <advance width="317"/>
  <unicode hex="003B"/>
  <outline>
    <contour>
      <point x="227" y="453" type="curve" smooth="yes"/>
      <point x="227" y="485"/>
      <point x="205" y="508"/>
      <point x="173" y="508" type="curve" smooth="yes"/>
      <point x="135" y="508"/>
      <point x="97" y="472"/>
      <point x="97" y="432" type="curve" smooth="yes"/>
      <point x="97" y="402"/>
      <point x="120" y="379"/>
      <point x="152" y="379" type="curve" smooth="yes"/>
      <point x="191" y="379"/>
      <point x="227" y="415"/>
    </contour>
    <contour>
      <point x="165" y="-30" type="curve" smooth="yes"/>
      <point x="165" y="-74"/>
      <point x="147" y="-119"/>
      <point x="109" y="-145" type="curve"/>
      <point x="112" y="-160"/>
      <point x="123" y="-167"/>
      <point x="135" y="-167" type="curve" smooth="yes"/>
      <point x="184" y="-167"/>
      <point x="239" y="-82"/>
      <point x="239" y="15" type="curve" smooth="yes"/>
      <point x="239" y="68"/>
      <point x="213" y="127"/>
      <point x="159" y="127" type="curve" smooth="yes"/>
      <point x="124" y="127"/>
      <point x="98" y="101"/>
      <point x="95" y="71" type="curve"/>
      <point x="139" y="59"/>
      <point x="165" y="17"/>
    </contour>
  </outline>
</glyph>
<glyph name="less" format="1">
  <advance width="664"/>
  <unicode hex="003C"/>
  <outline>
    <contour>
      <point x="132" y="411" type="curve" smooth="yes"/>
      <point x="132" y="454"/>
      <point x="426" y="579"/>
      <point x="533" y="613" type="curve"/>
      <point x="533" y="639"/>
      <point x="512" y="645"/>
      <point x="499" y="645" type="curve" smooth="yes"/>
      <point x="437" y="645"/>
      <point x="36" y="478"/>
      <point x="36" y="397" type="curve" smooth="yes"/>
      <point x="36" y="323"/>
      <point x="400" y="168"/>
      <point x="475" y="168" type="curve" smooth="yes"/>
      <point x="513" y="168"/>
      <point x="539" y="189"/>
      <point x="539" y="231" type="curve"/>
      <point x="385" y="267"/>
      <point x="132" y="383"/>
    </contour>
  </outline>
</glyph>
<glyph name="equal" format="1">
  <advance width="722"/>
  <unicode hex="003D"/>
  <outline>
    <contour>
      <point x="169" y="549" type="line"/>
      <point x="147" y="549"/>
      <point x="94" y="549"/>
      <point x="94" y="498" type="curve" smooth="yes"/>
      <point x="94" y="491"/>
      <point x="97" y="483"/>
      <point x="98" y="479" type="curve"/>
      <point x="552" y="479" type="line" smooth="yes"/>
      <point x="575" y="479"/>
      <point x="628" y="479"/>
      <point x="628" y="533" type="curve" smooth="yes"/>
      <point x="628" y="538"/>
      <point x="627" y="545"/>
      <point x="626" y="549" type="curve"/>
    </contour>
    <contour>
      <point x="169" y="309" type="line"/>
      <point x="147" y="309"/>
      <point x="94" y="309"/>
      <point x="94" y="257" type="curve" smooth="yes"/>
      <point x="94" y="251"/>
      <point x="97" y="243"/>
      <point x="98" y="239" type="curve"/>
      <point x="552" y="239" type="line" smooth="yes"/>
      <point x="575" y="239"/>
      <point x="628" y="239"/>
      <point x="628" y="293" type="curve" smooth="yes"/>
      <point x="628" y="297"/>
      <point x="627" y="304"/>
      <point x="626" y="309" type="curve"/>
    </contour>
  </outline>
</glyph>
<glyph name="greater" format="1">
  <advance width="655"/>
  <unicode hex="003E"/>
  <outline>
    <contour>
      <point x="148" y="60" type="curve" smooth="yes"/>
      <point x="224" y="60"/>
      <point x="589" y="216"/>
      <point x="589" y="289" type="curve" smooth="yes"/>
      <point x="589" y="370"/>
      <point x="188" y="537"/>
      <point x="125" y="537" type="curve" smooth="yes"/>
      <point x="112" y="537"/>
      <point x="91" y="531"/>
      <point x="91" y="505" type="curve"/>
      <point x="199" y="472"/>
      <point x="492" y="346"/>
      <point x="492" y="303" type="curve" smooth="yes"/>
      <point x="492" y="275"/>
      <point x="239" y="159"/>
      <point x="86" y="123" type="curve"/>
      <point x="86" y="82"/>
      <point x="111" y="60"/>
    </contour>
  </outline>
</glyph>
<glyph name="question" format="1">
  <advance width="494"/>
  <unicode hex="003F"/>
  <outline>
    <contour>
      <point x="270" y="307" type="curve" smooth="yes"/>
      <point x="270" y="419"/>
      <point x="433" y="445"/>
      <point x="433" y="608" type="curve" smooth="yes"/>
      <point x="433" y="691"/>
      <point x="360" y="760"/>
      <point x="251" y="760" type="curve" smooth="yes"/>
      <point x="145" y="760"/>
      <point x="56" y="697"/>
      <point x="56" y="613" type="curve" smooth="yes"/>
      <point x="56" y="551"/>
      <point x="92" y="510"/>
      <point x="147" y="510" type="curve" smooth="yes"/>
      <point x="172" y="510"/>
      <point x="199" y="524"/>
      <point x="201" y="539" type="curve"/>
      <point x="159" y="555"/>
      <point x="137" y="590"/>
      <point x="137" y="629" type="curve" smooth="yes"/>
      <point x="137" y="684"/>
      <point x="182" y="713"/>
      <point x="238" y="713" type="curve" smooth="yes"/>
      <point x="308" y="713"/>
      <point x="347" y="656"/>
      <point x="347" y="602" type="curve" smooth="yes"/>
      <point x="347" y="461"/>
      <point x="187" y="423"/>
      <point x="187" y="289" type="curve" smooth="yes"/>
      <point x="187" y="238"/>
      <point x="226" y="203"/>
      <point x="270" y="203" type="curve" smooth="yes"/>
      <point x="297" y="203"/>
      <point x="320" y="222"/>
      <point x="322" y="249" type="curve"/>
      <point x="288" y="252"/>
      <point x="270" y="277"/>
    </contour>
    <contour>
      <point x="312" y="62" type="curve" smooth="yes"/>
      <point x="312" y="90"/>
      <point x="291" y="111"/>
      <point x="259" y="111" type="curve" smooth="yes"/>
      <point x="224" y="111"/>
      <point x="187" y="78"/>
      <point x="187" y="43" type="curve" smooth="yes"/>
      <point x="187" y="13"/>
      <point x="208" y="-9"/>
      <point x="239" y="-9" type="curve" smooth="yes"/>
      <point x="277" y="-9"/>
      <point x="312" y="25"/>
    </contour>
  </outline>
</glyph>
<glyph name="at" format="1">
  <advance width="870"/>
  <unicode hex="0040"/>
  <outline>
    <contour>
      <point x="530" y="292" type="line"/>
      <point x="388" y="286"/>
      <point x="330" y="243"/>
      <point x="328" y="194" type="curve" smooth="yes"/>
      <point x="325" y="153"/>
      <point x="354" y="136"/>
      <point x="398" y="136" type="curve" smooth="yes"/>
      <point x="448" y="136"/>
      <point x="494" y="160"/>
      <point x="528" y="206" type="curve"/>
      <point x="533" y="171" type="line"/>
      <point x="498" y="116"/>
      <point x="440" y="82"/>
      <point x="369" y="82" type="curve" smooth="yes"/>
      <point x="296" y="82"/>
      <point x="242" y="120"/>
      <point x="246" y="187" type="curve" smooth="yes"/>
      <point x="250" y="266"/>
      <point x="340" y="323"/>
      <point x="532" y="328" type="curve"/>
    </contour>
    <contour>
      <point x="604" y="384" type="curve" smooth="yes"/>
      <point x="591" y="168" type="line" smooth="yes"/>
      <point x="589" y="142"/>
      <point x="599" y="131"/>
      <point x="621" y="131" type="curve" smooth="yes"/>
      <point x="671" y="131"/>
      <point x="747" y="193"/>
      <point x="748" y="342" type="curve" smooth="yes"/>
      <point x="749" y="511"/>
      <point x="621" y="615"/>
      <point x="462" y="614" type="curve" smooth="yes"/>
      <point x="261" y="613"/>
      <point x="120" y="475"/>
      <point x="120" y="247" type="curve" smooth="yes"/>
      <point x="120" y="39"/>
      <point x="259" y="-30"/>
      <point x="378" y="-30" type="curve" smooth="yes"/>
      <point x="451" y="-30"/>
      <point x="515" y="-13"/>
      <point x="564" y="14" type="curve"/>
      <point x="593" y="-13"/>
      <point x="519" y="-75"/>
      <point x="369" y="-75" type="curve" smooth="yes"/>
      <point x="231" y="-75"/>
      <point x="70" y="12"/>
      <point x="70" y="247" type="curve" smooth="yes"/>
      <point x="70" y="501"/>
      <point x="248" y="659"/>
      <point x="470" y="659" type="curve" smooth="yes"/>
      <point x="653" y="659"/>
      <point x="798" y="534"/>
      <point x="798" y="346" type="curve" smooth="yes"/>
      <point x="798" y="175"/>
      <point x="688" y="80"/>
      <point x="600" y="80" type="curve" smooth="yes"/>
      <point x="546" y="80"/>
      <point x="510" y="113"/>
      <point x="515" y="170" type="curve" smooth="yes"/>
      <point x="527" y="378" type="line" smooth="yes"/>
      <point x="530" y="445"/>
      <point x="508" y="477"/>
      <point x="448" y="477" type="curve" smooth="yes"/>
      <point x="389" y="477"/>
      <point x="361" y="450"/>
      <point x="360" y="422" type="curve" smooth="yes"/>
      <point x="359" y="412"/>
      <point x="362" y="400"/>
      <point x="371" y="391" type="curve"/>
      <point x="358" y="383"/>
      <point x="341" y="379"/>
      <point x="328" y="379" type="curve" smooth="yes"/>
      <point x="297" y="379"/>
      <point x="276" y="395"/>
      <point x="278" y="423" type="curve" smooth="yes"/>
      <point x="281" y="475"/>
      <point x="358" y="517"/>
      <point x="450" y="517" type="curve" smooth="yes"/>
      <point x="549" y="517"/>
      <point x="607" y="468"/>
    </contour>
  </outline>
</glyph>
<glyph name="A" format="1">
  <advance width="655"/>
  <unicode hex="0041"/>
  <outline>
    <contour>
      <point x="330" y="717" type="move" name="top"/>
    </contour>
    <contour>
      <point x="622" y="14" type="move" name="ogonek"/>
    </contour>
    <contour>
      <point x="510" y="169" type="line"/>
      <point x="489" y="230" type="line"/>
      <point x="170" y="230" type="line"/>
      <point x="147" y="169" type="line"/>
    </contour>
    <contour>
      <point x="375" y="662" type="line"/>
      <point x="359" y="704"/>
      <point x="344" y="725"/>
      <point x="310" y="725" type="curve" smooth="yes"/>
      <point x="288" y="725"/>
      <point x="271" y="715"/>
      <point x="258" y="700" type="curve"/>
      <point x="272" y="690"/>
      <point x="280" y="676"/>
      <point x="287" y="657" type="curve"/>
      <point x="56" y="65" type="line" smooth="yes"/>
      <point x="47" y="42"/>
      <point x="39" y="29"/>
      <point x="22" y="23" type="curve"/>
      <point x="27" y="4"/>
      <point x="49" y="-8"/>
      <point x="73" y="-8" type="curve" smooth="yes"/>
      <point x="103" y="-8"/>
      <point x="122" y="9"/>
      <point x="138" y="55" type="curve" smooth="yes"/>
      <point x="341" y="631" type="line"/>
      <point x="308" y="619" type="line"/>
      <point x="514" y="54" type="line" smooth="yes"/>
      <point x="531" y="8"/>
      <point x="549" y="-8"/>
      <point x="580" y="-8" type="curve" smooth="yes"/>
      <point x="606" y="-8"/>
      <point x="628" y="6"/>
      <point x="637" y="25" type="curve"/>
      <point x="619" y="31"/>
      <point x="608" y="45"/>
      <point x="597" y="73" type="curve" smooth="yes"/>
    </contour>
  </outline>
</glyph>
<glyph name="B" format="1">
  <advance width="697"/>
  <unicode hex="0042"/>
  <outline>
    <contour>
      <point x="599" y="535" type="curve" smooth="yes"/>
      <point x="599" y="448"/>
      <point x="544" y="396"/>
      <point x="466" y="374" type="curve"/>
      <point x="571" y="359"/>
      <point x="645" y="283"/>
      <point x="645" y="196" type="curve" smooth="yes"/>
      <point x="645" y="84"/>
      <point x="551" y="0"/>
      <point x="390" y="0" type="curve" smooth="yes"/>
      <point x="246" y="0" type="line" smooth="yes"/>
      <point x="137" y="0"/>
      <point x="97" y="38"/>
      <point x="97" y="135" type="curve" smooth="yes"/>
      <point x="98" y="641" type="line" smooth="yes"/>
      <point x="98" y="664"/>
      <point x="90" y="674"/>
      <point x="73" y="681" type="curve"/>
      <point x="90" y="705"/>
      <point x="111" y="717"/>
      <point x="153" y="717" type="curve" smooth="yes"/>
      <point x="349" y="717" type="line" smooth="yes"/>
      <point x="519" y="717"/>
      <point x="599" y="636"/>
    </contour>
    <contour>
      <point x="184" y="655" type="line"/>
      <point x="182" y="395" type="line"/>
      <point x="341" y="395" type="line" smooth="yes"/>
      <point x="455" y="394"/>
      <point x="509" y="446"/>
      <point x="509" y="526" type="curve" smooth="yes"/>
      <point x="509" y="602"/>
      <point x="455" y="655"/>
      <point x="341" y="655" type="curve" smooth="yes"/>
    </contour>
    <contour>
      <point x="182" y="333" type="line"/>
      <point x="181" y="135" type="line" smooth="yes"/>
      <point x="181" y="78"/>
      <point x="201" y="62"/>
      <point x="251" y="62" type="curve" smooth="yes"/>
      <point x="390" y="62" type="line" smooth="yes"/>
      <point x="499" y="62"/>
      <point x="555" y="115"/>
      <point x="555" y="197" type="curve" smooth="yes"/>
      <point x="555" y="281"/>
      <point x="499" y="333"/>
      <point x="390" y="333" type="curve" smooth="yes"/>
    </contour>
  </outline>
</glyph>
<glyph name="C" format="1">
  <advance width="677"/>
  <unicode hex="0043"/>
  <outline>
    <contour>
      <point x="340" y="717" type="move" name="top"/>
    </contour>
    <contour>
      <point x="340" y="0" type="move" name="bottom"/>
    </contour>
    <contour>
      <point x="605" y="605" type="curve" smooth="yes"/>
      <point x="605" y="571"/>
      <point x="580" y="552"/>
      <point x="548" y="552" type="curve" smooth="yes"/>
      <point x="536" y="552"/>
      <point x="524" y="553"/>
      <point x="513" y="559" type="curve"/>
      <point x="520" y="613"/>
      <point x="478" y="660"/>
      <point x="386" y="660" type="curve" smooth="yes"/>
      <point x="275" y="660"/>
      <point x="157" y="565"/>
      <point x="157" y="358" type="curve" smooth="yes"/>
      <point x="157" y="171"/>
      <point x="245" y="68"/>
      <point x="392" y="68" type="curve" smooth="yes"/>
      <point x="477" y="68"/>
      <point x="548" y="110"/>
      <point x="586" y="149" type="curve"/>
      <point x="593" y="148"/>
      <point x="606" y="138"/>
      <point x="606" y="117" type="curve" smooth="yes"/>
      <point x="606" y="75"/>
      <point x="510" y="-9"/>
      <point x="369" y="-9" type="curve" smooth="yes"/>
      <point x="195" y="-9"/>
      <point x="65" y="127"/>
      <point x="65" y="341" type="curve" smooth="yes"/>
      <point x="65" y="579"/>
      <point x="217" y="725"/>
      <point x="403" y="725" type="curve" smooth="yes"/>
      <point x="520" y="725"/>
      <point x="605" y="670"/>
    </contour>
  </outline>
</glyph>
<glyph name="D" format="1">
  <advance width="722"/>
  <unicode hex="0044"/>
  <outline>
    <contour>
      <point x="361" y="706" type="move" name="top"/>
    </contour>
    <contour>
      <point x="184" y="645" type="line"/>
      <point x="230" y="658"/>
      <point x="259" y="661"/>
      <point x="304" y="661" type="curve" smooth="yes"/>
      <point x="453" y="661"/>
      <point x="591" y="565"/>
      <point x="591" y="358" type="curve" smooth="yes"/>
      <point x="591" y="149"/>
      <point x="453" y="53"/>
      <point x="304" y="53" type="curve" smooth="yes"/>
      <point x="188" y="53"/>
      <point x="181" y="75"/>
      <point x="181" y="116" type="curve" smooth="yes"/>
    </contour>
    <contour>
      <point x="681" y="358" type="curve" smooth="yes"/>
      <point x="681" y="616"/>
      <point x="490" y="725"/>
      <point x="304" y="725" type="curve" smooth="yes"/>
      <point x="223" y="725"/>
      <point x="152" y="714"/>
      <point x="83" y="690" type="curve"/>
      <point x="94" y="676"/>
      <point x="98" y="658"/>
      <point x="98" y="634" type="curve" smooth="yes"/>
      <point x="97" y="116" type="line" smooth="yes"/>
      <point x="97" y="40"/>
      <point x="132" y="-9"/>
      <point x="304" y="-9" type="curve" smooth="yes"/>
      <point x="490" y="-9"/>
      <point x="681" y="100"/>
    </contour>
  </outline>
</glyph>
<glyph name="E" format="1">
  <advance width="640"/>
  <unicode hex="0045"/>
  <outline>
    <contour>
      <point x="323" y="717" type="move" name="top"/>
    </contour>
    <contour>
      <point x="543" y="27" type="move" name="ogonek"/>
    </contour>
    <contour>
      <point x="320" y="0" type="move" name="bottom"/>
    </contour>
    <contour>
      <point x="480" y="717" type="curve"/>
      <point x="164" y="717" type="line" smooth="yes"/>
      <point x="122" y="717"/>
      <point x="100" y="705"/>
      <point x="84" y="681" type="curve"/>
      <point x="101" y="674"/>
      <point x="109" y="664"/>
      <point x="109" y="641" type="curve" smooth="yes"/>
      <point x="109" y="132" type="line" smooth="yes"/>
      <point x="109" y="37"/>
      <point x="159" y="0"/>
      <point x="260" y="0" type="curve" smooth="yes"/>
      <point x="470" y="0" type="line" smooth="yes"/>
      <point x="550" y="0"/>
      <point x="580" y="28"/>
      <point x="580" y="66" type="curve" smooth="yes"/>
      <point x="580" y="83"/>
      <point x="568" y="102"/>
      <point x="551" y="109" type="curve"/>
      <point x="532" y="80"/>
      <point x="506" y="67"/>
      <point x="466" y="67" type="curve" smooth="yes"/>
      <point x="264" y="67" type="line" smooth="yes"/>
      <point x="213" y="67"/>
      <point x="193" y="87"/>
      <point x="193" y="135" type="curve" smooth="yes"/>
      <point x="193" y="649" type="line"/>
      <point x="466" y="649" type="line" smooth="yes"/>
      <point x="506" y="649"/>
      <point x="531" y="642"/>
      <point x="551" y="624" type="curve"/>
      <point x="568" y="630"/>
      <point x="580" y="645"/>
      <point x="580" y="665" type="curve" smooth="yes"/>
      <point x="580" y="698"/>
      <point x="550" y="717"/>
    </contour>
    <contour>
      <point x="404" y="405" type="curve"/>
      <point x="173" y="405" type="line"/>
      <point x="173" y="337" type="line"/>
      <point x="396" y="337" type="line" smooth="yes"/>
      <point x="435" y="337"/>
      <point x="460" y="334"/>
      <point x="481" y="323" type="curve"/>
      <point x="495" y="330"/>
      <point x="505" y="344"/>
      <point x="505" y="364" type="curve" smooth="yes"/>
      <point x="505" y="396"/>
      <point x="475" y="405"/>
    </contour>
  </outline>
</glyph>
<glyph name="F" format="1">
  <advance width="608"/>
  <unicode hex="0046"/>
  <outline>
    <contour>
      <point x="404" y="403" type="curve"/>
      <point x="173" y="403" type="line"/>
      <point x="173" y="337" type="line"/>
      <point x="396" y="337" type="line" smooth="yes"/>
      <point x="435" y="337"/>
      <point x="460" y="334"/>
      <point x="481" y="323" type="curve"/>
      <point x="495" y="331"/>
      <point x="505" y="344"/>
      <point x="505" y="363" type="curve" smooth="yes"/>
      <point x="505" y="395"/>
      <point x="475" y="403"/>
    </contour>
    <contour>
      <point x="109" y="641" type="curve"/>
      <point x="109" y="62" type="line" smooth="yes"/>
      <point x="109" y="16"/>
      <point x="128" y="-8"/>
      <point x="165" y="-8" type="curve" smooth="yes"/>
      <point x="188" y="-8"/>
      <point x="206" y="6"/>
      <point x="218" y="24" type="curve"/>
      <point x="200" y="31"/>
      <point x="193" y="41"/>
      <point x="193" y="63" type="curve" smooth="yes"/>
      <point x="193" y="651" type="line"/>
      <point x="466" y="651" type="line" smooth="yes"/>
      <point x="506" y="651"/>
      <point x="531" y="643"/>
      <point x="551" y="625" type="curve"/>
      <point x="568" y="632"/>
      <point x="580" y="646"/>
      <point x="580" y="667" type="curve" smooth="yes"/>
      <point x="580" y="698"/>
      <point x="552" y="717"/>
      <point x="481" y="717" type="curve" smooth="yes"/>
      <point x="164" y="717" type="line" smooth="yes"/>
      <point x="122" y="717"/>
      <point x="100" y="705"/>
      <point x="84" y="681" type="curve"/>
      <point x="101" y="674"/>
      <point x="109" y="664"/>
    </contour>
  </outline>
</glyph>
<glyph name="G" format="1">
  <advance width="715"/>
  <unicode hex="0047"/>
  <outline>
    <contour>
      <point x="413" y="717" type="move" name="top"/>
    </contour>
    <contour>
      <point x="358" y="0" type="move" name="bottom"/>
    </contour>
    <contour>
      <point x="647" y="599" type="curve" smooth="yes"/>
      <point x="647" y="664"/>
      <point x="569" y="725"/>
      <point x="437" y="725" type="curve" smooth="yes"/>
      <point x="217" y="725"/>
      <point x="65" y="561"/>
      <point x="65" y="321" type="curve" smooth="yes"/>
      <point x="65" y="113"/>
      <point x="200" y="-9"/>
      <point x="361" y="-9" type="curve" smooth="yes"/>
      <point x="464" y="-9"/>
      <point x="542" y="56"/>
      <point x="570" y="106" type="curve"/>
      <point x="553" y="106" type="line"/>
      <point x="553" y="-30" type="line" smooth="yes"/>
      <point x="553" y="-76"/>
      <point x="572" y="-99"/>
      <point x="609" y="-99" type="curve" smooth="yes"/>
      <point x="633" y="-99"/>
      <point x="651" y="-86"/>
      <point x="662" y="-67" type="curve"/>
      <point x="646" y="-61"/>
      <point x="637" y="-51"/>
      <point x="637" y="-29" type="curve" smooth="yes"/>
      <point x="639" y="312" type="line" smooth="yes"/>
      <point x="639" y="360"/>
      <point x="626" y="379"/>
      <point x="523" y="379" type="curve" smooth="yes"/>
      <point x="403" y="379"/>
      <point x="364" y="366"/>
      <point x="364" y="336" type="curve" smooth="yes"/>
      <point x="364" y="325"/>
      <point x="369" y="314"/>
      <point x="375" y="306" type="curve"/>
      <point x="400" y="308"/>
      <point x="453" y="311"/>
      <point x="497" y="311" type="curve" smooth="yes"/>
      <point x="557" y="311" type="line"/>
      <point x="555" y="161" type="line"/>
      <point x="508" y="97"/>
      <point x="454" y="63"/>
      <point x="374" y="63" type="curve" smooth="yes"/>
      <point x="239" y="63"/>
      <point x="157" y="163"/>
      <point x="157" y="341" type="curve" smooth="yes"/>
      <point x="157" y="545"/>
      <point x="260" y="660"/>
      <point x="417" y="660" type="curve" smooth="yes"/>
      <point x="514" y="660"/>
      <point x="561" y="613"/>
      <point x="555" y="555" type="curve"/>
      <point x="566" y="549"/>
      <point x="578" y="547"/>
      <point x="590" y="547" type="curve" smooth="yes"/>
      <point x="623" y="547"/>
      <point x="647" y="569"/>
    </contour>
  </outline>
</glyph>
<glyph name="H" format="1">
  <advance width="748"/>
  <unicode hex="0048"/>
  <outline>
    <contour>
      <point x="180" y="62" type="curve"/>
      <point x="180" y="656" type="line" smooth="yes"/>
      <point x="180" y="702"/>
      <point x="160" y="725"/>
      <point x="123" y="725" type="curve" smooth="yes"/>
      <point x="100" y="725"/>
      <point x="81" y="711"/>
      <point x="71" y="694" type="curve"/>
      <point x="87" y="687"/>
      <point x="96" y="677"/>
      <point x="96" y="655" type="curve" smooth="yes"/>
      <point x="96" y="61" type="line" smooth="yes"/>
      <point x="96" y="15"/>
      <point x="114" y="-9"/>
      <point x="151" y="-9" type="curve" smooth="yes"/>
      <point x="174" y="-9"/>
      <point x="193" y="5"/>
      <point x="204" y="23" type="curve"/>
      <point x="188" y="30"/>
      <point x="180" y="40"/>
    </contour>
    <contour>
      <point x="648" y="62" type="curve"/>
      <point x="648" y="656" type="line" smooth="yes"/>
      <point x="648" y="702"/>
      <point x="630" y="725"/>
      <point x="592" y="725" type="curve" smooth="yes"/>
      <point x="569" y="725"/>
      <point x="550" y="711"/>
      <point x="540" y="694" type="curve"/>
      <point x="556" y="687"/>
      <point x="565" y="677"/>
      <point x="565" y="655" type="curve" smooth="yes"/>
      <point x="565" y="61" type="line" smooth="yes"/>
      <point x="565" y="15"/>
      <point x="583" y="-9"/>
      <point x="621" y="-9" type="curve" smooth="yes"/>
      <point x="644" y="-9"/>
      <point x="662" y="5"/>
      <point x="673" y="23" type="curve"/>
      <point x="656" y="30"/>
      <point x="648" y="40"/>
    </contour>
    <contour>
      <point x="592" y="389" type="line"/>
      <point x="150" y="389" type="line"/>
      <point x="150" y="328" type="line"/>
      <point x="592" y="328" type="line"/>
    </contour>
  </outline>
</glyph>
<glyph name="I" format="1">
  <advance width="279"/>
  <unicode hex="0049"/>
  <outline>
    <contour>
      <point x="139" y="717" type="move" name="top"/>
    </contour>
    <contour>
      <point x="208" y="12" type="move" name="ogonek"/>
    </contour>
    <contour>
      <point x="180" y="62" type="curve"/>
      <point x="180" y="656" type="line" smooth="yes"/>
      <point x="180" y="702"/>
      <point x="160" y="725"/>
      <point x="123" y="725" type="curve" smooth="yes"/>
      <point x="100" y="725"/>
      <point x="81" y="711"/>
      <point x="71" y="694" type="curve"/>
      <point x="87" y="687"/>
      <point x="96" y="677"/>
      <point x="96" y="655" type="curve" smooth="yes"/>
      <point x="96" y="61" type="line" smooth="yes"/>
      <point x="96" y="15"/>
      <point x="114" y="-9"/>
      <point x="151" y="-9" type="curve" smooth="yes"/>
      <point x="174" y="-9"/>
      <point x="193" y="5"/>
      <point x="204" y="23" type="curve"/>
      <point x="188" y="30"/>
      <point x="180" y="40"/>
    </contour>
  </outline>
</glyph>
<glyph name="J" format="1">
  <advance width="396"/>
  <unicode hex="004A"/>
  <outline>
    <contour>
      <point x="158" y="-8" type="curve" smooth="yes"/>
      <point x="74" y="-8"/>
      <point x="27" y="26"/>
      <point x="27" y="62" type="curve" smooth="yes"/>
      <point x="27" y="75"/>
      <point x="31" y="87"/>
      <point x="39" y="95" type="curve"/>
      <point x="69" y="74"/>
      <point x="102" y="62"/>
      <point x="147" y="62" type="curve" smooth="yes"/>
      <point x="201" y="62"/>
      <point x="231" y="87"/>
      <point x="231" y="145" type="curve" smooth="yes"/>
      <point x="231" y="655" type="line" smooth="yes"/>
      <point x="231" y="677"/>
      <point x="223" y="687"/>
      <point x="206" y="694" type="curve"/>
      <point x="217" y="711"/>
      <point x="236" y="725"/>
      <point x="259" y="725" type="curve" smooth="yes"/>
      <point x="295" y="725"/>
      <point x="315" y="702"/>
      <point x="315" y="656" type="curve" smooth="yes"/>
      <point x="315" y="147" type="line" smooth="yes"/>
      <point x="315" y="46"/>
      <point x="251" y="-8"/>
    </contour>
  </outline>
</glyph>
<glyph name="K" format="1">
  <advance width="643"/>
  <unicode hex="004B"/>
  <outline>
    <contour>
      <point x="322" y="700" type="move" name="top"/>
    </contour>
    <contour>
      <point x="332" y="0" type="move" name="bottom"/>
    </contour>
    <contour>
      <point x="180" y="62" type="curve" smooth="yes"/>
      <point x="180" y="656" type="line" smooth="yes"/>
      <point x="180" y="702"/>
      <point x="160" y="725"/>
      <point x="123" y="725" type="curve" smooth="yes"/>
      <point x="100" y="725"/>
      <point x="81" y="711"/>
      <point x="71" y="694" type="curve"/>
      <point x="87" y="687"/>
      <point x="96" y="677"/>
      <point x="96" y="655" type="curve" smooth="yes"/>
      <point x="96" y="61" type="line" smooth="yes"/>
      <point x="96" y="15"/>
      <point x="114" y="-9"/>
      <point x="151" y="-9" type="curve" smooth="yes"/>
      <point x="174" y="-9"/>
      <point x="193" y="5"/>
      <point x="204" y="23" type="curve"/>
      <point x="188" y="30"/>
      <point x="180" y="40"/>
    </contour>
    <contour>
      <point x="597" y="666" type="curve"/>
      <point x="594" y="701"/>
      <point x="571" y="725"/>
      <point x="536" y="725" type="curve" smooth="yes"/>
      <point x="500" y="725"/>
      <point x="475" y="707"/>
      <point x="430" y="651" type="curve" smooth="yes"/>
      <point x="172" y="359" type="line"/>
      <point x="172" y="342" type="line"/>
      <point x="407" y="81" type="line" smooth="yes"/>
      <point x="469" y="11"/>
      <point x="493" y="-9"/>
      <point x="535" y="-8" type="curve" smooth="yes"/>
      <point x="568" y="-7"/>
      <point x="593" y="25"/>
      <point x="593" y="63" type="curve"/>
      <point x="552" y="58"/>
      <point x="532" y="73"/>
      <point x="482" y="123" type="curve" smooth="yes"/>
      <point x="225" y="379" type="line"/>
      <point x="224" y="340" type="line"/>
      <point x="509" y="618" type="line" smooth="yes"/>
      <point x="542" y="650"/>
      <point x="569" y="665"/>
    </contour>
  </outline>
</glyph>
<glyph name="L" format="1">
  <advance width="576"/>
  <unicode hex="004C"/>
  <outline>
    <contour>
      <point x="139" y="717" type="move" name="top"/>
    </contour>
    <contour>
      <point x="223" y="700" type="move" name="topright"/>
    </contour>
    <contour>
      <point x="322" y="0" type="move" name="bottom"/>
    </contour>
    <contour>
      <point x="186" y="656" type="line"/>
      <point x="186" y="702"/>
      <point x="166" y="725"/>
      <point x="130" y="725" type="curve" smooth="yes"/>
      <point x="107" y="725"/>
      <point x="88" y="711"/>
      <point x="77" y="694" type="curve"/>
      <point x="93" y="687"/>
      <point x="102" y="677"/>
      <point x="102" y="655" type="curve" smooth="yes"/>
      <point x="102" y="131" type="line" smooth="yes"/>
      <point x="102" y="35"/>
      <point x="151" y="0"/>
      <point x="252" y="0" type="curve" smooth="yes"/>
      <point x="421" y="0" type="line" smooth="yes"/>
      <point x="501" y="0"/>
      <point x="531" y="29"/>
      <point x="531" y="67" type="curve" smooth="yes"/>
      <point x="531" y="83"/>
      <point x="520" y="101"/>
      <point x="502" y="107" type="curve"/>
      <point x="485" y="79"/>
      <point x="460" y="65"/>
      <point x="421" y="65" type="curve" smooth="yes"/>
      <point x="257" y="65" type="line" smooth="yes"/>
      <point x="206" y="65"/>
      <point x="186" y="85"/>
      <point x="186" y="133" type="curve" smooth="yes"/>
    </contour>
  </outline>
</glyph>
<glyph name="M" format="1">
  <advance width="956"/>
  <unicode hex="004D"/>
  <outline>
    <contour>
      <point x="818" y="654" type="line"/>
      <point x="817" y="677"/>
      <point x="821" y="696"/>
      <point x="833" y="708" type="curve"/>
      <point x="816" y="718"/>
      <point x="800" y="725"/>
      <point x="777" y="725" type="curve" smooth="yes"/>
      <point x="734" y="725"/>
      <point x="701" y="704"/>
      <point x="679" y="642" type="curve" smooth="yes"/>
      <point x="457" y="100" type="line"/>
      <point x="495" y="100" type="line"/>
      <point x="281" y="643" type="line" smooth="yes"/>
      <point x="262" y="697"/>
      <point x="232" y="725"/>
      <point x="188" y="725" type="curve" smooth="yes"/>
      <point x="160" y="725"/>
      <point x="142" y="716"/>
      <point x="125" y="705" type="curve"/>
      <point x="134" y="694"/>
      <point x="140" y="674"/>
      <point x="139" y="651" type="curve" smooth="yes"/>
      <point x="95" y="65" type="line" smooth="yes"/>
      <point x="93" y="42"/>
      <point x="90" y="23"/>
      <point x="77" y="12" type="curve"/>
      <point x="89" y="1"/>
      <point x="105" y="-9"/>
      <point x="124" y="-9" type="curve" smooth="yes"/>
      <point x="158" y="-9"/>
      <point x="173" y="14"/>
      <point x="177" y="63" type="curve" smooth="yes"/>
      <point x="218" y="663" type="line"/>
      <point x="193" y="658" type="line"/>
      <point x="435" y="36" type="line" smooth="yes"/>
      <point x="441" y="18"/>
      <point x="451" y="10"/>
      <point x="471" y="9" type="curve" smooth="yes"/>
      <point x="493" y="9"/>
      <point x="503" y="19"/>
      <point x="509" y="36" type="curve" smooth="yes"/>
      <point x="758" y="658" type="line"/>
      <point x="732" y="662" type="line"/>
      <point x="774" y="60" type="line" smooth="yes"/>
      <point x="780" y="11"/>
      <point x="796" y="-8"/>
      <point x="830" y="-8" type="curve" smooth="yes"/>
      <point x="849" y="-8"/>
      <point x="863" y="-1"/>
      <point x="876" y="8" type="curve"/>
      <point x="865" y="20"/>
      <point x="862" y="44"/>
      <point x="861" y="66" type="curve" smooth="yes"/>
    </contour>
  </outline>
</glyph>
<glyph name="N" format="1">
  <advance width="768"/>
  <unicode hex="004E"/>
  <outline>
    <contour>
      <point x="385" y="717" type="move" name="top"/>
    </contour>
    <contour>
      <point x="392" y="0" type="move" name="bottom"/>
    </contour>
    <contour>
      <point x="235" y="658" type="curve" smooth="yes"/>
      <point x="578" y="116" type="line"/>
      <point x="578" y="655" type="line" smooth="yes"/>
      <point x="578" y="677"/>
      <point x="569" y="687"/>
      <point x="553" y="694" type="curve"/>
      <point x="564" y="711"/>
      <point x="583" y="725"/>
      <point x="606" y="725" type="curve" smooth="yes"/>
      <point x="643" y="725"/>
      <point x="662" y="702"/>
      <point x="662" y="656" type="curve" smooth="yes"/>
      <point x="662" y="62" type="line" smooth="yes"/>
      <point x="662" y="40"/>
      <point x="669" y="30"/>
      <point x="685" y="21" type="curve"/>
      <point x="674" y="4"/>
      <point x="657" y="-9"/>
      <point x="630" y="-9" type="curve" smooth="yes"/>
      <point x="592" y="-9"/>
      <point x="562" y="18"/>
      <point x="524" y="75" type="curve" smooth="yes"/>
      <point x="191" y="591" type="line"/>
      <point x="191" y="62" type="line" smooth="yes"/>
      <point x="191" y="40"/>
      <point x="200" y="30"/>
      <point x="216" y="23" type="curve"/>
      <point x="205" y="5"/>
      <point x="188" y="-9"/>
      <point x="164" y="-9" type="curve" smooth="yes"/>
      <point x="127" y="-9"/>
      <point x="108" y="15"/>
      <point x="108" y="61" type="curve" smooth="yes"/>
      <point x="108" y="655" type="line" smooth="yes"/>
      <point x="108" y="677"/>
      <point x="100" y="687"/>
      <point x="83" y="694" type="curve"/>
      <point x="95" y="711"/>
      <point x="112" y="725"/>
      <point x="138" y="725" type="curve" smooth="yes"/>
      <point x="182" y="725"/>
      <point x="207" y="703"/>
    </contour>
  </outline>
</glyph>
<glyph name="O" format="1">
  <advance width="768"/>
  <unicode hex="004F"/>
  <outline>
    <contour>
      <point x="385" y="717" type="move" name="top"/>
    </contour>
    <contour>
      <point x="696" y="359" type="curve" smooth="yes"/>
      <point x="696" y="585"/>
      <point x="574" y="725"/>
      <point x="385" y="725" type="curve" smooth="yes"/>
      <point x="196" y="725"/>
      <point x="72" y="581"/>
      <point x="72" y="359" type="curve" smooth="yes"/>
      <point x="72" y="134"/>
      <point x="196" y="-9"/>
      <point x="385" y="-9" type="curve" smooth="yes"/>
      <point x="574" y="-9"/>
      <point x="696" y="137"/>
    </contour>
    <contour>
      <point x="405" y="56" type="curve" smooth="yes"/>
      <point x="278" y="56"/>
      <point x="175" y="150"/>
      <point x="159" y="342" type="curve" smooth="yes"/>
      <point x="143" y="535"/>
      <point x="235" y="662"/>
      <point x="362" y="662" type="curve" smooth="yes"/>
      <point x="492" y="662"/>
      <point x="597" y="566"/>
      <point x="610" y="374" type="curve" smooth="yes"/>
      <point x="626" y="182"/>
      <point x="534" y="56"/>
    </contour>
  </outline>
</glyph>
<glyph name="P" format="1">
  <advance width="621"/>
  <unicode hex="0050"/>
  <outline>
    <contour>
      <point x="578" y="495" type="curve" smooth="yes"/>
      <point x="578" y="631"/>
      <point x="473" y="717"/>
      <point x="320" y="717" type="curve" smooth="yes"/>
      <point x="159" y="717" type="line" smooth="yes"/>
      <point x="117" y="717"/>
      <point x="95" y="705"/>
      <point x="79" y="681" type="curve"/>
      <point x="95" y="674"/>
      <point x="104" y="664"/>
      <point x="104" y="641" type="curve" smooth="yes"/>
      <point x="104" y="61" type="line" smooth="yes"/>
      <point x="104" y="15"/>
      <point x="123" y="-9"/>
      <point x="159" y="-9" type="curve" smooth="yes"/>
      <point x="183" y="-9"/>
      <point x="201" y="5"/>
      <point x="213" y="23" type="curve"/>
      <point x="195" y="30"/>
      <point x="188" y="40"/>
      <point x="188" y="62" type="curve" smooth="yes"/>
      <point x="188" y="272" type="line"/>
      <point x="320" y="272" type="line" smooth="yes"/>
      <point x="473" y="272"/>
      <point x="578" y="358"/>
    </contour>
    <contour>
      <point x="187" y="653" type="line"/>
      <point x="316" y="653" type="line" smooth="yes"/>
      <point x="431" y="653"/>
      <point x="486" y="585"/>
      <point x="486" y="493" type="curve" smooth="yes"/>
      <point x="486" y="403"/>
      <point x="431" y="335"/>
      <point x="316" y="335" type="curve" smooth="yes"/>
      <point x="187" y="335" type="line"/>
    </contour>
  </outline>
</glyph>
<glyph name="Q" format="1">
  <advance width="774"/>
  <unicode hex="0051"/>
  <outline>
    <contour>
      <point x="709" y="404" type="curve" smooth="yes"/>
      <point x="709" y="597"/>
      <point x="578" y="725"/>
      <point x="400" y="725" type="curve" smooth="yes"/>
      <point x="224" y="725"/>
      <point x="86" y="575"/>
      <point x="86" y="370" type="curve" smooth="yes"/>
      <point x="86" y="219"/>
      <point x="180" y="112"/>
      <point x="280" y="112" type="curve" smooth="yes"/>
      <point x="325" y="112"/>
      <point x="346" y="139"/>
      <point x="346" y="170" type="curve" smooth="yes"/>
      <point x="346" y="174"/>
      <point x="346" y="178"/>
      <point x="345" y="181" type="curve"/>
      <point x="340" y="180"/>
      <point x="335" y="180"/>
      <point x="329" y="180" type="curve" smooth="yes"/>
      <point x="239" y="180"/>
      <point x="176" y="266"/>
      <point x="176" y="403" type="curve" smooth="yes"/>
      <point x="176" y="558"/>
      <point x="262" y="664"/>
      <point x="381" y="664" type="curve" smooth="yes"/>
      <point x="517" y="664"/>
      <point x="616" y="563"/>
      <point x="616" y="394" type="curve" smooth="yes"/>
      <point x="616" y="190"/>
      <point x="503" y="80"/>
      <point x="362" y="39" type="curve" smooth="yes"/>
      <point x="300" y="21"/>
      <point x="287" y="10"/>
      <point x="287" y="-7" type="curve" smooth="yes"/>
      <point x="287" y="-78"/>
      <point x="449" y="-219"/>
      <point x="590" y="-219" type="curve" smooth="yes"/>
      <point x="714" y="-219"/>
      <point x="742" y="-131"/>
      <point x="710" y="-93" type="curve"/>
      <point x="681" y="-120"/>
      <point x="642" y="-134"/>
      <point x="597" y="-134" type="curve" smooth="yes"/>
      <point x="524" y="-134"/>
      <point x="421" y="-94"/>
      <point x="355" y="-20" type="curve"/>
      <point x="548" y="24"/>
      <point x="709" y="157"/>
    </contour>
  </outline>
</glyph>
<glyph name="R" format="1">
  <advance width="630"/>
  <unicode hex="0052"/>
  <outline>
    <contour>
      <point x="313" y="708" type="move" name="top"/>
    </contour>
    <contour>
      <point x="329" y="0" type="move" name="bottom"/>
    </contour>
    <contour>
      <point x="523" y="96" type="curve" smooth="yes"/>
      <point x="343" y="329" type="line"/>
      <point x="257" y="325" type="line"/>
      <point x="435" y="71" type="line" smooth="yes"/>
      <point x="473" y="15"/>
      <point x="493" y="-8"/>
      <point x="533" y="-8" type="curve" smooth="yes"/>
      <point x="564" y="-8"/>
      <point x="587" y="15"/>
      <point x="595" y="51" type="curve"/>
      <point x="566" y="51"/>
      <point x="549" y="64"/>
    </contour>
    <contour>
      <point x="575" y="506" type="curve" smooth="yes"/>
      <point x="575" y="641"/>
      <point x="470" y="717"/>
      <point x="317" y="717" type="curve" smooth="yes"/>
      <point x="159" y="717" type="line" smooth="yes"/>
      <point x="117" y="717"/>
      <point x="95" y="705"/>
      <point x="79" y="681" type="curve"/>
      <point x="95" y="674"/>
      <point x="104" y="664"/>
      <point x="104" y="641" type="curve" smooth="yes"/>
      <point x="104" y="61" type="line" smooth="yes"/>
      <point x="104" y="15"/>
      <point x="123" y="-9"/>
      <point x="159" y="-9" type="curve" smooth="yes"/>
      <point x="183" y="-9"/>
      <point x="201" y="5"/>
      <point x="213" y="23" type="curve"/>
      <point x="195" y="30"/>
      <point x="188" y="40"/>
      <point x="188" y="62" type="curve" smooth="yes"/>
      <point x="188" y="295" type="line"/>
      <point x="317" y="295" type="line" smooth="yes"/>
      <point x="470" y="295"/>
      <point x="575" y="371"/>
    </contour>
    <contour>
      <point x="187" y="651" type="line"/>
      <point x="316" y="651" type="line" smooth="yes"/>
      <point x="431" y="651"/>
      <point x="486" y="594"/>
      <point x="486" y="505" type="curve" smooth="yes"/>
      <point x="486" y="416"/>
      <point x="431" y="361"/>
      <point x="316" y="361" type="curve" smooth="yes"/>
      <point x="187" y="361" type="line"/>
    </contour>
  </outline>
</glyph>
<glyph name="S" format="1">
  <advance width="644"/>
  <unicode hex="0053"/>
  <outline>
    <contour>
      <point x="323" y="717" type="move" name="top"/>
    </contour>
    <contour>
      <point x="323" y="0" type="move" name="bottom"/>
    </contour>
    <contour>
      <point x="557" y="589" type="curve" smooth="yes"/>
      <point x="557" y="551"/>
      <point x="534" y="528"/>
      <point x="502" y="528" type="curve" smooth="yes"/>
      <point x="488" y="528"/>
      <point x="475" y="532"/>
      <point x="463" y="536" type="curve"/>
      <point x="466" y="548"/>
      <point x="467" y="558"/>
      <point x="467" y="567" type="curve" smooth="yes"/>
      <point x="467" y="609"/>
      <point x="422" y="667"/>
      <point x="321" y="667" type="curve" smooth="yes"/>
      <point x="232" y="667"/>
      <point x="171" y="628"/>
      <point x="171" y="557" type="curve" smooth="yes"/>
      <point x="171" y="394"/>
      <point x="581" y="392"/>
      <point x="581" y="199" type="curve" smooth="yes"/>
      <point x="581" y="79"/>
      <point x="460" y="-9"/>
      <point x="317" y="-9" type="curve" smooth="yes"/>
      <point x="175" y="-9"/>
      <point x="68" y="63"/>
      <point x="68" y="162" type="curve" smooth="yes"/>
      <point x="68" y="205"/>
      <point x="96" y="235"/>
      <point x="131" y="235" type="curve" smooth="yes"/>
      <point x="154" y="235"/>
      <point x="170" y="227"/>
      <point x="181" y="211" type="curve"/>
      <point x="168" y="199"/>
      <point x="158" y="181"/>
      <point x="158" y="158" type="curve" smooth="yes"/>
      <point x="158" y="103"/>
      <point x="213" y="54"/>
      <point x="317" y="54" type="curve" smooth="yes"/>
      <point x="412" y="54"/>
      <point x="497" y="111"/>
      <point x="497" y="185" type="curve" smooth="yes"/>
      <point x="497" y="335"/>
      <point x="87" y="329"/>
      <point x="87" y="543" type="curve" smooth="yes"/>
      <point x="87" y="656"/>
      <point x="205" y="729"/>
      <point x="324" y="729" type="curve" smooth="yes"/>
      <point x="468" y="729"/>
      <point x="557" y="663"/>
    </contour>
  </outline>
</glyph>
<glyph name="T" format="1">
  <advance width="549"/>
  <unicode hex="0054"/>
  <outline>
    <contour>
      <point x="275" y="700" type="move" name="top"/>
    </contour>
    <contour>
      <point x="284" y="0" type="move" name="bottom"/>
    </contour>
    <contour>
      <point x="315" y="682" type="line"/>
      <point x="315" y="62" type="line" smooth="yes"/>
      <point x="315" y="40"/>
      <point x="325" y="30"/>
      <point x="340" y="23" type="curve"/>
      <point x="329" y="5"/>
      <point x="312" y="-9"/>
      <point x="289" y="-9" type="curve" smooth="yes"/>
      <point x="251" y="-9"/>
      <point x="232" y="15"/>
      <point x="232" y="61" type="curve" smooth="yes"/>
      <point x="232" y="682" type="line"/>
    </contour>
    <contour>
      <point x="480" y="717" type="line"/>
      <point x="524" y="717"/>
      <point x="536" y="696"/>
      <point x="536" y="672" type="curve" smooth="yes"/>
      <point x="536" y="659"/>
      <point x="528" y="644"/>
      <point x="520" y="636" type="curve"/>
      <point x="506" y="644"/>
      <point x="483" y="650"/>
      <point x="454" y="650" type="curve" smooth="yes"/>
      <point x="69" y="650" type="line" smooth="yes"/>
      <point x="26" y="650"/>
      <point x="14" y="670"/>
      <point x="14" y="694" type="curve" smooth="yes"/>
      <point x="14" y="707"/>
      <point x="21" y="722"/>
      <point x="29" y="730" type="curve"/>
      <point x="48" y="721"/>
      <point x="68" y="717"/>
      <point x="96" y="717" type="curve" smooth="yes"/>
    </contour>
  </outline>
</glyph>
<glyph name="U" format="1">
  <advance width="704"/>
  <unicode hex="0055"/>
  <outline>
    <contour>
      <point x="371" y="717" type="move" name="top"/>
    </contour>
    <contour>
      <point x="434" y="11" type="move" name="ogonek"/>
    </contour>
    <contour>
      <point x="184" y="656" type="curve" smooth="yes"/>
      <point x="184" y="247" type="line" smooth="yes"/>
      <point x="184" y="128"/>
      <point x="237" y="63"/>
      <point x="365" y="63" type="curve" smooth="yes"/>
      <point x="488" y="63"/>
      <point x="546" y="124"/>
      <point x="546" y="247" type="curve" smooth="yes"/>
      <point x="546" y="655" type="line" smooth="yes"/>
      <point x="546" y="677"/>
      <point x="537" y="687"/>
      <point x="520" y="694" type="curve"/>
      <point x="531" y="711"/>
      <point x="549" y="725"/>
      <point x="573" y="725" type="curve" smooth="yes"/>
      <point x="610" y="725"/>
      <point x="628" y="702"/>
      <point x="628" y="656" type="curve" smooth="yes"/>
      <point x="628" y="257" type="line" smooth="yes"/>
      <point x="628" y="100"/>
      <point x="552" y="-8"/>
      <point x="365" y="-8" type="curve" smooth="yes"/>
      <point x="181" y="-8"/>
      <point x="101" y="100"/>
      <point x="101" y="257" type="curve" smooth="yes"/>
      <point x="101" y="655" type="line" smooth="yes"/>
      <point x="101" y="677"/>
      <point x="92" y="687"/>
      <point x="76" y="694" type="curve"/>
      <point x="88" y="711"/>
      <point x="105" y="725"/>
      <point x="128" y="725" type="curve" smooth="yes"/>
      <point x="165" y="725"/>
      <point x="184" y="702"/>
    </contour>
  </outline>
</glyph>
<glyph name="V" format="1">
  <advance width="695"/>
  <unicode hex="0056"/>
  <outline>
    <contour>
      <point x="562" y="564" type="curve" smooth="yes"/>
      <point x="562" y="395"/>
      <point x="453" y="165"/>
      <point x="307" y="36" type="curve"/>
      <point x="334" y="25" type="line"/>
      <point x="139" y="652" type="line" smooth="yes"/>
      <point x="121" y="709"/>
      <point x="102" y="725"/>
      <point x="73" y="725" type="curve" smooth="yes"/>
      <point x="48" y="725"/>
      <point x="26" y="712"/>
      <point x="14" y="687" type="curve"/>
      <point x="33" y="679"/>
      <point x="43" y="665"/>
      <point x="53" y="634" type="curve" smooth="yes"/>
      <point x="245" y="51" type="line" smooth="yes"/>
      <point x="261" y="6"/>
      <point x="278" y="-9"/>
      <point x="313" y="-9" type="curve"/>
      <point x="406" y="-9"/>
      <point x="656" y="324"/>
      <point x="656" y="582" type="curve" smooth="yes"/>
      <point x="656" y="674"/>
      <point x="631" y="726"/>
      <point x="581" y="726" type="curve" smooth="yes"/>
      <point x="561" y="726"/>
      <point x="538" y="716"/>
      <point x="524" y="703" type="curve"/>
      <point x="555" y="663"/>
      <point x="562" y="625"/>
    </contour>
  </outline>
</glyph>
<glyph name="W" format="1">
  <advance width="970"/>
  <unicode hex="0057"/>
  <outline>
    <contour>
      <point x="145" y="652" type="line"/>
      <point x="130" y="709"/>
      <point x="108" y="725"/>
      <point x="79" y="725" type="curve" smooth="yes"/>
      <point x="55" y="725"/>
      <point x="32" y="712"/>
      <point x="20" y="687" type="curve"/>
      <point x="40" y="679"/>
      <point x="51" y="665"/>
      <point x="59" y="634" type="curve" smooth="yes"/>
      <point x="228" y="52" type="line" smooth="yes"/>
      <point x="241" y="6"/>
      <point x="259" y="-8"/>
      <point x="294" y="-8" type="curve" smooth="yes"/>
      <point x="369" y="-8"/>
      <point x="503" y="335"/>
      <point x="527" y="527" type="curve"/>
      <point x="476" y="590" type="line"/>
      <point x="436" y="372"/>
      <point x="371" y="160"/>
      <point x="282" y="34" type="curve"/>
      <point x="315" y="26" type="line"/>
    </contour>
    <contour>
      <point x="510" y="658" type="line"/>
      <point x="496" y="710"/>
      <point x="477" y="725"/>
      <point x="448" y="725" type="curve" smooth="yes"/>
      <point x="424" y="725"/>
      <point x="402" y="712"/>
      <point x="390" y="687" type="curve"/>
      <point x="410" y="679"/>
      <point x="420" y="665"/>
      <point x="429" y="634" type="curve" smooth="yes"/>
      <point x="593" y="52" type="line" smooth="yes"/>
      <point x="605" y="8"/>
      <point x="624" y="-8"/>
      <point x="654" y="-8" type="curve" smooth="yes"/>
      <point x="753" y="-8"/>
      <point x="918" y="345"/>
      <point x="918" y="563" type="curve" smooth="yes"/>
      <point x="918" y="660"/>
      <point x="889" y="725"/>
      <point x="839" y="725" type="curve" smooth="yes"/>
      <point x="820" y="725"/>
      <point x="796" y="716"/>
      <point x="784" y="704" type="curve"/>
      <point x="807" y="688"/>
      <point x="829" y="617"/>
      <point x="829" y="532" type="curve" smooth="yes"/>
      <point x="829" y="399"/>
      <point x="769" y="156"/>
      <point x="651" y="40" type="curve"/>
      <point x="679" y="28" type="line"/>
    </contour>
  </outline>
</glyph>
<glyph name="X" format="1">
  <advance width="630"/>
  <unicode hex="0058"/>
  <outline>
    <contour>
      <point x="284" y="373" type="line"/>
      <point x="75" y="79" type="line" smooth="yes"/>
      <point x="59" y="56"/>
      <point x="44" y="48"/>
      <point x="23" y="48" type="curve"/>
      <point x="19" y="10"/>
      <point x="48" y="-9"/>
      <point x="72" y="-9" type="curve" smooth="yes"/>
      <point x="103" y="-9"/>
      <point x="127" y="11"/>
      <point x="171" y="84" type="curve" smooth="yes"/>
      <point x="320" y="324" type="line"/>
    </contour>
    <contour>
      <point x="158" y="675" type="line"/>
      <point x="135" y="711"/>
      <point x="115" y="725"/>
      <point x="85" y="725" type="curve" smooth="yes"/>
      <point x="55" y="725"/>
      <point x="30" y="704"/>
      <point x="22" y="675" type="curve"/>
      <point x="46" y="674"/>
      <point x="65" y="664"/>
      <point x="84" y="635" type="curve" smooth="yes"/>
      <point x="474" y="42" type="line" smooth="yes"/>
      <point x="499" y="6"/>
      <point x="517" y="-9"/>
      <point x="548" y="-9" type="curve" smooth="yes"/>
      <point x="577" y="-9"/>
      <point x="599" y="13"/>
      <point x="607" y="39" type="curve"/>
      <point x="585" y="42"/>
      <point x="568" y="53"/>
      <point x="549" y="82" type="curve" smooth="yes"/>
    </contour>
    <contour>
      <point x="607" y="668" type="curve"/>
      <point x="611" y="705"/>
      <point x="582" y="725"/>
      <point x="557" y="725" type="curve" smooth="yes"/>
      <point x="527" y="725"/>
      <point x="502" y="705"/>
      <point x="458" y="632" type="curve" smooth="yes"/>
      <point x="311" y="395" type="line"/>
      <point x="348" y="347" type="line"/>
      <point x="554" y="636" type="line" smooth="yes"/>
      <point x="570" y="660"/>
      <point x="585" y="668"/>
    </contour>
  </outline>
</glyph>
<glyph name="Y" format="1">
  <advance width="596"/>
  <unicode hex="0059"/>
  <outline>
    <contour>
      <point x="314" y="717" type="move" name="top"/>
    </contour>
    <contour>
      <point x="150" y="673" type="line"/>
      <point x="131" y="706"/>
      <point x="108" y="725"/>
      <point x="77" y="725" type="curve" smooth="yes"/>
      <point x="51" y="725"/>
      <point x="25" y="709"/>
      <point x="15" y="676" type="curve"/>
      <point x="41" y="675"/>
      <point x="60" y="661"/>
      <point x="75" y="638" type="curve" smooth="yes"/>
      <point x="258" y="317" type="line"/>
      <point x="257" y="66" type="line" smooth="yes"/>
      <point x="257" y="15"/>
      <point x="278" y="-8"/>
      <point x="311" y="-8" type="curve" smooth="yes"/>
      <point x="332" y="-8"/>
      <point x="346" y="-1"/>
      <point x="358" y="8" type="curve"/>
      <point x="347" y="20"/>
      <point x="340" y="39"/>
      <point x="340" y="60" type="curve" smooth="yes"/>
      <point x="341" y="320" type="line"/>
      <point x="555" y="634" type="line" smooth="yes"/>
      <point x="565" y="651"/>
      <point x="571" y="668"/>
      <point x="571" y="682" type="curve" smooth="yes"/>
      <point x="571" y="707"/>
      <point x="554" y="725"/>
      <point x="524" y="725" type="curve" smooth="yes"/>
      <point x="502" y="725"/>
      <point x="485" y="721"/>
      <point x="471" y="713" type="curve"/>
      <point x="487" y="698"/>
      <point x="487" y="674"/>
      <point x="467" y="646" type="curve" smooth="yes"/>
      <point x="284" y="361" type="line"/>
      <point x="325" y="360" type="line"/>
    </contour>
  </outline>
</glyph>
<glyph name="Z" format="1">
  <advance width="610"/>
  <unicode hex="005A"/>
  <outline>
    <contour>
      <point x="305" y="717" type="move" name="top"/>
    </contour>
    <contour>
      <point x="486" y="717" type="curve"/>
      <point x="186" y="717" type="line" smooth="yes"/>
      <point x="140" y="717"/>
      <point x="106" y="722"/>
      <point x="81" y="731" type="curve"/>
      <point x="71" y="723"/>
      <point x="64" y="710"/>
      <point x="64" y="696" type="curve" smooth="yes"/>
      <point x="64" y="671"/>
      <point x="83" y="639"/>
      <point x="192" y="639" type="curve" smooth="yes"/>
      <point x="273" y="639"/>
      <point x="387" y="645"/>
      <point x="497" y="657" type="curve"/>
      <point x="492" y="676" type="line"/>
      <point x="86" y="129" type="line" smooth="yes"/>
      <point x="63" y="100"/>
      <point x="51" y="81"/>
      <point x="51" y="61" type="curve" smooth="yes"/>
      <point x="51" y="26"/>
      <point x="78" y="0"/>
      <point x="122" y="0" type="curve" smooth="yes"/>
      <point x="431" y="0" type="line" smooth="yes"/>
      <point x="539" y="0"/>
      <point x="558" y="33"/>
      <point x="558" y="58" type="curve" smooth="yes"/>
      <point x="558" y="72"/>
      <point x="551" y="88"/>
      <point x="540" y="99" type="curve"/>
      <point x="517" y="84"/>
      <point x="483" y="76"/>
      <point x="438" y="74" type="curve" smooth="yes"/>
      <point x="87" y="60" type="line"/>
      <point x="114" y="34" type="line"/>
      <point x="522" y="587" type="line" smooth="yes"/>
      <point x="545" y="615"/>
      <point x="558" y="636"/>
      <point x="558" y="656" type="curve" smooth="yes"/>
      <point x="558" y="691"/>
      <point x="531" y="717"/>
    </contour>
  </outline>
</glyph>
<glyph name="bracketleft" format="1">
  <advance width="392"/>
  <unicode hex="005B"/>
  <outline>
    <contour>
      <point x="161" y="-140" type="line"/>
      <point x="161" y="785" type="line"/>
      <point x="328" y="785" type="line"/>
      <point x="330" y="788"/>
      <point x="331" y="794"/>
      <point x="331" y="801" type="curve" smooth="yes"/>
      <point x="331" y="845"/>
      <point x="287" y="845"/>
      <point x="270" y="845" type="curve" smooth="yes"/>
      <point x="77" y="845" type="line"/>
      <point x="77" y="-114" type="line" smooth="yes"/>
      <point x="77" y="-197"/>
      <point x="135" y="-197"/>
      <point x="159" y="-197" type="curve" smooth="yes"/>
      <point x="328" y="-197" type="line"/>
      <point x="330" y="-195"/>
      <point x="331" y="-188"/>
      <point x="331" y="-183" type="curve" smooth="yes"/>
      <point x="331" y="-140"/>
      <point x="287" y="-140"/>
      <point x="270" y="-140" type="curve" smooth="yes"/>
    </contour>
  </outline>
</glyph>
<glyph name="backslash" format="1">
  <advance width="562"/>
  <unicode hex="005C"/>
  <outline>
    <contour>
      <point x="96" y="967" type="curve" smooth="yes"/>
      <point x="84" y="967"/>
      <point x="71" y="964"/>
      <point x="58" y="954" type="curve"/>
      <point x="69" y="947"/>
      <point x="78" y="923"/>
      <point x="83" y="908" type="curve" smooth="yes"/>
      <point x="288" y="327"/>
      <point x="331" y="192"/>
      <point x="419" y="-56" type="curve"/>
      <point x="425" y="-74"/>
      <point x="440" y="-114"/>
      <point x="475" y="-114" type="curve" smooth="yes"/>
      <point x="484" y="-114"/>
      <point x="497" y="-113"/>
      <point x="512" y="-100" type="curve"/>
      <point x="505" y="-94"/>
      <point x="493" y="-69"/>
      <point x="488" y="-52" type="curve"/>
      <point x="381" y="247"/>
      <point x="268" y="587"/>
      <point x="151" y="910" type="curve" smooth="yes"/>
      <point x="145" y="927"/>
      <point x="131" y="967"/>
    </contour>
  </outline>
</glyph>
<glyph name="bracketright" format="1">
  <advance width="392"/>
  <unicode hex="005D"/>
  <outline>
    <contour>
      <point x="248" y="787" type="line"/>
      <point x="248" y="-139" type="line"/>
      <point x="80" y="-139" type="line"/>
      <point x="79" y="-142"/>
      <point x="78" y="-148"/>
      <point x="78" y="-154" type="curve" smooth="yes"/>
      <point x="78" y="-197"/>
      <point x="122" y="-197"/>
      <point x="139" y="-197" type="curve" smooth="yes"/>
      <point x="332" y="-197" type="line"/>
      <point x="332" y="761" type="line" smooth="yes"/>
      <point x="332" y="845"/>
      <point x="274" y="845"/>
      <point x="249" y="845" type="curve" smooth="yes"/>
      <point x="80" y="845" type="line"/>
      <point x="79" y="841"/>
      <point x="78" y="835"/>
      <point x="78" y="830" type="curve" smooth="yes"/>
      <point x="78" y="787"/>
      <point x="122" y="787"/>
      <point x="139" y="787" type="curve" smooth="yes"/>
    </contour>
  </outline>
</glyph>
<glyph name="asciicircum" format="1">
  <advance width="570"/>
  <unicode hex="005E"/>
  <outline>
    <contour>
      <point x="315" y="639" type="line"/>
      <point x="305" y="662"/>
      <point x="293" y="671"/>
      <point x="276" y="671" type="curve" smooth="yes"/>
      <point x="260" y="671"/>
      <point x="243" y="660"/>
      <point x="230" y="637" type="curve" smooth="yes"/>
      <point x="74" y="355" type="line" smooth="yes"/>
      <point x="59" y="329"/>
      <point x="54" y="307"/>
      <point x="54" y="289" type="curve" smooth="yes"/>
      <point x="54" y="254"/>
      <point x="78" y="237"/>
      <point x="103" y="237" type="curve"/>
      <point x="304" y="623" type="line"/>
      <point x="251" y="621" type="line"/>
      <point x="425" y="286" type="line" smooth="yes"/>
      <point x="442" y="253"/>
      <point x="460" y="236"/>
      <point x="482" y="236" type="curve" smooth="yes"/>
      <point x="493" y="236"/>
      <point x="505" y="240"/>
      <point x="517" y="251" type="curve"/>
    </contour>
  </outline>
</glyph>
<glyph name="underscore" format="1">
  <advance width="577"/>
  <unicode hex="005F"/>
  <outline>
    <contour>
      <point x="73" y="-85" type="line"/>
      <point x="51" y="-85"/>
      <point x="-2" y="-85"/>
      <point x="-2" y="-136" type="curve" smooth="yes"/>
      <point x="-2" y="-143"/>
      <point x="0" y="-150"/>
      <point x="2" y="-155" type="curve"/>
      <point x="502" y="-155" type="line" smooth="yes"/>
      <point x="525" y="-155"/>
      <point x="577" y="-155"/>
      <point x="577" y="-102" type="curve" smooth="yes"/>
      <point x="577" y="-96"/>
      <point x="576" y="-89"/>
      <point x="575" y="-85" type="curve"/>
    </contour>
  </outline>
</glyph>
<glyph name="grave" format="1">
  <advance width="234"/>
  <unicode hex="0060"/>
  <outline>
    <contour>
      <point x="184" y="507" type="move" name="_top"/>
    </contour>
    <contour>
      <point x="74" y="678" type="curve" smooth="yes"/>
      <point x="169" y="585" type="line" smooth="yes"/>
      <point x="194" y="558"/>
      <point x="215" y="568"/>
      <point x="222" y="583" type="curve"/>
      <point x="136" y="713" type="line" smooth="yes"/>
      <point x="112" y="751"/>
      <point x="93" y="765"/>
      <point x="65" y="765" type="curve" smooth="yes"/>
      <point x="27" y="765"/>
      <point x="6" y="735"/>
      <point x="15" y="694" type="curve"/>
      <point x="35" y="700"/>
      <point x="53" y="698"/>
    </contour>
  </outline>
</glyph>
<glyph name="a" format="1">
  <advance width="527"/>
  <unicode hex="0061"/>
  <outline>
    <contour>
      <point x="260" y="507" type="move" name="top"/>
    </contour>
    <contour>
      <point x="490" y="18" type="move" name="ogonek"/>
    </contour>
    <contour>
      <point x="435" y="356" type="line"/>
      <point x="435" y="457"/>
      <point x="369" y="517"/>
      <point x="259" y="517" type="curve" smooth="yes"/>
      <point x="159" y="517"/>
      <point x="75" y="469"/>
      <point x="75" y="404" type="curve" smooth="yes"/>
      <point x="75" y="372"/>
      <point x="99" y="352"/>
      <point x="133" y="352" type="curve" smooth="yes"/>
      <point x="147" y="352"/>
      <point x="166" y="358"/>
      <point x="179" y="368" type="curve"/>
      <point x="169" y="379"/>
      <point x="165" y="391"/>
      <point x="165" y="405" type="curve" smooth="yes"/>
      <point x="165" y="444"/>
      <point x="202" y="471"/>
      <point x="259" y="471" type="curve" smooth="yes"/>
      <point x="315" y="471"/>
      <point x="352" y="436"/>
      <point x="352" y="366" type="curve" smooth="yes"/>
      <point x="352" y="84" type="line" smooth="yes"/>
      <point x="352" y="21"/>
      <point x="379" y="-9"/>
      <point x="421" y="-9" type="curve" smooth="yes"/>
      <point x="451" y="-9"/>
      <point x="473" y="7"/>
      <point x="484" y="30" type="curve"/>
      <point x="455" y="34"/>
      <point x="435" y="48"/>
      <point x="435" y="90" type="curve" smooth="yes"/>
    </contour>
    <contour>
      <point x="360" y="244" type="curve"/>
      <point x="360" y="288" type="line"/>
      <point x="149" y="284"/>
      <point x="54" y="215"/>
      <point x="54" y="119" type="curve" smooth="yes"/>
      <point x="54" y="37"/>
      <point x="116" y="-9"/>
      <point x="196" y="-9" type="curve" smooth="yes"/>
      <point x="274" y="-9"/>
      <point x="335" y="34"/>
      <point x="370" y="100" type="curve"/>
      <point x="363" y="141" type="line"/>
      <point x="329" y="86"/>
      <point x="279" y="56"/>
      <point x="224" y="56" type="curve" smooth="yes"/>
      <point x="177" y="56"/>
      <point x="144" y="76"/>
      <point x="144" y="128" type="curve" smooth="yes"/>
      <point x="144" y="187"/>
      <point x="204" y="238"/>
    </contour>
  </outline>
</glyph>
<glyph name="b" format="1">
  <advance width="576"/>
  <unicode hex="0062"/>
  <outline>
    <contour>
      <point x="172" y="691" type="curve" smooth="yes"/>
      <point x="170" y="155" type="line" smooth="yes"/>
      <point x="170" y="84"/>
      <point x="213" y="50"/>
      <point x="288" y="50" type="curve" smooth="yes"/>
      <point x="389" y="50"/>
      <point x="453" y="126"/>
      <point x="453" y="260" type="curve" smooth="yes"/>
      <point x="453" y="385"/>
      <point x="398" y="448"/>
      <point x="313" y="448" type="curve" smooth="yes"/>
      <point x="257" y="448"/>
      <point x="204" y="422"/>
      <point x="169" y="354" type="curve"/>
      <point x="162" y="423" type="line"/>
      <point x="197" y="479"/>
      <point x="256" y="517"/>
      <point x="326" y="517" type="curve" smooth="yes"/>
      <point x="443" y="517"/>
      <point x="537" y="432"/>
      <point x="537" y="263" type="curve" smooth="yes"/>
      <point x="537" y="104"/>
      <point x="422" y="-8"/>
      <point x="287" y="-8" type="curve" smooth="yes"/>
      <point x="165" y="-8"/>
      <point x="87" y="41"/>
      <point x="87" y="156" type="curve" smooth="yes"/>
      <point x="88" y="689" type="line" smooth="yes"/>
      <point x="88" y="712"/>
      <point x="80" y="722"/>
      <point x="63" y="729" type="curve"/>
      <point x="75" y="747"/>
      <point x="93" y="760"/>
      <point x="116" y="760" type="curve" smooth="yes"/>
      <point x="153" y="760"/>
      <point x="172" y="737"/>
    </contour>
  </outline>
</glyph>
<glyph name="c" format="1">
  <advance width="491"/>
  <unicode hex="0063"/>
  <outline>
    <contour>
      <point x="246" y="507" type="move" name="top"/>
    </contour>
    <contour>
      <point x="246" y="0" type="move" name="bottom"/>
    </contour>
    <contour>
      <point x="444" y="421" type="curve" smooth="yes"/>
      <point x="444" y="473"/>
      <point x="392" y="517"/>
      <point x="306" y="517" type="curve" smooth="yes"/>
      <point x="167" y="517"/>
      <point x="50" y="401"/>
      <point x="50" y="231" type="curve" smooth="yes"/>
      <point x="50" y="75"/>
      <point x="158" y="-9"/>
      <point x="275" y="-9" type="curve" smooth="yes"/>
      <point x="364" y="-9"/>
      <point x="439" y="44"/>
      <point x="439" y="85" type="curve" smooth="yes"/>
      <point x="439" y="97"/>
      <point x="433" y="108"/>
      <point x="426" y="114" type="curve"/>
      <point x="394" y="83"/>
      <point x="343" y="61"/>
      <point x="288" y="61" type="curve" smooth="yes"/>
      <point x="209" y="61"/>
      <point x="134" y="119"/>
      <point x="134" y="249" type="curve" smooth="yes"/>
      <point x="134" y="391"/>
      <point x="218" y="460"/>
      <point x="291" y="460" type="curve" smooth="yes"/>
      <point x="344" y="460"/>
      <point x="366" y="434"/>
      <point x="366" y="399" type="curve" smooth="yes"/>
      <point x="366" y="392"/>
      <point x="365" y="384"/>
      <point x="363" y="377" type="curve"/>
      <point x="371" y="372"/>
      <point x="383" y="369"/>
      <point x="395" y="369" type="curve" smooth="yes"/>
      <point x="421" y="369"/>
      <point x="444" y="387"/>
    </contour>
  </outline>
</glyph>
<glyph name="d" format="1">
  <advance width="573"/>
  <unicode hex="0064"/>
  <outline>
    <contour>
      <point x="485" y="691" type="line"/>
      <point x="485" y="737"/>
      <point x="466" y="760"/>
      <point x="428" y="760" type="curve" smooth="yes"/>
      <point x="406" y="760"/>
      <point x="387" y="747"/>
      <point x="376" y="729" type="curve"/>
      <point x="393" y="722"/>
      <point x="401" y="712"/>
      <point x="401" y="689" type="curve" smooth="yes"/>
      <point x="401" y="61" type="line" smooth="yes"/>
      <point x="401" y="15"/>
      <point x="419" y="-9"/>
      <point x="457" y="-9" type="curve" smooth="yes"/>
      <point x="479" y="-9"/>
      <point x="498" y="5"/>
      <point x="510" y="23" type="curve"/>
      <point x="493" y="30"/>
      <point x="485" y="40"/>
      <point x="485" y="62" type="curve" smooth="yes"/>
    </contour>
    <contour>
      <point x="432" y="460" type="line"/>
      <point x="391" y="496"/>
      <point x="340" y="517"/>
      <point x="279" y="517" type="curve" smooth="yes"/>
      <point x="151" y="517"/>
      <point x="47" y="409"/>
      <point x="47" y="244" type="curve" smooth="yes"/>
      <point x="47" y="77"/>
      <point x="158" y="-9"/>
      <point x="262" y="-9" type="curve" smooth="yes"/>
      <point x="334" y="-9"/>
      <point x="391" y="24"/>
      <point x="422" y="85" type="curve"/>
      <point x="420" y="161" type="line"/>
      <point x="400" y="89"/>
      <point x="348" y="51"/>
      <point x="279" y="51" type="curve" smooth="yes"/>
      <point x="202" y="51"/>
      <point x="132" y="114"/>
      <point x="132" y="246" type="curve" smooth="yes"/>
      <point x="132" y="390"/>
      <point x="199" y="460"/>
      <point x="287" y="460" type="curve" smooth="yes"/>
      <point x="344" y="460"/>
      <point x="391" y="435"/>
      <point x="422" y="393" type="curve"/>
    </contour>
  </outline>
</glyph>
<glyph name="e" format="1">
  <advance width="489"/>
  <unicode hex="0065"/>
  <outline>
    <contour>
      <point x="280" y="507" type="move" name="top"/>
    </contour>
    <contour>
      <point x="368" y="22" type="move" name="ogonek"/>
    </contour>
    <contour>
      <point x="244" y="0" type="move" name="bottom"/>
    </contour>
    <contour>
      <point x="453" y="350" type="curve" smooth="yes"/>
      <point x="453" y="432"/>
      <point x="390" y="517"/>
      <point x="286" y="517" type="curve" smooth="yes"/>
      <point x="167" y="517"/>
      <point x="50" y="403"/>
      <point x="50" y="234" type="curve" smooth="yes"/>
      <point x="50" y="79"/>
      <point x="151" y="-9"/>
      <point x="285" y="-9" type="curve" smooth="yes"/>
      <point x="377" y="-9"/>
      <point x="447" y="42"/>
      <point x="447" y="83" type="curve" smooth="yes"/>
      <point x="447" y="96"/>
      <point x="442" y="105"/>
      <point x="432" y="110" type="curve"/>
      <point x="401" y="79"/>
      <point x="353" y="58"/>
      <point x="297" y="58" type="curve" smooth="yes"/>
      <point x="202" y="58"/>
      <point x="136" y="114"/>
      <point x="137" y="252" type="curve" smooth="yes"/>
      <point x="137" y="384"/>
      <point x="200" y="459"/>
      <point x="276" y="459" type="curve" smooth="yes"/>
      <point x="331" y="459"/>
      <point x="367" y="413"/>
      <point x="367" y="356" type="curve" smooth="yes"/>
      <point x="367" y="321"/>
      <point x="351" y="310"/>
      <point x="326" y="308" type="curve" smooth="yes"/>
      <point x="127" y="292" type="line"/>
      <point x="127" y="250" type="line"/>
      <point x="345" y="256" type="line" smooth="yes"/>
      <point x="422" y="259"/>
      <point x="453" y="288"/>
    </contour>
  </outline>
</glyph>
<glyph name="f" format="1">
  <advance width="381"/>
  <unicode hex="0066"/>
  <outline>
    <contour>
      <point x="364" y="507" type="line"/>
      <point x="368" y="502"/>
      <point x="370" y="497"/>
      <point x="370" y="489" type="curve" smooth="yes"/>
      <point x="370" y="467"/>
      <point x="338" y="443"/>
      <point x="221" y="443" type="curve" smooth="yes"/>
      <point x="154" y="443" type="line" smooth="yes"/>
      <point x="59" y="443"/>
      <point x="35" y="462"/>
      <point x="35" y="483" type="curve" smooth="yes"/>
      <point x="35" y="494"/>
      <point x="41" y="504"/>
      <point x="48" y="512" type="curve"/>
      <point x="62" y="509"/>
      <point x="85" y="507"/>
      <point x="115" y="507" type="curve" smooth="yes"/>
    </contour>
    <contour>
      <point x="396" y="679" type="curve" smooth="yes"/>
      <point x="396" y="666"/>
      <point x="389" y="656"/>
      <point x="380" y="652" type="curve"/>
      <point x="358" y="677"/>
      <point x="329" y="698"/>
      <point x="286" y="698" type="curve" smooth="yes"/>
      <point x="241" y="698"/>
      <point x="207" y="671"/>
      <point x="207" y="605" type="curve" smooth="yes"/>
      <point x="207" y="-127" type="line" smooth="yes"/>
      <point x="207" y="-211"/>
      <point x="166" y="-248"/>
      <point x="117" y="-248" type="curve" smooth="yes"/>
      <point x="82" y="-248"/>
      <point x="55" y="-229"/>
      <point x="41" y="-197" type="curve"/>
      <point x="104" y="-197"/>
      <point x="123" y="-170"/>
      <point x="123" y="-108" type="curve" smooth="yes"/>
      <point x="123" y="601" type="line" smooth="yes"/>
      <point x="123" y="709"/>
      <point x="191" y="760"/>
      <point x="274" y="760" type="curve" smooth="yes"/>
      <point x="350" y="760"/>
      <point x="396" y="721"/>
    </contour>
  </outline>
</glyph>
<glyph name="g" format="1">
  <advance width="558"/>
  <unicode hex="0067"/>
  <outline>
    <contour>
      <point x="248" y="500" type="move" name="top"/>
    </contour>
    <contour>
      <point x="264" y="517" type="curve" smooth="yes"/>
      <point x="166" y="517"/>
      <point x="68" y="444"/>
      <point x="68" y="318" type="curve" smooth="yes"/>
      <point x="68" y="190"/>
      <point x="166" y="119"/>
      <point x="264" y="119" type="curve" smooth="yes"/>
      <point x="360" y="119"/>
      <point x="460" y="190"/>
      <point x="460" y="318" type="curve" smooth="yes"/>
      <point x="460" y="444"/>
      <point x="360" y="517"/>
    </contour>
    <contour>
      <point x="376" y="318" type="curve" smooth="yes"/>
      <point x="382" y="221"/>
      <point x="330" y="166"/>
      <point x="271" y="166" type="curve" smooth="yes"/>
      <point x="211" y="166"/>
      <point x="159" y="221"/>
      <point x="152" y="318" type="curve" smooth="yes"/>
      <point x="144" y="413"/>
      <point x="197" y="469"/>
      <point x="256" y="469" type="curve" smooth="yes"/>
      <point x="315" y="469"/>
      <point x="370" y="413"/>
    </contour>
    <contour>
      <point x="165" y="165" type="line"/>
      <point x="112" y="150"/>
      <point x="76" y="118"/>
      <point x="76" y="71" type="curve" smooth="yes"/>
      <point x="76" y="-5"/>
      <point x="149" y="-32"/>
      <point x="235" y="-32" type="curve" smooth="yes"/>
      <point x="363" y="-32" type="line" smooth="yes"/>
      <point x="417" y="-32"/>
      <point x="443" y="-52"/>
      <point x="443" y="-84" type="curve" smooth="yes"/>
      <point x="443" y="-138"/>
      <point x="384" y="-177"/>
      <point x="274" y="-177" type="curve" smooth="yes"/>
      <point x="136" y="-177"/>
      <point x="95" y="-115"/>
      <point x="92" y="-44" type="curve"/>
      <point x="61" y="-50"/>
      <point x="34" y="-73"/>
      <point x="34" y="-114" type="curve" smooth="yes"/>
      <point x="35" y="-182"/>
      <point x="111" y="-247"/>
      <point x="262" y="-247" type="curve" smooth="yes"/>
      <point x="394" y="-247"/>
      <point x="509" y="-175"/>
      <point x="509" y="-75" type="curve" smooth="yes"/>
      <point x="509" y="-2"/>
      <point x="458" y="45"/>
      <point x="359" y="45" type="curve" smooth="yes"/>
      <point x="244" y="45" type="line" smooth="yes"/>
      <point x="179" y="45"/>
      <point x="149" y="57"/>
      <point x="149" y="89" type="curve" smooth="yes"/>
      <point x="149" y="123"/>
      <point x="185" y="138"/>
      <point x="257" y="138" type="curve"/>
    </contour>
    <contour>
      <point x="465" y="598" type="curve" smooth="yes"/>
      <point x="416" y="598"/>
      <point x="362" y="547"/>
      <point x="362" y="468" type="curve"/>
      <point x="398" y="438" type="line"/>
      <point x="398" y="482"/>
      <point x="424" y="518"/>
      <point x="464" y="518" type="curve" smooth="yes"/>
      <point x="481" y="518"/>
      <point x="499" y="512"/>
      <point x="513" y="501" type="curve"/>
      <point x="525" y="508"/>
      <point x="534" y="526"/>
      <point x="534" y="543" type="curve" smooth="yes"/>
      <point x="534" y="572"/>
      <point x="510" y="598"/>
    </contour>
  </outline>
</glyph>
<glyph name="h" format="1">
  <advance width="594"/>
  <unicode hex="0068"/>
  <outline>
    <contour>
      <point x="175" y="62" type="curve"/>
      <point x="175" y="691" type="line" smooth="yes"/>
      <point x="175" y="737"/>
      <point x="157" y="760"/>
      <point x="119" y="760" type="curve" smooth="yes"/>
      <point x="96" y="760"/>
      <point x="77" y="747"/>
      <point x="67" y="729" type="curve"/>
      <point x="83" y="722"/>
      <point x="92" y="712"/>
      <point x="92" y="689" type="curve" smooth="yes"/>
      <point x="92" y="61" type="line" smooth="yes"/>
      <point x="92" y="15"/>
      <point x="110" y="-9"/>
      <point x="148" y="-9" type="curve" smooth="yes"/>
      <point x="170" y="-9"/>
      <point x="188" y="5"/>
      <point x="200" y="23" type="curve"/>
      <point x="183" y="30"/>
      <point x="175" y="40"/>
    </contour>
    <contour>
      <point x="506" y="345" type="line"/>
      <point x="506" y="462"/>
      <point x="446" y="517"/>
      <point x="356" y="517" type="curve" smooth="yes"/>
      <point x="266" y="517"/>
      <point x="194" y="451"/>
      <point x="166" y="373" type="curve"/>
      <point x="167" y="251" type="line"/>
      <point x="178" y="371"/>
      <point x="258" y="444"/>
      <point x="332" y="444" type="curve" smooth="yes"/>
      <point x="399" y="444"/>
      <point x="424" y="403"/>
      <point x="424" y="339" type="curve" smooth="yes"/>
      <point x="424" y="61" type="line" smooth="yes"/>
      <point x="424" y="15"/>
      <point x="443" y="-9"/>
      <point x="479" y="-9" type="curve" smooth="yes"/>
      <point x="503" y="-9"/>
      <point x="520" y="5"/>
      <point x="532" y="23" type="curve"/>
      <point x="515" y="30"/>
      <point x="506" y="40"/>
      <point x="506" y="62" type="curve" smooth="yes"/>
    </contour>
  </outline>
</glyph>
<glyph name="i" format="1">
  <advance width="265"/>
  <unicode hex="0069"/>
  <outline>
    <contour>
      <point x="202" y="13" type="move" name="ogonek"/>
    </contour>
    <contour>
      <point x="175" y="62" type="line"/>
      <point x="175" y="40"/>
      <point x="183" y="30"/>
      <point x="200" y="23" type="curve"/>
      <point x="188" y="5"/>
      <point x="170" y="-9"/>
      <point x="148" y="-9" type="curve" smooth="yes"/>
      <point x="110" y="-9"/>
      <point x="92" y="15"/>
      <point x="92" y="61" type="curve" smooth="yes"/>
      <point x="92" y="445" type="line" smooth="yes"/>
      <point x="92" y="467"/>
      <point x="83" y="478"/>
      <point x="67" y="485" type="curve"/>
      <point x="77" y="502"/>
      <point x="96" y="517"/>
      <point x="119" y="517" type="curve" smooth="yes"/>
      <point x="157" y="517"/>
      <point x="175" y="493"/>
      <point x="175" y="447" type="curve" smooth="yes"/>
    </contour>
    <contour>
      <point x="195" y="677" type="curve" smooth="yes"/>
      <point x="195" y="641"/>
      <point x="162" y="609"/>
      <point x="122" y="609" type="curve" smooth="yes"/>
      <point x="89" y="609"/>
      <point x="64" y="634"/>
      <point x="64" y="663" type="curve" smooth="yes"/>
      <point x="64" y="706"/>
      <point x="106" y="730"/>
      <point x="137" y="730" type="curve" smooth="yes"/>
      <point x="169" y="730"/>
      <point x="195" y="709"/>
    </contour>
  </outline>
</glyph>
<glyph name="j" format="1">
  <advance width="265"/>
  <unicode hex="006A"/>
  <outline>
    <contour>
      <point x="195" y="677" type="curve" smooth="yes"/>
      <point x="195" y="709"/>
      <point x="169" y="730"/>
      <point x="137" y="730" type="curve" smooth="yes"/>
      <point x="106" y="730"/>
      <point x="64" y="706"/>
      <point x="64" y="663" type="curve" smooth="yes"/>
      <point x="64" y="634"/>
      <point x="89" y="609"/>
      <point x="122" y="609" type="curve" smooth="yes"/>
      <point x="162" y="609"/>
      <point x="195" y="641"/>
    </contour>
    <contour>
      <point x="175" y="-127" type="curve"/>
      <point x="175" y="447" type="line"/>
      <point x="175" y="493"/>
      <point x="157" y="517"/>
      <point x="119" y="517" type="curve" smooth="yes"/>
      <point x="96" y="517"/>
      <point x="77" y="502"/>
      <point x="67" y="485" type="curve"/>
      <point x="83" y="478"/>
      <point x="92" y="467"/>
      <point x="92" y="445" type="curve"/>
      <point x="92" y="-108" type="line" smooth="yes"/>
      <point x="92" y="-170"/>
      <point x="72" y="-197"/>
      <point x="8" y="-197" type="curve"/>
      <point x="24" y="-229"/>
      <point x="50" y="-248"/>
      <point x="85" y="-248" type="curve" smooth="yes"/>
      <point x="134" y="-248"/>
      <point x="175" y="-211"/>
    </contour>
  </outline>
</glyph>
<glyph name="k" format="1">
  <advance width="560"/>
  <unicode hex="006B"/>
  <outline>
    <contour>
      <point x="284" y="0" type="move" name="bottom"/>
    </contour>
    <contour>
      <point x="175" y="62" type="curve" smooth="yes"/>
      <point x="175" y="691" type="line" smooth="yes"/>
      <point x="175" y="737"/>
      <point x="157" y="760"/>
      <point x="119" y="760" type="curve" smooth="yes"/>
      <point x="96" y="760"/>
      <point x="77" y="747"/>
      <point x="67" y="729" type="curve"/>
      <point x="83" y="722"/>
      <point x="92" y="712"/>
      <point x="92" y="689" type="curve" smooth="yes"/>
      <point x="92" y="61" type="line" smooth="yes"/>
      <point x="92" y="15"/>
      <point x="110" y="-9"/>
      <point x="148" y="-9" type="curve" smooth="yes"/>
      <point x="170" y="-9"/>
      <point x="188" y="5"/>
      <point x="200" y="23" type="curve"/>
      <point x="183" y="30"/>
      <point x="175" y="40"/>
    </contour>
    <contour>
      <point x="169" y="305" type="curve"/>
      <point x="169" y="276" type="line"/>
      <point x="338" y="50"/>
      <point x="382" y="-9"/>
      <point x="450" y="-9" type="curve" smooth="yes"/>
      <point x="491" y="-9"/>
      <point x="512" y="27"/>
      <point x="512" y="67" type="curve"/>
      <point x="450" y="67"/>
      <point x="404" y="83"/>
      <point x="226" y="296" type="curve"/>
      <point x="219" y="276" type="line"/>
      <point x="384" y="306"/>
      <point x="498" y="370"/>
      <point x="498" y="448" type="curve" smooth="yes"/>
      <point x="498" y="493"/>
      <point x="461" y="517"/>
      <point x="416" y="517" type="curve"/>
      <point x="416" y="429"/>
      <point x="371" y="368"/>
    </contour>
  </outline>
</glyph>
<glyph name="l" format="1">
  <advance width="266"/>
  <unicode hex="006C"/>
  <outline>
    <contour>
      <point x="139" y="742" type="move" name="top"/>
    </contour>
    <contour>
      <point x="230" y="700" type="move" name="topright"/>
    </contour>
    <contour>
      <point x="142" y="0" type="move" name="bottom"/>
    </contour>
    <contour>
      <point x="175" y="62" type="line"/>
      <point x="175" y="40"/>
      <point x="183" y="30"/>
      <point x="200" y="23" type="curve"/>
      <point x="188" y="5"/>
      <point x="170" y="-9"/>
      <point x="148" y="-9" type="curve" smooth="yes"/>
      <point x="110" y="-9"/>
      <point x="92" y="15"/>
      <point x="92" y="61" type="curve" smooth="yes"/>
      <point x="92" y="689" type="line" smooth="yes"/>
      <point x="92" y="712"/>
      <point x="83" y="722"/>
      <point x="67" y="729" type="curve"/>
      <point x="77" y="747"/>
      <point x="96" y="760"/>
      <point x="119" y="760" type="curve" smooth="yes"/>
      <point x="157" y="760"/>
      <point x="175" y="737"/>
      <point x="175" y="691" type="curve" smooth="yes"/>
    </contour>
  </outline>
</glyph>
<glyph name="m" format="1">
  <advance width="928"/>
  <unicode hex="006D"/>
  <outline>
    <contour>
      <point x="175" y="62" type="curve"/>
      <point x="175" y="447" type="line" smooth="yes"/>
      <point x="175" y="493"/>
      <point x="157" y="517"/>
      <point x="119" y="517" type="curve" smooth="yes"/>
      <point x="96" y="517"/>
      <point x="77" y="502"/>
      <point x="67" y="485" type="curve"/>
      <point x="83" y="478"/>
      <point x="92" y="467"/>
      <point x="92" y="445" type="curve" smooth="yes"/>
      <point x="92" y="61" type="line" smooth="yes"/>
      <point x="92" y="15"/>
      <point x="110" y="-9"/>
      <point x="148" y="-9" type="curve" smooth="yes"/>
      <point x="170" y="-9"/>
      <point x="188" y="5"/>
      <point x="200" y="23" type="curve"/>
      <point x="183" y="30"/>
      <point x="175" y="40"/>
    </contour>
    <contour>
      <point x="506" y="345" type="line"/>
      <point x="506" y="462"/>
      <point x="446" y="517"/>
      <point x="356" y="517" type="curve" smooth="yes"/>
      <point x="266" y="517"/>
      <point x="194" y="451"/>
      <point x="166" y="373" type="curve"/>
      <point x="167" y="251" type="line"/>
      <point x="178" y="371"/>
      <point x="258" y="444"/>
      <point x="332" y="444" type="curve" smooth="yes"/>
      <point x="399" y="444"/>
      <point x="424" y="403"/>
      <point x="424" y="339" type="curve" smooth="yes"/>
      <point x="424" y="61" type="line" smooth="yes"/>
      <point x="424" y="15"/>
      <point x="443" y="-9"/>
      <point x="479" y="-9" type="curve" smooth="yes"/>
      <point x="503" y="-9"/>
      <point x="520" y="5"/>
      <point x="532" y="23" type="curve"/>
      <point x="515" y="30"/>
      <point x="506" y="40"/>
      <point x="506" y="62" type="curve" smooth="yes"/>
    </contour>
    <contour>
      <point x="838" y="345" type="line"/>
      <point x="838" y="462"/>
      <point x="777" y="517"/>
      <point x="688" y="517" type="curve" smooth="yes"/>
      <point x="597" y="517"/>
      <point x="525" y="451"/>
      <point x="499" y="373" type="curve"/>
      <point x="499" y="251" type="line"/>
      <point x="510" y="371"/>
      <point x="590" y="444"/>
      <point x="663" y="444" type="curve" smooth="yes"/>
      <point x="730" y="444"/>
      <point x="755" y="403"/>
      <point x="755" y="339" type="curve" smooth="yes"/>
      <point x="755" y="61" type="line" smooth="yes"/>
      <point x="755" y="15"/>
      <point x="774" y="-9"/>
      <point x="811" y="-9" type="curve" smooth="yes"/>
      <point x="834" y="-9"/>
      <point x="853" y="5"/>
      <point x="863" y="23" type="curve"/>
      <point x="847" y="30"/>
      <point x="838" y="40"/>
      <point x="838" y="62" type="curve" smooth="yes"/>
    </contour>
  </outline>
</glyph>
<glyph name="o" format="1">
  <advance width="574"/>
  <unicode hex="006F"/>
  <outline>
    <contour>
      <point x="287" y="507" type="move" name="top"/>
    </contour>
    <contour>
      <point x="526" y="254" type="curve" smooth="yes"/>
      <point x="526" y="79"/>
      <point x="412" y="-9"/>
      <point x="288" y="-9" type="curve" smooth="yes"/>
      <point x="165" y="-9"/>
      <point x="50" y="79"/>
      <point x="50" y="254" type="curve" smooth="yes"/>
      <point x="50" y="430"/>
      <point x="165" y="517"/>
      <point x="288" y="517" type="curve" smooth="yes"/>
      <point x="412" y="517"/>
      <point x="526" y="428"/>
    </contour>
    <contour>
      <point x="139" y="254" type="curve" smooth="yes"/>
      <point x="145" y="106"/>
      <point x="211" y="47"/>
      <point x="297" y="47" type="curve" smooth="yes"/>
      <point x="383" y="47"/>
      <point x="442" y="106"/>
      <point x="436" y="254" type="curve" smooth="yes"/>
      <point x="430" y="403"/>
      <point x="365" y="460"/>
      <point x="280" y="460" type="curve" smooth="yes"/>
      <point x="194" y="460"/>
      <point x="133" y="403"/>
    </contour>
  </outline>
</glyph>
<glyph name="p" format="1">
  <advance width="581"/>
  <unicode hex="0070"/>
  <outline>
    <contour>
      <point x="537" y="254" type="curve" smooth="yes"/>
      <point x="537" y="427"/>
      <point x="439" y="517"/>
      <point x="324" y="517" type="curve" smooth="yes"/>
      <point x="250" y="517"/>
      <point x="203" y="482"/>
      <point x="162" y="424" type="curve"/>
      <point x="169" y="356" type="line"/>
      <point x="202" y="418"/>
      <point x="247" y="449"/>
      <point x="304" y="449" type="curve" smooth="yes"/>
      <point x="391" y="449"/>
      <point x="451" y="379"/>
      <point x="451" y="254" type="curve" smooth="yes"/>
      <point x="451" y="130"/>
      <point x="383" y="51"/>
      <point x="298" y="51" type="curve" smooth="yes"/>
      <point x="243" y="51"/>
      <point x="205" y="67"/>
      <point x="169" y="116" type="curve"/>
      <point x="161" y="54" type="line"/>
      <point x="202" y="9"/>
      <point x="250" y="-8"/>
      <point x="310" y="-8" type="curve" smooth="yes"/>
      <point x="422" y="-8"/>
      <point x="537" y="90"/>
    </contour>
    <contour>
      <point x="175" y="447" type="line"/>
      <point x="175" y="493"/>
      <point x="157" y="517"/>
      <point x="119" y="517" type="curve" smooth="yes"/>
      <point x="96" y="517"/>
      <point x="77" y="502"/>
      <point x="67" y="485" type="curve"/>
      <point x="83" y="478"/>
      <point x="92" y="467"/>
      <point x="92" y="445" type="curve" smooth="yes"/>
      <point x="92" y="-177" type="line" smooth="yes"/>
      <point x="92" y="-223"/>
      <point x="110" y="-248"/>
      <point x="148" y="-248" type="curve" smooth="yes"/>
      <point x="170" y="-248"/>
      <point x="188" y="-234"/>
      <point x="200" y="-216" type="curve"/>
      <point x="183" y="-210"/>
      <point x="175" y="-199"/>
      <point x="175" y="-177" type="curve" smooth="yes"/>
    </contour>
  </outline>
</glyph>
<glyph name="q" format="1">
  <advance width="565"/>
  <unicode hex="0071"/>
  <outline>
    <contour>
      <point x="422" y="421" type="line"/>
      <point x="401" y="474"/>
      <point x="351" y="517"/>
      <point x="278" y="517" type="curve" smooth="yes"/>
      <point x="143" y="517"/>
      <point x="47" y="402"/>
      <point x="47" y="243" type="curve" smooth="yes"/>
      <point x="47" y="82"/>
      <point x="151" y="-9"/>
      <point x="267" y="-9" type="curve" smooth="yes"/>
      <point x="346" y="-9"/>
      <point x="386" y="29"/>
      <point x="421" y="80" type="curve"/>
      <point x="414" y="136" type="line"/>
      <point x="385" y="84"/>
      <point x="341" y="51"/>
      <point x="281" y="51" type="curve" smooth="yes"/>
      <point x="200" y="51"/>
      <point x="134" y="114"/>
      <point x="134" y="247" type="curve" smooth="yes"/>
      <point x="134" y="390"/>
      <point x="197" y="460"/>
      <point x="283" y="460" type="curve" smooth="yes"/>
      <point x="352" y="460"/>
      <point x="401" y="411"/>
      <point x="401" y="331" type="curve"/>
    </contour>
    <contour>
      <point x="485" y="517" type="line"/>
      <point x="462" y="517" type="line" smooth="yes"/>
      <point x="424" y="517"/>
      <point x="401" y="492"/>
      <point x="401" y="439" type="curve"/>
      <point x="401" y="-177" type="line" smooth="yes"/>
      <point x="401" y="-223"/>
      <point x="419" y="-248"/>
      <point x="457" y="-248" type="curve" smooth="yes"/>
      <point x="479" y="-248"/>
      <point x="498" y="-234"/>
      <point x="510" y="-216" type="curve"/>
      <point x="493" y="-210"/>
      <point x="485" y="-199"/>
      <point x="485" y="-177" type="curve" smooth="yes"/>
    </contour>
  </outline>
</glyph>
<glyph name="r" format="1">
  <advance width="421"/>
  <unicode hex="0072"/>
  <outline>
    <contour>
      <point x="211" y="500" type="move" name="top"/>
    </contour>
    <contour>
      <point x="150" y="0" type="move" name="bottom"/>
    </contour>
    <contour>
      <point x="175" y="447" type="line"/>
      <point x="175" y="493"/>
      <point x="157" y="517"/>
      <point x="119" y="517" type="curve" smooth="yes"/>
      <point x="96" y="517"/>
      <point x="77" y="502"/>
      <point x="67" y="485" type="curve"/>
      <point x="83" y="478"/>
      <point x="92" y="467"/>
      <point x="92" y="445" type="curve" smooth="yes"/>
      <point x="92" y="61" type="line" smooth="yes"/>
      <point x="92" y="15"/>
      <point x="110" y="-9"/>
      <point x="148" y="-9" type="curve" smooth="yes"/>
      <point x="170" y="-9"/>
      <point x="188" y="5"/>
      <point x="200" y="23" type="curve"/>
      <point x="183" y="30"/>
      <point x="175" y="40"/>
      <point x="175" y="62" type="curve" smooth="yes"/>
    </contour>
    <contour>
      <point x="413" y="436" type="curve" smooth="yes"/>
      <point x="413" y="477"/>
      <point x="381" y="517"/>
      <point x="314" y="517" type="curve" smooth="yes"/>
      <point x="227" y="517"/>
      <point x="164" y="442"/>
      <point x="155" y="316" type="curve"/>
      <point x="170" y="283" type="line"/>
      <point x="182" y="411"/>
      <point x="244" y="453"/>
      <point x="285" y="453" type="curve" smooth="yes"/>
      <point x="317" y="453"/>
      <point x="335" y="435"/>
      <point x="335" y="403" type="curve" smooth="yes"/>
      <point x="335" y="395"/>
      <point x="335" y="387"/>
      <point x="333" y="377" type="curve"/>
      <point x="340" y="375"/>
      <point x="349" y="373"/>
      <point x="357" y="373" type="curve" smooth="yes"/>
      <point x="387" y="373"/>
      <point x="413" y="394"/>
    </contour>
  </outline>
</glyph>
<glyph name="s" format="1">
  <advance width="502"/>
  <unicode hex="0073"/>
  <outline>
    <contour>
      <point x="252" y="507" type="move" name="top"/>
    </contour>
    <contour>
      <point x="254" y="0" type="move" name="bottom"/>
    </contour>
    <contour>
      <point x="438" y="417" type="curve" smooth="yes"/>
      <point x="439" y="383"/>
      <point x="412" y="366"/>
      <point x="383" y="366" type="curve" smooth="yes"/>
      <point x="370" y="366"/>
      <point x="355" y="370"/>
      <point x="344" y="378" type="curve"/>
      <point x="348" y="385"/>
      <point x="350" y="394"/>
      <point x="350" y="402" type="curve" smooth="yes"/>
      <point x="350" y="431"/>
      <point x="323" y="462"/>
      <point x="259" y="462" type="curve" smooth="yes"/>
      <point x="194" y="462"/>
      <point x="158" y="430"/>
      <point x="158" y="390" type="curve" smooth="yes"/>
      <point x="158" y="298"/>
      <point x="447" y="280"/>
      <point x="447" y="136" type="curve" smooth="yes"/>
      <point x="447" y="61"/>
      <point x="370" y="-9"/>
      <point x="244" y="-9" type="curve" smooth="yes"/>
      <point x="138" y="-9"/>
      <point x="55" y="39"/>
      <point x="55" y="109" type="curve" smooth="yes"/>
      <point x="55" y="153"/>
      <point x="85" y="175"/>
      <point x="114" y="175" type="curve" smooth="yes"/>
      <point x="130" y="175"/>
      <point x="144" y="169"/>
      <point x="153" y="158" type="curve"/>
      <point x="144" y="146"/>
      <point x="139" y="132"/>
      <point x="139" y="116" type="curve" smooth="yes"/>
      <point x="139" y="76"/>
      <point x="174" y="46"/>
      <point x="246" y="46" type="curve" smooth="yes"/>
      <point x="317" y="46"/>
      <point x="362" y="79"/>
      <point x="362" y="127" type="curve" smooth="yes"/>
      <point x="362" y="234"/>
      <point x="75" y="237"/>
      <point x="75" y="376" type="curve" smooth="yes"/>
      <point x="75" y="456"/>
      <point x="153" y="517"/>
      <point x="258" y="517" type="curve" smooth="yes"/>
      <point x="349" y="517"/>
      <point x="438" y="479"/>
    </contour>
  </outline>
</glyph>
<glyph name="t" format="1">
  <advance width="398"/>
  <unicode hex="0074"/>
  <outline>
    <contour>
      <point x="189" y="711" type="move" name="topright"/>
    </contour>
    <contour>
      <point x="223" y="0" type="move" name="bottom"/>
    </contour>
    <contour>
      <point x="176" y="589" type="curve" smooth="yes"/>
      <point x="176" y="127" type="line" smooth="yes"/>
      <point x="176" y="78"/>
      <point x="194" y="58"/>
      <point x="238" y="58" type="curve" smooth="yes"/>
      <point x="284" y="58"/>
      <point x="324" y="81"/>
      <point x="355" y="111" type="curve"/>
      <point x="363" y="107"/>
      <point x="372" y="99"/>
      <point x="372" y="82" type="curve" smooth="yes"/>
      <point x="372" y="40"/>
      <point x="310" y="-9"/>
      <point x="220" y="-9" type="curve" smooth="yes"/>
      <point x="137" y="-9"/>
      <point x="92" y="36"/>
      <point x="92" y="124" type="curve" smooth="yes"/>
      <point x="92" y="588" type="line" smooth="yes"/>
      <point x="92" y="610"/>
      <point x="83" y="620"/>
      <point x="67" y="628" type="curve"/>
      <point x="78" y="645"/>
      <point x="97" y="659"/>
      <point x="119" y="659" type="curve" smooth="yes"/>
      <point x="157" y="659"/>
      <point x="176" y="635"/>
    </contour>
    <contour>
      <point x="344" y="507" type="line"/>
      <point x="347" y="502"/>
      <point x="348" y="498"/>
      <point x="348" y="490" type="curve" smooth="yes"/>
      <point x="348" y="468"/>
      <point x="318" y="444"/>
      <point x="190" y="444" type="curve" smooth="yes"/>
      <point x="95" y="444" type="line" smooth="yes"/>
      <point x="29" y="445"/>
      <point x="11" y="465"/>
      <point x="11" y="483" type="curve" smooth="yes"/>
      <point x="11" y="494"/>
      <point x="15" y="505"/>
      <point x="23" y="512" type="curve"/>
      <point x="37" y="510"/>
      <point x="52" y="507"/>
      <point x="77" y="507" type="curve" smooth="yes"/>
    </contour>
  </outline>
</glyph>
<glyph name="u" format="1">
  <advance width="594"/>
  <unicode hex="0075"/>
  <outline>
    <contour>
      <point x="297" y="507" type="move" name="top"/>
    </contour>
    <contour>
      <point x="535" y="12" type="move" name="ogonek"/>
    </contour>
    <contour>
      <point x="506" y="447" type="line"/>
      <point x="506" y="493"/>
      <point x="488" y="517"/>
      <point x="451" y="517" type="curve" smooth="yes"/>
      <point x="427" y="517"/>
      <point x="410" y="502"/>
      <point x="398" y="485" type="curve"/>
      <point x="415" y="478"/>
      <point x="424" y="467"/>
      <point x="424" y="445" type="curve" smooth="yes"/>
      <point x="424" y="61" type="line" smooth="yes"/>
      <point x="424" y="15"/>
      <point x="443" y="-9"/>
      <point x="479" y="-9" type="curve" smooth="yes"/>
      <point x="503" y="-9"/>
      <point x="520" y="5"/>
      <point x="532" y="23" type="curve"/>
      <point x="515" y="30"/>
      <point x="506" y="40"/>
      <point x="506" y="62" type="curve" smooth="yes"/>
    </contour>
    <contour>
      <point x="175" y="447" type="line"/>
      <point x="175" y="493"/>
      <point x="157" y="517"/>
      <point x="119" y="517" type="curve" smooth="yes"/>
      <point x="96" y="517"/>
      <point x="77" y="502"/>
      <point x="67" y="485" type="curve"/>
      <point x="83" y="478"/>
      <point x="92" y="467"/>
      <point x="92" y="445" type="curve" smooth="yes"/>
      <point x="92" y="163" type="line" smooth="yes"/>
      <point x="92" y="46"/>
      <point x="154" y="-9"/>
      <point x="261" y="-9" type="curve" smooth="yes"/>
      <point x="350" y="-9"/>
      <point x="409" y="47"/>
      <point x="438" y="114" type="curve"/>
      <point x="431" y="193" type="line"/>
      <point x="407" y="110"/>
      <point x="349" y="62"/>
      <point x="279" y="62" type="curve" smooth="yes"/>
      <point x="200" y="62"/>
      <point x="175" y="105"/>
      <point x="175" y="168" type="curve" smooth="yes"/>
    </contour>
  </outline>
</glyph>
<glyph name="v" format="1">
  <advance width="548"/>
  <unicode hex="0076"/>
  <outline>
    <contour>
      <point x="136" y="447" type="line"/>
      <point x="123" y="495"/>
      <point x="99" y="517"/>
      <point x="64" y="517" type="curve" smooth="yes"/>
      <point x="37" y="517"/>
      <point x="13" y="500"/>
      <point x="10" y="471" type="curve"/>
      <point x="33" y="470"/>
      <point x="45" y="453"/>
      <point x="51" y="431" type="curve"/>
      <point x="173" y="62" type="line" smooth="yes"/>
      <point x="189" y="13"/>
      <point x="209" y="-9"/>
      <point x="248" y="-9" type="curve" smooth="yes"/>
      <point x="314" y="-9"/>
      <point x="496" y="219"/>
      <point x="496" y="425" type="curve" smooth="yes"/>
      <point x="496" y="490"/>
      <point x="468" y="517"/>
      <point x="439" y="517" type="curve" smooth="yes"/>
      <point x="421" y="517"/>
      <point x="406" y="510"/>
      <point x="392" y="500" type="curve"/>
      <point x="444" y="349"/>
      <point x="341" y="153"/>
      <point x="243" y="39" type="curve"/>
      <point x="258" y="31" type="line"/>
    </contour>
  </outline>
</glyph>
<glyph name="w" format="1">
  <advance width="825"/>
  <unicode hex="0077"/>
  <outline>
    <contour>
      <point x="136" y="447" type="line"/>
      <point x="122" y="494"/>
      <point x="99" y="517"/>
      <point x="67" y="517" type="curve" smooth="yes"/>
      <point x="38" y="517"/>
      <point x="13" y="499"/>
      <point x="11" y="470" type="curve"/>
      <point x="35" y="469"/>
      <point x="45" y="454"/>
      <point x="52" y="431" type="curve" smooth="yes"/>
      <point x="171" y="62" type="line" smooth="yes"/>
      <point x="187" y="15"/>
      <point x="206" y="-9"/>
      <point x="245" y="-9" type="curve" smooth="yes"/>
      <point x="329" y="-9"/>
      <point x="436" y="226"/>
      <point x="453" y="383" type="curve"/>
      <point x="405" y="437" type="line"/>
      <point x="378" y="264"/>
      <point x="317" y="120"/>
      <point x="239" y="34" type="curve"/>
      <point x="261" y="20" type="line"/>
    </contour>
    <contour>
      <point x="461" y="447" type="line"/>
      <point x="448" y="495"/>
      <point x="424" y="517"/>
      <point x="389" y="517" type="curve" smooth="yes"/>
      <point x="362" y="517"/>
      <point x="337" y="500"/>
      <point x="335" y="471" type="curve"/>
      <point x="358" y="470"/>
      <point x="370" y="453"/>
      <point x="376" y="431" type="curve"/>
      <point x="498" y="62" type="line" smooth="yes"/>
      <point x="514" y="13"/>
      <point x="534" y="-9"/>
      <point x="574" y="-9" type="curve" smooth="yes"/>
      <point x="639" y="-9"/>
      <point x="788" y="219"/>
      <point x="788" y="425" type="curve" smooth="yes"/>
      <point x="788" y="490"/>
      <point x="761" y="517"/>
      <point x="732" y="517" type="curve" smooth="yes"/>
      <point x="716" y="517"/>
      <point x="698" y="511"/>
      <point x="685" y="503" type="curve"/>
      <point x="737" y="352"/>
      <point x="666" y="153"/>
      <point x="568" y="39" type="curve"/>
      <point x="583" y="31" type="line"/>
    </contour>
  </outline>
</glyph>
<glyph name="x" format="1">
  <advance width="514"/>
  <unicode hex="0078"/>
  <outline>
    <contour>
      <point x="227" y="260" type="line"/>
      <point x="263" y="232" type="line"/>
      <point x="169" y="72" type="line" smooth="yes"/>
      <point x="136" y="5"/>
      <point x="118" y="-8"/>
      <point x="89" y="-8" type="curve" smooth="yes"/>
      <point x="60" y="-8"/>
      <point x="35" y="9"/>
      <point x="34" y="43" type="curve"/>
      <point x="54" y="43"/>
      <point x="66" y="52"/>
      <point x="85" y="75" type="curve" smooth="yes"/>
    </contour>
    <contour>
      <point x="144" y="479" type="curve" smooth="yes"/>
      <point x="447" y="63" type="line" smooth="yes"/>
      <point x="459" y="47"/>
      <point x="466" y="43"/>
      <point x="480" y="43" type="curve"/>
      <point x="480" y="10"/>
      <point x="459" y="-8"/>
      <point x="432" y="-8" type="curve" smooth="yes"/>
      <point x="407" y="-8"/>
      <point x="388" y="4"/>
      <point x="369" y="29" type="curve" smooth="yes"/>
      <point x="67" y="445" type="line" smooth="yes"/>
      <point x="55" y="462"/>
      <point x="48" y="466"/>
      <point x="34" y="466" type="curve"/>
      <point x="34" y="499"/>
      <point x="55" y="517"/>
      <point x="82" y="517" type="curve" smooth="yes"/>
      <point x="107" y="517"/>
      <point x="125" y="504"/>
    </contour>
    <contour>
      <point x="287" y="248" type="line"/>
      <point x="251" y="277" type="line"/>
      <point x="345" y="437" type="line" smooth="yes"/>
      <point x="378" y="504"/>
      <point x="396" y="517"/>
      <point x="425" y="517" type="curve" smooth="yes"/>
      <point x="454" y="517"/>
      <point x="479" y="500"/>
      <point x="480" y="466" type="curve"/>
      <point x="460" y="466"/>
      <point x="448" y="457"/>
      <point x="429" y="434" type="curve" smooth="yes"/>
    </contour>
  </outline>
</glyph>
<glyph name="y" format="1">
  <advance width="554"/>
  <unicode hex="0079"/>
  <outline>
    <contour>
      <point x="270" y="507" type="move" name="top"/>
    </contour>
    <contour>
      <point x="495" y="419" type="curve" smooth="yes"/>
      <point x="278" y="-146" type="line" smooth="yes"/>
      <point x="249" y="-220"/>
      <point x="211" y="-248"/>
      <point x="161" y="-248" type="curve" smooth="yes"/>
      <point x="112" y="-248"/>
      <point x="89" y="-219"/>
      <point x="89" y="-188" type="curve" smooth="yes"/>
      <point x="89" y="-174"/>
      <point x="94" y="-162"/>
      <point x="103" y="-152" type="curve"/>
      <point x="115" y="-165"/>
      <point x="131" y="-171"/>
      <point x="151" y="-171" type="curve" smooth="yes"/>
      <point x="177" y="-171"/>
      <point x="198" y="-156"/>
      <point x="213" y="-116" type="curve" smooth="yes"/>
      <point x="411" y="430" type="line" smooth="yes"/>
      <point x="424" y="464"/>
      <point x="419" y="486"/>
      <point x="405" y="502" type="curve"/>
      <point x="418" y="511"/>
      <point x="434" y="517"/>
      <point x="451" y="517" type="curve" smooth="yes"/>
      <point x="487" y="517"/>
      <point x="520" y="481"/>
    </contour>
    <contour>
      <point x="136" y="452" type="curve" smooth="yes"/>
      <point x="286" y="1" type="line"/>
      <point x="245" y="-22"/>
      <point x="203" y="-2"/>
      <point x="188" y="43" type="curve" smooth="yes"/>
      <point x="50" y="443" type="line" smooth="yes"/>
      <point x="44" y="464"/>
      <point x="36" y="481"/>
      <point x="19" y="490" type="curve"/>
      <point x="30" y="507"/>
      <point x="49" y="517"/>
      <point x="72" y="517" type="curve" smooth="yes"/>
      <point x="103" y="517"/>
      <point x="122" y="496"/>
    </contour>
  </outline>
</glyph>
<glyph name="z" format="1">
  <advance width="507"/>
  <unicode hex="007A"/>
  <outline>
    <contour>
      <point x="253" y="507" type="move" name="top"/>
    </contour>
    <contour>
      <point x="389" y="507" type="curve" smooth="yes"/>
      <point x="188" y="507" type="line" smooth="yes"/>
      <point x="143" y="507"/>
      <point x="111" y="512"/>
      <point x="87" y="521" type="curve"/>
      <point x="78" y="513"/>
      <point x="71" y="502"/>
      <point x="71" y="488" type="curve" smooth="yes"/>
      <point x="71" y="454"/>
      <point x="109" y="429"/>
      <point x="189" y="429" type="curve" smooth="yes"/>
      <point x="256" y="429"/>
      <point x="329" y="442"/>
      <point x="422" y="454" type="curve"/>
      <point x="397" y="466" type="line"/>
      <point x="108" y="190" type="line" smooth="yes"/>
      <point x="74" y="159"/>
      <point x="63" y="136"/>
      <point x="63" y="111" type="curve" smooth="yes"/>
      <point x="63" y="47"/>
      <point x="171" y="-9"/>
      <point x="292" y="-9" type="curve" smooth="yes"/>
      <point x="412" y="-9"/>
      <point x="460" y="42"/>
      <point x="460" y="81" type="curve" smooth="yes"/>
      <point x="460" y="103"/>
      <point x="451" y="119"/>
      <point x="434" y="129" type="curve"/>
      <point x="405" y="91"/>
      <point x="358" y="67"/>
      <point x="296" y="67" type="curve" smooth="yes"/>
      <point x="222" y="67"/>
      <point x="162" y="81"/>
      <point x="113" y="110" type="curve"/>
      <point x="104" y="85" type="line"/>
      <point x="423" y="386" type="line" smooth="yes"/>
      <point x="450" y="411"/>
      <point x="456" y="432"/>
      <point x="456" y="450" type="curve" smooth="yes"/>
      <point x="456" y="481"/>
      <point x="432" y="507"/>
    </contour>
  </outline>
</glyph>
<glyph name="braceleft" format="1">
  <advance width="384"/>
  <unicode hex="007B"/>
  <outline>
    <contour>
      <point x="312" y="842" type="curve"/>
      <point x="299" y="857"/>
      <point x="278" y="867"/>
      <point x="253" y="867" type="curve" smooth="yes"/>
      <point x="196" y="867"/>
      <point x="119" y="817"/>
      <point x="119" y="682" type="curve" smooth="yes"/>
      <point x="119" y="623"/>
      <point x="136" y="525"/>
      <point x="136" y="454" type="curve" smooth="yes"/>
      <point x="136" y="350"/>
      <point x="68" y="347"/>
      <point x="68" y="322" type="curve" smooth="yes"/>
      <point x="68" y="298"/>
      <point x="136" y="293"/>
      <point x="136" y="190" type="curve" smooth="yes"/>
      <point x="136" y="116"/>
      <point x="119" y="15"/>
      <point x="119" y="-50" type="curve" smooth="yes"/>
      <point x="119" y="-183"/>
      <point x="196" y="-234"/>
      <point x="253" y="-234" type="curve" smooth="yes"/>
      <point x="278" y="-234"/>
      <point x="299" y="-225"/>
      <point x="312" y="-209" type="curve"/>
      <point x="249" y="-202"/>
      <point x="200" y="-158"/>
      <point x="200" y="-79" type="curve" smooth="yes"/>
      <point x="200" y="-16"/>
      <point x="218" y="130"/>
      <point x="218" y="194" type="curve" smooth="yes"/>
      <point x="218" y="285"/>
      <point x="138" y="319"/>
      <point x="131" y="322" type="curve"/>
      <point x="136" y="323"/>
      <point x="218" y="358"/>
      <point x="218" y="451" type="curve" smooth="yes"/>
      <point x="218" y="513"/>
      <point x="200" y="652"/>
      <point x="200" y="711" type="curve" smooth="yes"/>
      <point x="200" y="791"/>
      <point x="249" y="836"/>
    </contour>
  </outline>
</glyph>
<glyph name="bar" format="1">
  <advance width="279"/>
  <unicode hex="007C"/>
  <outline>
    <contour>
      <point x="180" y="-102" type="curve"/>
      <point x="180" y="823" type="line" smooth="yes"/>
      <point x="180" y="869"/>
      <point x="160" y="892"/>
      <point x="123" y="892" type="curve" smooth="yes"/>
      <point x="100" y="892"/>
      <point x="81" y="879"/>
      <point x="71" y="861" type="curve"/>
      <point x="87" y="854"/>
      <point x="96" y="844"/>
      <point x="96" y="822" type="curve" smooth="yes"/>
      <point x="96" y="-102" type="line" smooth="yes"/>
      <point x="96" y="-149"/>
      <point x="114" y="-172"/>
      <point x="151" y="-172" type="curve" smooth="yes"/>
      <point x="174" y="-172"/>
      <point x="193" y="-158"/>
      <point x="204" y="-141" type="curve"/>
      <point x="188" y="-134"/>
      <point x="180" y="-124"/>
    </contour>
  </outline>
</glyph>
<glyph name="braceright" format="1">
  <advance width="384"/>
  <unicode hex="007D"/>
  <outline>
    <contour>
      <point x="260" y="682" type="curve" smooth="yes"/>
      <point x="260" y="623"/>
      <point x="243" y="525"/>
      <point x="243" y="454" type="curve" smooth="yes"/>
      <point x="243" y="350"/>
      <point x="312" y="347"/>
      <point x="312" y="322" type="curve" smooth="yes"/>
      <point x="312" y="298"/>
      <point x="243" y="293"/>
      <point x="243" y="190" type="curve" smooth="yes"/>
      <point x="243" y="116"/>
      <point x="260" y="15"/>
      <point x="260" y="-50" type="curve" smooth="yes"/>
      <point x="260" y="-183"/>
      <point x="184" y="-234"/>
      <point x="126" y="-234" type="curve" smooth="yes"/>
      <point x="102" y="-234"/>
      <point x="81" y="-225"/>
      <point x="68" y="-209" type="curve"/>
      <point x="130" y="-202"/>
      <point x="179" y="-158"/>
      <point x="179" y="-79" type="curve" smooth="yes"/>
      <point x="179" y="-16"/>
      <point x="162" y="130"/>
      <point x="162" y="194" type="curve" smooth="yes"/>
      <point x="162" y="285"/>
      <point x="242" y="319"/>
      <point x="249" y="322" type="curve"/>
      <point x="244" y="323"/>
      <point x="162" y="358"/>
      <point x="162" y="451" type="curve" smooth="yes"/>
      <point x="162" y="513"/>
      <point x="179" y="652"/>
      <point x="179" y="711" type="curve" smooth="yes"/>
      <point x="179" y="791"/>
      <point x="130" y="836"/>
      <point x="68" y="842" type="curve"/>
      <point x="81" y="857"/>
      <point x="102" y="867"/>
      <point x="126" y="867" type="curve" smooth="yes"/>
      <point x="184" y="867"/>
      <point x="260" y="817"/>
    </contour>
  </outline>
</glyph>
<glyph name="asciitilde" format="1">
  <advance width="707"/>
  <unicode hex="007E"/>
  <outline>
    <contour>
      <point x="578" y="437" type="curve"/>
      <point x="593" y="430"/>
      <point x="604" y="416"/>
      <point x="604" y="392" type="curve" smooth="yes"/>
      <point x="604" y="350"/>
      <point x="566" y="311"/>
      <point x="502" y="311" type="curve" smooth="yes"/>
      <point x="437" y="311"/>
      <point x="251" y="366"/>
      <point x="194" y="366" type="curve" smooth="yes"/>
      <point x="155" y="366"/>
      <point x="132" y="346"/>
      <point x="129" y="313" type="curve"/>
      <point x="115" y="317"/>
      <point x="104" y="332"/>
      <point x="104" y="355" type="curve" smooth="yes"/>
      <point x="104" y="400"/>
      <point x="141" y="438"/>
      <point x="205" y="438" type="curve" smooth="yes"/>
      <point x="274" y="438"/>
      <point x="461" y="382"/>
      <point x="514" y="382" type="curve" smooth="yes"/>
      <point x="552" y="382"/>
      <point x="575" y="403"/>
    </contour>
  </outline>
</glyph>
<glyph name="exclamdown" format="1">
  <advance width="328"/>
  <unicode hex="00A1"/>
  <outline>
    <contour>
      <point x="106" y="473" type="curve" smooth="yes"/>
      <point x="106" y="510"/>
      <point x="140" y="542"/>
      <point x="175" y="542" type="curve" smooth="yes"/>
      <point x="204" y="542"/>
      <point x="224" y="521"/>
      <point x="224" y="492" type="curve" smooth="yes"/>
      <point x="224" y="454"/>
      <point x="190" y="424"/>
      <point x="156" y="424" type="curve" smooth="yes"/>
      <point x="126" y="424"/>
      <point x="106" y="445"/>
    </contour>
    <contour>
      <point x="159" y="-248" type="curve" smooth="yes"/>
      <point x="130" y="-248"/>
      <point x="109" y="-220"/>
      <point x="112" y="-162" type="curve" smooth="yes"/>
      <point x="126" y="280" type="line" smooth="yes"/>
      <point x="129" y="326"/>
      <point x="143" y="346"/>
      <point x="168" y="346" type="curve" smooth="yes"/>
      <point x="181" y="346"/>
      <point x="189" y="341"/>
      <point x="196" y="332" type="curve"/>
      <point x="188" y="311"/>
      <point x="185" y="289"/>
      <point x="188" y="237" type="curve" smooth="yes"/>
      <point x="208" y="-162" type="line" smooth="yes"/>
      <point x="212" y="-219"/>
      <point x="189" y="-248"/>
    </contour>
  </outline>
</glyph>
<glyph name="cent" format="1">
  <advance width="491"/>
  <unicode hex="00A2"/>
  <outline>
    <contour>
      <point x="231" y="486" type="line"/>
      <point x="313" y="486" type="line"/>
      <point x="313" y="580" type="line" smooth="yes"/>
      <point x="313" y="626"/>
      <point x="296" y="650"/>
      <point x="258" y="650" type="curve" smooth="yes"/>
      <point x="235" y="650"/>
      <point x="217" y="636"/>
      <point x="205" y="618" type="curve"/>
      <point x="222" y="612"/>
      <point x="231" y="601"/>
      <point x="231" y="579" type="curve" smooth="yes"/>
    </contour>
    <contour>
      <point x="294" y="27" type="line"/>
      <point x="210" y="27" type="line"/>
      <point x="210" y="-72" type="line" smooth="yes"/>
      <point x="210" y="-118"/>
      <point x="229" y="-142"/>
      <point x="267" y="-142" type="curve" smooth="yes"/>
      <point x="289" y="-142"/>
      <point x="308" y="-128"/>
      <point x="319" y="-110" type="curve"/>
      <point x="303" y="-103"/>
      <point x="294" y="-94"/>
      <point x="294" y="-72" type="curve" smooth="yes"/>
    </contour>
    <component base="c"/>
  </outline>
</glyph>
<glyph name="sterling" format="1">
  <advance width="605"/>
  <unicode hex="00A3"/>
  <outline>
    <contour>
      <point x="523" y="616" type="curve" smooth="yes"/>
      <point x="523" y="584"/>
      <point x="503" y="561"/>
      <point x="469" y="555" type="curve"/>
      <point x="459" y="604"/>
      <point x="427" y="667"/>
      <point x="364" y="667" type="curve" smooth="yes"/>
      <point x="305" y="667"/>
      <point x="275" y="617"/>
      <point x="275" y="538" type="curve" smooth="yes"/>
      <point x="275" y="485"/>
      <point x="277" y="445"/>
      <point x="279" y="398" type="curve"/>
      <point x="461" y="398" type="line"/>
      <point x="463" y="395"/>
      <point x="464" y="388"/>
      <point x="464" y="383" type="curve" smooth="yes"/>
      <point x="464" y="335"/>
      <point x="415" y="335"/>
      <point x="395" y="335" type="curve" smooth="yes"/>
      <point x="282" y="335" type="line"/>
      <point x="282" y="294" type="line" smooth="yes"/>
      <point x="282" y="255"/>
      <point x="275" y="133"/>
      <point x="224" y="101" type="curve"/>
      <point x="311" y="94"/>
      <point x="395" y="65"/>
      <point x="483" y="65" type="curve" smooth="yes"/>
      <point x="516" y="65"/>
      <point x="551" y="74"/>
      <point x="583" y="102" type="curve"/>
      <point x="588" y="96"/>
      <point x="591" y="86"/>
      <point x="591" y="75" type="curve" smooth="yes"/>
      <point x="591" y="37"/>
      <point x="551" y="-9"/>
      <point x="473" y="-9" type="curve" smooth="yes"/>
      <point x="369" y="-9"/>
      <point x="267" y="26"/>
      <point x="167" y="26" type="curve" smooth="yes"/>
      <point x="132" y="26"/>
      <point x="98" y="17"/>
      <point x="67" y="-8" type="curve"/>
      <point x="61" y="0"/>
      <point x="59" y="8"/>
      <point x="59" y="20" type="curve" smooth="yes"/>
      <point x="59" y="51"/>
      <point x="87" y="89"/>
      <point x="145" y="99" type="curve"/>
      <point x="171" y="120"/>
      <point x="197" y="149"/>
      <point x="197" y="263" type="curve" smooth="yes"/>
      <point x="197" y="293"/>
      <point x="198" y="315"/>
      <point x="195" y="335" type="curve"/>
      <point x="47" y="335" type="line"/>
      <point x="46" y="338"/>
      <point x="43" y="345"/>
      <point x="43" y="352" type="curve" smooth="yes"/>
      <point x="43" y="398"/>
      <point x="91" y="398"/>
      <point x="111" y="398" type="curve" smooth="yes"/>
      <point x="194" y="398" type="line"/>
      <point x="192" y="429"/>
      <point x="189" y="460"/>
      <point x="189" y="513" type="curve" smooth="yes"/>
      <point x="189" y="649"/>
      <point x="295" y="725"/>
      <point x="377" y="725" type="curve" smooth="yes"/>
      <point x="473" y="725"/>
      <point x="523" y="666"/>
    </contour>
  </outline>
</glyph>
<glyph name="currency" format="1">
  <advance width="639"/>
  <unicode hex="00A4"/>
  <outline>
    <contour>
      <point x="321" y="495" type="curve" smooth="yes"/>
      <point x="216" y="495"/>
      <point x="119" y="429"/>
      <point x="119" y="292" type="curve" smooth="yes"/>
      <point x="119" y="155"/>
      <point x="216" y="88"/>
      <point x="321" y="88" type="curve" smooth="yes"/>
      <point x="425" y="88"/>
      <point x="520" y="155"/>
      <point x="520" y="292" type="curve" smooth="yes"/>
      <point x="520" y="428"/>
      <point x="425" y="495"/>
    </contour>
    <contour>
      <point x="309" y="446" type="curve" smooth="yes"/>
      <point x="380" y="446"/>
      <point x="439" y="403"/>
      <point x="448" y="292" type="curve" smooth="yes"/>
      <point x="456" y="180"/>
      <point x="402" y="137"/>
      <point x="331" y="137" type="curve" smooth="yes"/>
      <point x="259" y="137"/>
      <point x="201" y="180"/>
      <point x="193" y="292" type="curve" smooth="yes"/>
      <point x="184" y="403"/>
      <point x="237" y="446"/>
    </contour>
    <contour>
      <point x="168" y="382" type="line"/>
      <point x="216" y="430" type="line"/>
      <point x="170" y="478" type="line" smooth="yes"/>
      <point x="141" y="507"/>
      <point x="113" y="514"/>
      <point x="92" y="497" type="curve" smooth="yes"/>
      <point x="84" y="493"/>
      <point x="77" y="484"/>
      <point x="74" y="477" type="curve"/>
    </contour>
    <contour>
      <point x="469" y="478" type="curve"/>
      <point x="423" y="430" type="line"/>
      <point x="470" y="382" type="line"/>
      <point x="565" y="477" type="line"/>
      <point x="561" y="484"/>
      <point x="555" y="493"/>
      <point x="547" y="497" type="curve" smooth="yes"/>
      <point x="526" y="514"/>
      <point x="497" y="507"/>
    </contour>
    <contour>
      <point x="169" y="91" type="curve"/>
      <point x="212" y="133" type="line"/>
      <point x="164" y="182" type="line"/>
      <point x="74" y="94" type="line"/>
      <point x="76" y="86"/>
      <point x="84" y="77"/>
      <point x="92" y="74" type="curve" smooth="yes"/>
      <point x="113" y="57"/>
      <point x="140" y="63"/>
    </contour>
    <contour>
      <point x="474" y="182" type="line"/>
      <point x="426" y="133" type="line"/>
      <point x="470" y="91" type="line" smooth="yes"/>
      <point x="498" y="63"/>
      <point x="526" y="57"/>
      <point x="547" y="74" type="curve" smooth="yes"/>
      <point x="556" y="77"/>
      <point x="563" y="86"/>
      <point x="565" y="94" type="curve"/>
    </contour>
  </outline>
</glyph>
<glyph name="yen" format="1">
  <advance width="615"/>
  <unicode hex="00A5"/>
  <outline>
    <contour>
      <point x="534" y="229" type="curve" smooth="yes"/>
      <point x="534" y="235"/>
      <point x="532" y="241"/>
      <point x="531" y="244" type="curve"/>
      <point x="141" y="244" type="line" smooth="yes"/>
      <point x="106" y="244"/>
      <point x="67" y="235"/>
      <point x="67" y="198" type="curve" smooth="yes"/>
      <point x="67" y="191"/>
      <point x="69" y="185"/>
      <point x="70" y="182" type="curve"/>
      <point x="460" y="182" type="line" smooth="yes"/>
      <point x="495" y="182"/>
      <point x="534" y="192"/>
    </contour>
    <contour>
      <point x="290" y="323" type="line"/>
      <point x="265" y="385" type="line"/>
      <point x="141" y="385" type="line" smooth="yes"/>
      <point x="106" y="385"/>
      <point x="67" y="376"/>
      <point x="67" y="338" type="curve" smooth="yes"/>
      <point x="67" y="332"/>
      <point x="69" y="325"/>
      <point x="70" y="323" type="curve"/>
    </contour>
    <contour>
      <point x="348" y="385" type="line"/>
      <point x="313" y="323" type="line"/>
      <point x="460" y="323" type="line" smooth="yes"/>
      <point x="495" y="323"/>
      <point x="534" y="332"/>
      <point x="534" y="369" type="curve" smooth="yes"/>
      <point x="534" y="375"/>
      <point x="532" y="381"/>
      <point x="531" y="385" type="curve"/>
    </contour>
    <component base="Y"/>
  </outline>
</glyph>
<glyph name="brokenbar" format="1">
  <advance width="279"/>
  <unicode hex="00A6"/>
  <outline>
    <contour>
      <point x="181" y="517" type="line"/>
      <point x="181" y="494"/>
      <point x="189" y="485"/>
      <point x="206" y="478" type="curve"/>
      <point x="194" y="460"/>
      <point x="177" y="446"/>
      <point x="154" y="446" type="curve" smooth="yes"/>
      <point x="116" y="446"/>
      <point x="98" y="470"/>
      <point x="98" y="516" type="curve" smooth="yes"/>
      <point x="98" y="769" type="line" smooth="yes"/>
      <point x="98" y="791"/>
      <point x="90" y="801"/>
      <point x="73" y="808" type="curve"/>
      <point x="84" y="826"/>
      <point x="102" y="840"/>
      <point x="125" y="840" type="curve" smooth="yes"/>
      <point x="163" y="840"/>
      <point x="181" y="817"/>
      <point x="181" y="770" type="curve" smooth="yes"/>
    </contour>
    <contour>
      <point x="181" y="-6" type="line"/>
      <point x="181" y="-28"/>
      <point x="189" y="-38"/>
      <point x="206" y="-45" type="curve"/>
      <point x="194" y="-62"/>
      <point x="177" y="-76"/>
      <point x="154" y="-76" type="curve" smooth="yes"/>
      <point x="116" y="-76"/>
      <point x="98" y="-53"/>
      <point x="98" y="-6" type="curve" smooth="yes"/>
      <point x="98" y="247" type="line" smooth="yes"/>
      <point x="98" y="269"/>
      <point x="90" y="279"/>
      <point x="73" y="286" type="curve"/>
      <point x="84" y="303"/>
      <point x="102" y="317"/>
      <point x="125" y="317" type="curve" smooth="yes"/>
      <point x="163" y="317"/>
      <point x="181" y="294"/>
      <point x="181" y="248" type="curve" smooth="yes"/>
    </contour>
  </outline>
</glyph>
<glyph name="section" format="1">
  <advance width="644"/>
  <unicode hex="00A7"/>
  <outline>
    <contour>
      <point x="534" y="584" type="curve" smooth="yes"/>
      <point x="534" y="659"/>
      <point x="455" y="725"/>
      <point x="324" y="725" type="curve" smooth="yes"/>
      <point x="217" y="725"/>
      <point x="109" y="652"/>
      <point x="109" y="539" type="curve" smooth="yes"/>
      <point x="109" y="325"/>
      <point x="481" y="332"/>
      <point x="481" y="179" type="curve" smooth="yes"/>
      <point x="481" y="128"/>
      <point x="446" y="79"/>
      <point x="390" y="66" type="curve"/>
      <point x="407" y="57"/>
      <point x="425" y="54"/>
      <point x="442" y="54" type="curve" smooth="yes"/>
      <point x="500" y="54"/>
      <point x="557" y="118"/>
      <point x="557" y="187" type="curve" smooth="yes"/>
      <point x="557" y="390"/>
      <point x="186" y="393"/>
      <point x="186" y="554" type="curve" smooth="yes"/>
      <point x="186" y="625"/>
      <point x="239" y="663"/>
      <point x="319" y="663" type="curve" smooth="yes"/>
      <point x="410" y="663"/>
      <point x="452" y="606"/>
      <point x="452" y="563" type="curve" smooth="yes"/>
      <point x="452" y="553"/>
      <point x="451" y="544"/>
      <point x="448" y="533" type="curve"/>
      <point x="459" y="527"/>
      <point x="473" y="525"/>
      <point x="485" y="525" type="curve" smooth="yes"/>
      <point x="515" y="525"/>
      <point x="534" y="546"/>
    </contour>
    <contour>
      <point x="261" y="291" type="curve"/>
      <point x="248" y="298"/>
      <point x="232" y="302"/>
      <point x="217" y="302" type="curve" smooth="yes"/>
      <point x="161" y="302"/>
      <point x="109" y="251"/>
      <point x="109" y="170" type="curve" smooth="yes"/>
      <point x="109" y="-47"/>
      <point x="481" y="-43"/>
      <point x="481" y="-190" type="curve" smooth="yes"/>
      <point x="481" y="-262"/>
      <point x="404" y="-318"/>
      <point x="320" y="-318" type="curve" smooth="yes"/>
      <point x="224" y="-318"/>
      <point x="176" y="-271"/>
      <point x="176" y="-215" type="curve" smooth="yes"/>
      <point x="176" y="-192"/>
      <point x="186" y="-175"/>
      <point x="196" y="-162" type="curve"/>
      <point x="186" y="-147"/>
      <point x="171" y="-140"/>
      <point x="151" y="-140" type="curve" smooth="yes"/>
      <point x="119" y="-140"/>
      <point x="91" y="-167"/>
      <point x="91" y="-210" type="curve" smooth="yes"/>
      <point x="91" y="-311"/>
      <point x="189" y="-382"/>
      <point x="318" y="-382" type="curve" smooth="yes"/>
      <point x="448" y="-382"/>
      <point x="557" y="-294"/>
      <point x="557" y="-174" type="curve" smooth="yes"/>
      <point x="557" y="21"/>
      <point x="186" y="17"/>
      <point x="186" y="186" type="curve" smooth="yes"/>
      <point x="186" y="238"/>
      <point x="215" y="276"/>
    </contour>
  </outline>
</glyph>
<glyph name="dieresis" format="1">
  <advance width="283"/>
  <unicode hex="00A8"/>
  <outline>
    <contour>
      <point x="142" y="507" type="move" name="_top"/>
    </contour>
    <contour>
      <point x="119" y="645" type="curve" smooth="yes"/>
      <point x="119" y="612"/>
      <point x="89" y="582"/>
      <point x="57" y="582" type="curve" smooth="yes"/>
      <point x="31" y="582"/>
      <point x="12" y="602"/>
      <point x="12" y="627" type="curve" smooth="yes"/>
      <point x="12" y="660"/>
      <point x="43" y="689"/>
      <point x="75" y="689" type="curve" smooth="yes"/>
      <point x="101" y="689"/>
      <point x="119" y="670"/>
    </contour>
    <contour>
      <point x="271" y="645" type="curve" smooth="yes"/>
      <point x="271" y="612"/>
      <point x="241" y="582"/>
      <point x="209" y="582" type="curve" smooth="yes"/>
      <point x="182" y="582"/>
      <point x="164" y="602"/>
      <point x="164" y="627" type="curve" smooth="yes"/>
      <point x="164" y="660"/>
      <point x="195" y="689"/>
      <point x="227" y="689" type="curve" smooth="yes"/>
      <point x="253" y="689"/>
      <point x="271" y="670"/>
    </contour>
  </outline>
</glyph>
<glyph name="copyright" format="1">
  <advance width="869"/>
  <unicode hex="00A9"/>
  <outline>
    <contour>
      <point x="797" y="356" type="curve" smooth="yes"/>
      <point x="797" y="569"/>
      <point x="642" y="725"/>
      <point x="434" y="725" type="curve" smooth="yes"/>
      <point x="227" y="725"/>
      <point x="72" y="569"/>
      <point x="72" y="356" type="curve" smooth="yes"/>
      <point x="72" y="142"/>
      <point x="227" y="-9"/>
      <point x="434" y="-9" type="curve" smooth="yes"/>
      <point x="642" y="-9"/>
      <point x="797" y="142"/>
    </contour>
    <contour>
      <point x="126" y="356" type="curve" smooth="yes"/>
      <point x="126" y="532"/>
      <point x="243" y="681"/>
      <point x="434" y="681" type="curve" smooth="yes"/>
      <point x="627" y="681"/>
      <point x="743" y="532"/>
      <point x="743" y="356" type="curve" smooth="yes"/>
      <point x="743" y="180"/>
      <point x="625" y="35"/>
      <point x="434" y="35" type="curve" smooth="yes"/>
      <point x="242" y="35"/>
      <point x="126" y="180"/>
    </contour>
    <contour>
      <point x="593" y="505" type="curve" smooth="yes"/>
      <point x="593" y="559"/>
      <point x="534" y="603"/>
      <point x="455" y="603" type="curve" smooth="yes"/>
      <point x="327" y="603"/>
      <point x="231" y="482"/>
      <point x="231" y="344" type="curve" smooth="yes"/>
      <point x="231" y="215"/>
      <point x="317" y="123"/>
      <point x="431" y="123" type="curve" smooth="yes"/>
      <point x="524" y="123"/>
      <point x="591" y="186"/>
      <point x="591" y="224" type="curve" smooth="yes"/>
      <point x="591" y="239"/>
      <point x="584" y="247"/>
      <point x="577" y="249" type="curve"/>
      <point x="545" y="207"/>
      <point x="501" y="183"/>
      <point x="449" y="183" type="curve" smooth="yes"/>
      <point x="371" y="183"/>
      <point x="306" y="240"/>
      <point x="306" y="356" type="curve" smooth="yes"/>
      <point x="306" y="460"/>
      <point x="354" y="549"/>
      <point x="442" y="549" type="curve" smooth="yes"/>
      <point x="494" y="549"/>
      <point x="520" y="517"/>
      <point x="520" y="481" type="curve" smooth="yes"/>
      <point x="520" y="476"/>
      <point x="518" y="472"/>
      <point x="518" y="467" type="curve"/>
      <point x="528" y="463"/>
      <point x="537" y="461"/>
      <point x="547" y="461" type="curve" smooth="yes"/>
      <point x="572" y="461"/>
      <point x="593" y="478"/>
    </contour>
  </outline>
</glyph>
<glyph name="ordfeminine" format="1">
  <advance width="419"/>
  <unicode hex="00AA"/>
  <outline>
    <contour>
      <point x="349" y="597" type="curve" smooth="yes"/>
      <point x="349" y="384" type="line" smooth="yes"/>
      <point x="349" y="350"/>
      <point x="365" y="339"/>
      <point x="388" y="336" type="curve"/>
      <point x="379" y="318"/>
      <point x="362" y="305"/>
      <point x="338" y="305" type="curve" smooth="yes"/>
      <point x="304" y="305"/>
      <point x="282" y="329"/>
      <point x="282" y="379" type="curve" smooth="yes"/>
      <point x="282" y="591" type="line" smooth="yes"/>
      <point x="282" y="648"/>
      <point x="261" y="682"/>
      <point x="205" y="682" type="curve" smooth="yes"/>
      <point x="161" y="682"/>
      <point x="133" y="661"/>
      <point x="133" y="635" type="curve" smooth="yes"/>
      <point x="133" y="624"/>
      <point x="136" y="614"/>
      <point x="144" y="605" type="curve"/>
      <point x="133" y="597"/>
      <point x="118" y="593"/>
      <point x="106" y="593" type="curve" smooth="yes"/>
      <point x="80" y="593"/>
      <point x="60" y="608"/>
      <point x="60" y="635" type="curve" smooth="yes"/>
      <point x="60" y="686"/>
      <point x="127" y="727"/>
      <point x="208" y="727" type="curve" smooth="yes"/>
      <point x="295" y="727"/>
      <point x="349" y="678"/>
    </contour>
    <contour>
      <point x="289" y="507" type="line"/>
      <point x="163" y="503"/>
      <point x="115" y="461"/>
      <point x="115" y="414" type="curve" smooth="yes"/>
      <point x="115" y="373"/>
      <point x="142" y="357"/>
      <point x="179" y="357" type="curve" smooth="yes"/>
      <point x="223" y="357"/>
      <point x="263" y="381"/>
      <point x="291" y="425" type="curve"/>
      <point x="297" y="392" type="line"/>
      <point x="269" y="339"/>
      <point x="220" y="305"/>
      <point x="157" y="305" type="curve" smooth="yes"/>
      <point x="93" y="305"/>
      <point x="43" y="341"/>
      <point x="43" y="407" type="curve" smooth="yes"/>
      <point x="43" y="485"/>
      <point x="120" y="539"/>
      <point x="289" y="542" type="curve"/>
    </contour>
  </outline>
</glyph>
<glyph name="guillemotleft" format="1">
  <advance width="614"/>
  <unicode hex="00AB"/>
  <outline>
    <contour>
      <point x="538" y="504" type="curve"/>
      <point x="535" y="511"/>
      <point x="525" y="525"/>
      <point x="509" y="525" type="curve" smooth="yes"/>
      <point x="467" y="525"/>
      <point x="305" y="350"/>
      <point x="305" y="273" type="curve" smooth="yes"/>
      <point x="305" y="198"/>
      <point x="466" y="23"/>
      <point x="509" y="23" type="curve" smooth="yes"/>
      <point x="525" y="23"/>
      <point x="535" y="37"/>
      <point x="538" y="44" type="curve"/>
      <point x="453" y="139"/>
      <point x="400" y="219"/>
      <point x="400" y="273" type="curve" smooth="yes"/>
      <point x="400" y="329"/>
      <point x="453" y="407"/>
    </contour>
    <contour>
      <point x="313" y="504" type="curve"/>
      <point x="310" y="511"/>
      <point x="300" y="525"/>
      <point x="285" y="525" type="curve" smooth="yes"/>
      <point x="243" y="525"/>
      <point x="81" y="350"/>
      <point x="81" y="273" type="curve" smooth="yes"/>
      <point x="81" y="198"/>
      <point x="242" y="23"/>
      <point x="285" y="23" type="curve" smooth="yes"/>
      <point x="300" y="23"/>
      <point x="310" y="37"/>
      <point x="313" y="44" type="curve"/>
      <point x="228" y="139"/>
      <point x="176" y="219"/>
      <point x="176" y="273" type="curve" smooth="yes"/>
      <point x="176" y="329"/>
      <point x="228" y="407"/>
    </contour>
  </outline>
</glyph>
<glyph name="logicalnot" format="1">
  <advance width="737"/>
  <unicode hex="00AC"/>
  <outline>
    <contour>
      <point x="649" y="408" type="line"/>
      <point x="649" y="451"/>
      <point x="631" y="469"/>
      <point x="583" y="469" type="curve" smooth="yes"/>
      <point x="130" y="469" type="line" smooth="yes"/>
      <point x="103" y="469"/>
      <point x="58" y="466"/>
      <point x="58" y="425" type="curve" smooth="yes"/>
      <point x="58" y="419"/>
      <point x="61" y="411"/>
      <point x="63" y="407" type="curve"/>
      <point x="543" y="407" type="line" smooth="yes"/>
      <point x="557" y="407"/>
      <point x="566" y="404"/>
      <point x="566" y="387" type="curve" smooth="yes"/>
      <point x="566" y="297" type="line" smooth="yes"/>
      <point x="566" y="251"/>
      <point x="584" y="228"/>
      <point x="622" y="228" type="curve" smooth="yes"/>
      <point x="645" y="228"/>
      <point x="663" y="241"/>
      <point x="674" y="259" type="curve"/>
      <point x="658" y="266"/>
      <point x="649" y="276"/>
      <point x="649" y="298" type="curve" smooth="yes"/>
    </contour>
  </outline>
</glyph>
<glyph name="registered" format="1">
  <advance width="674"/>
  <unicode hex="00AE"/>
  <outline>
    <contour>
      <point x="603" y="544" type="curve" smooth="yes"/>
      <point x="603" y="382"/>
      <point x="489" y="273"/>
      <point x="337" y="273" type="curve" smooth="yes"/>
      <point x="184" y="273"/>
      <point x="70" y="382"/>
      <point x="70" y="544" type="curve" smooth="yes"/>
      <point x="70" y="706"/>
      <point x="184" y="815"/>
      <point x="337" y="815" type="curve" smooth="yes"/>
      <point x="489" y="815"/>
      <point x="603" y="706"/>
    </contour>
    <contour>
      <point x="445" y="418" type="line"/>
      <point x="453" y="407"/>
      <point x="463" y="401"/>
      <point x="474" y="400" type="curve"/>
      <point x="466" y="382"/>
      <point x="448" y="377"/>
      <point x="437" y="377" type="curve" smooth="yes"/>
      <point x="420" y="377"/>
      <point x="403" y="385"/>
      <point x="386" y="409" type="curve" smooth="yes"/>
      <point x="297" y="535" type="line"/>
      <point x="356" y="537" type="line"/>
    </contour>
    <contour>
      <point x="462" y="621" type="curve" smooth="yes"/>
      <point x="462" y="561"/>
      <point x="411" y="520"/>
      <point x="332" y="520" type="curve" smooth="yes"/>
      <point x="286" y="520" type="line"/>
      <point x="286" y="411" type="line" smooth="yes"/>
      <point x="286" y="399"/>
      <point x="290" y="394"/>
      <point x="299" y="391" type="curve"/>
      <point x="292" y="383"/>
      <point x="282" y="377"/>
      <point x="266" y="377" type="curve" smooth="yes"/>
      <point x="247" y="377"/>
      <point x="235" y="387"/>
      <point x="235" y="410" type="curve" smooth="yes"/>
      <point x="235" y="686" type="line" smooth="yes"/>
      <point x="235" y="695"/>
      <point x="231" y="700"/>
      <point x="224" y="704" type="curve"/>
      <point x="231" y="715"/>
      <point x="241" y="721"/>
      <point x="261" y="721" type="curve" smooth="yes"/>
      <point x="332" y="721" type="line" smooth="yes"/>
      <point x="411" y="721"/>
      <point x="462" y="680"/>
    </contour>
    <contour>
      <point x="287" y="683" type="line"/>
      <point x="287" y="559" type="line"/>
      <point x="330" y="559" type="line" smooth="yes"/>
      <point x="377" y="559"/>
      <point x="406" y="578"/>
      <point x="406" y="620" type="curve" smooth="yes"/>
      <point x="406" y="663"/>
      <point x="377" y="683"/>
      <point x="330" y="683" type="curve" smooth="yes"/>
    </contour>
    <contour>
      <point x="110" y="545" type="curve" smooth="yes"/>
      <point x="110" y="415"/>
      <point x="196" y="307"/>
      <point x="337" y="307" type="curve" smooth="yes"/>
      <point x="477" y="307"/>
      <point x="564" y="415"/>
      <point x="564" y="545" type="curve" smooth="yes"/>
      <point x="564" y="674"/>
      <point x="479" y="781"/>
      <point x="338" y="781" type="curve" smooth="yes"/>
      <point x="197" y="781"/>
      <point x="110" y="672"/>
    </contour>
  </outline>
</glyph>
<glyph name="macron" format="1">
  <advance width="358"/>
  <unicode hex="00AF"/>
  <outline>
    <contour>
      <point x="179" y="507" type="move" name="_top"/>
    </contour>
    <contour>
      <point x="341" y="660" type="line"/>
      <point x="344" y="657"/>
      <point x="346" y="652"/>
      <point x="346" y="644" type="curve" smooth="yes"/>
      <point x="346" y="620"/>
      <point x="325" y="606"/>
      <point x="294" y="606" type="curve" smooth="yes"/>
      <point x="17" y="606" type="line"/>
      <point x="14" y="610"/>
      <point x="12" y="615"/>
      <point x="12" y="622" type="curve" smooth="yes"/>
      <point x="12" y="646"/>
      <point x="33" y="660"/>
      <point x="64" y="660" type="curve" smooth="yes"/>
    </contour>
  </outline>
</glyph>
<glyph name="degree" format="1">
  <advance width="425"/>
  <unicode hex="00B0"/>
  <outline>
    <contour>
      <point x="214" y="835" type="curve" smooth="yes"/>
      <point x="129" y="835"/>
      <point x="63" y="775"/>
      <point x="63" y="690" type="curve" smooth="yes"/>
      <point x="63" y="604"/>
      <point x="126" y="545"/>
      <point x="212" y="545" type="curve" smooth="yes"/>
      <point x="299" y="545"/>
      <point x="362" y="606"/>
      <point x="362" y="692" type="curve" smooth="yes"/>
      <point x="362" y="777"/>
      <point x="300" y="835"/>
    </contour>
    <contour>
      <point x="214" y="598" type="curve" smooth="yes"/>
      <point x="161" y="598"/>
      <point x="123" y="639"/>
      <point x="123" y="692" type="curve" smooth="yes"/>
      <point x="123" y="745"/>
      <point x="159" y="782"/>
      <point x="212" y="782" type="curve" smooth="yes"/>
      <point x="265" y="782"/>
      <point x="302" y="743"/>
      <point x="302" y="690" type="curve" smooth="yes"/>
      <point x="302" y="637"/>
      <point x="267" y="598"/>
    </contour>
  </outline>
</glyph>
<glyph name="plusminus" format="1">
  <advance width="715"/>
  <unicode hex="00B1"/>
  <outline>
    <contour>
      <point x="165" y="162" type="line"/>
      <point x="144" y="162"/>
      <point x="90" y="162"/>
      <point x="90" y="111" type="curve" smooth="yes"/>
      <point x="90" y="104"/>
      <point x="93" y="97"/>
      <point x="95" y="92" type="curve"/>
      <point x="552" y="92" type="line" smooth="yes"/>
      <point x="573" y="92"/>
      <point x="627" y="92"/>
      <point x="627" y="145" type="curve" smooth="yes"/>
      <point x="627" y="150"/>
      <point x="626" y="157"/>
      <point x="623" y="162" type="curve"/>
    </contour>
    <contour>
      <point x="392" y="685" type="curve"/>
      <point x="389" y="500" type="line"/>
      <point x="621" y="504" type="line"/>
      <point x="623" y="499"/>
      <point x="625" y="491"/>
      <point x="625" y="485" type="curve" smooth="yes"/>
      <point x="625" y="435"/>
      <point x="574" y="434"/>
      <point x="551" y="434" type="curve" smooth="yes"/>
      <point x="502" y="435"/>
      <point x="451" y="436"/>
      <point x="389" y="437" type="curve"/>
      <point x="390" y="387"/>
      <point x="391" y="345"/>
      <point x="392" y="305" type="curve"/>
      <point x="392" y="280"/>
      <point x="389" y="231"/>
      <point x="340" y="231" type="curve" smooth="yes"/>
      <point x="335" y="231"/>
      <point x="327" y="233"/>
      <point x="323" y="235" type="curve"/>
      <point x="327" y="437" type="line"/>
      <point x="95" y="434" type="line"/>
      <point x="92" y="437"/>
      <point x="90" y="445"/>
      <point x="90" y="453" type="curve" smooth="yes"/>
      <point x="90" y="502"/>
      <point x="141" y="504"/>
      <point x="164" y="504" type="curve" smooth="yes"/>
      <point x="213" y="501"/>
      <point x="263" y="500"/>
      <point x="326" y="500" type="curve"/>
      <point x="325" y="546"/>
      <point x="324" y="581"/>
      <point x="322" y="617" type="curve" smooth="yes"/>
      <point x="322" y="640"/>
      <point x="324" y="689"/>
      <point x="373" y="689" type="curve" smooth="yes"/>
      <point x="380" y="689"/>
      <point x="388" y="687"/>
    </contour>
  </outline>
</glyph>
<glyph name="twosuperior" format="1">
  <advance width="376"/>
  <unicode hex="00B2"/>
  <outline>
    <contour>
      <point x="320" y="609" type="curve" smooth="yes"/>
      <point x="320" y="680"/>
      <point x="259" y="729"/>
      <point x="178" y="729" type="curve" smooth="yes"/>
      <point x="95" y="729"/>
      <point x="37" y="682"/>
      <point x="37" y="633" type="curve" smooth="yes"/>
      <point x="37" y="603"/>
      <point x="59" y="583"/>
      <point x="88" y="583" type="curve" smooth="yes"/>
      <point x="105" y="583"/>
      <point x="118" y="589"/>
      <point x="127" y="599" type="curve"/>
      <point x="112" y="608"/>
      <point x="105" y="619"/>
      <point x="105" y="634" type="curve" smooth="yes"/>
      <point x="105" y="668"/>
      <point x="134" y="688"/>
      <point x="177" y="688" type="curve" smooth="yes"/>
      <point x="222" y="688"/>
      <point x="252" y="664"/>
      <point x="252" y="613" type="curve" smooth="yes"/>
      <point x="252" y="538"/>
      <point x="185" y="466"/>
      <point x="38" y="348" type="curve"/>
      <point x="34" y="326"/>
      <point x="53" y="307"/>
      <point x="83" y="307" type="curve" smooth="yes"/>
      <point x="259" y="307" type="line" smooth="yes"/>
      <point x="291" y="307"/>
      <point x="312" y="305"/>
      <point x="329" y="299" type="curve"/>
      <point x="336" y="304"/>
      <point x="343" y="313"/>
      <point x="343" y="323" type="curve" smooth="yes"/>
      <point x="343" y="340"/>
      <point x="330" y="360"/>
      <point x="262" y="360" type="curve" smooth="yes"/>
      <point x="195" y="360"/>
      <point x="140" y="358"/>
      <point x="60" y="348" type="curve"/>
      <point x="83" y="334" type="line"/>
      <point x="234" y="449"/>
      <point x="320" y="520"/>
    </contour>
  </outline>
</glyph>
<glyph name="threesuperior" format="1">
  <advance width="393"/>
  <unicode hex="00B3"/>
  <outline>
    <contour>
      <point x="325" y="640" type="curve" smooth="yes"/>
      <point x="325" y="595"/>
      <point x="273" y="557"/>
      <point x="212" y="542" type="curve"/>
      <point x="289" y="535"/>
      <point x="348" y="489"/>
      <point x="348" y="427" type="curve" smooth="yes"/>
      <point x="348" y="353"/>
      <point x="270" y="306"/>
      <point x="187" y="306" type="curve" smooth="yes"/>
      <point x="117" y="306"/>
      <point x="46" y="339"/>
      <point x="46" y="382" type="curve" smooth="yes"/>
      <point x="46" y="401"/>
      <point x="61" y="413"/>
      <point x="77" y="416" type="curve"/>
      <point x="100" y="372"/>
      <point x="147" y="353"/>
      <point x="204" y="353" type="curve" smooth="yes"/>
      <point x="245" y="353"/>
      <point x="279" y="375"/>
      <point x="279" y="417" type="curve" smooth="yes"/>
      <point x="279" y="478"/>
      <point x="229" y="509"/>
      <point x="158" y="509" type="curve" smooth="yes"/>
      <point x="144" y="509"/>
      <point x="130" y="506"/>
      <point x="117" y="503" type="curve"/>
      <point x="112" y="506"/>
      <point x="109" y="512"/>
      <point x="109" y="516" type="curve" smooth="yes"/>
      <point x="109" y="558"/>
      <point x="259" y="565"/>
      <point x="259" y="625" type="curve" smooth="yes"/>
      <point x="259" y="661"/>
      <point x="223" y="676"/>
      <point x="187" y="676" type="curve" smooth="yes"/>
      <point x="153" y="676"/>
      <point x="124" y="664"/>
      <point x="96" y="647" type="curve"/>
      <point x="87" y="647"/>
      <point x="81" y="658"/>
      <point x="81" y="667" type="curve" smooth="yes"/>
      <point x="81" y="687"/>
      <point x="140" y="725"/>
      <point x="208" y="725" type="curve" smooth="yes"/>
      <point x="273" y="725"/>
      <point x="325" y="692"/>
    </contour>
  </outline>
</glyph>
<glyph name="acute" format="1">
  <advance width="247"/>
  <unicode hex="00B4"/>
  <outline>
    <contour>
      <point x="54" y="507" type="move" name="_top"/>
    </contour>
    <contour>
      <point x="68" y="581" type="line"/>
      <point x="40" y="558"/>
      <point x="19" y="569"/>
      <point x="13" y="585" type="curve"/>
      <point x="113" y="704" type="line" smooth="yes"/>
      <point x="142" y="740"/>
      <point x="163" y="751"/>
      <point x="190" y="749" type="curve" smooth="yes"/>
      <point x="227" y="745"/>
      <point x="246" y="714"/>
      <point x="232" y="673" type="curve"/>
      <point x="212" y="682"/>
      <point x="195" y="680"/>
      <point x="172" y="664" type="curve" smooth="yes"/>
    </contour>
  </outline>
</glyph>
<glyph name="paragraph" format="1">
  <advance width="657"/>
  <unicode hex="00B6"/>
  <outline>
    <contour>
      <point x="516" y="717" type="line"/>
      <point x="510" y="686"/>
      <point x="508" y="653"/>
      <point x="508" y="618" type="curve" smooth="yes"/>
      <point x="508" y="0" type="line"/>
      <point x="501" y="-2"/>
      <point x="492" y="-3"/>
      <point x="485" y="-3" type="curve" smooth="yes"/>
      <point x="460" y="-3"/>
      <point x="438" y="10"/>
      <point x="438" y="51" type="curve" smooth="yes"/>
      <point x="438" y="591" type="line" smooth="yes"/>
      <point x="438" y="615"/>
      <point x="439" y="633"/>
      <point x="442" y="650" type="curve"/>
      <point x="386" y="650" type="line" smooth="yes"/>
      <point x="358" y="650"/>
      <point x="349" y="638"/>
      <point x="349" y="612" type="curve" smooth="yes"/>
      <point x="349" y="0" type="line"/>
      <point x="342" y="-2"/>
      <point x="334" y="-3"/>
      <point x="326" y="-3" type="curve" smooth="yes"/>
      <point x="301" y="-3"/>
      <point x="279" y="10"/>
      <point x="279" y="51" type="curve" smooth="yes"/>
      <point x="279" y="276" type="line"/>
      <point x="253" y="276" type="line" smooth="yes"/>
      <point x="131" y="276"/>
      <point x="58" y="370"/>
      <point x="58" y="496" type="curve" smooth="yes"/>
      <point x="58" y="626"/>
      <point x="131" y="717"/>
      <point x="253" y="717" type="curve" smooth="yes"/>
    </contour>
  </outline>
</glyph>
<glyph name="periodcentered" format="1">
  <advance width="409"/>
  <unicode hex="00B7"/>
  <outline>
    <contour>
      <point x="269" y="347" type="curve" smooth="yes"/>
      <point x="269" y="378"/>
      <point x="247" y="402"/>
      <point x="215" y="402" type="curve" smooth="yes"/>
      <point x="177" y="402"/>
      <point x="140" y="365"/>
      <point x="140" y="326" type="curve" smooth="yes"/>
      <point x="140" y="295"/>
      <point x="161" y="272"/>
      <point x="194" y="272" type="curve" smooth="yes"/>
      <point x="233" y="272"/>
      <point x="269" y="308"/>
    </contour>
  </outline>
</glyph>
<glyph name="cedilla" format="1">
  <advance width="326"/>
  <unicode hex="00B8"/>
  <outline>
    <contour>
      <point x="173" y="0" type="move" name="_bottom"/>
    </contour>
    <contour>
      <point x="151" y="-195" type="curve" smooth="yes"/>
      <point x="206" y="-195"/>
      <point x="232" y="-176"/>
      <point x="232" y="-146" type="curve" smooth="yes"/>
      <point x="232" y="-122"/>
      <point x="212" y="-107"/>
      <point x="169" y="-107" type="curve" smooth="yes"/>
      <point x="151" y="-107" type="line" smooth="yes"/>
      <point x="129" y="-107"/>
      <point x="124" y="-97"/>
      <point x="130" y="-69" type="curve" smooth="yes"/>
      <point x="151" y="28" type="line"/>
      <point x="209" y="28" type="line"/>
      <point x="184" y="-87" type="line"/>
      <point x="145" y="-77" type="line"/>
      <point x="165" y="-71"/>
      <point x="180" y="-68"/>
      <point x="202" y="-68" type="curve" smooth="yes"/>
      <point x="261" y="-68"/>
      <point x="312" y="-95"/>
      <point x="312" y="-146" type="curve" smooth="yes"/>
      <point x="312" y="-201"/>
      <point x="253" y="-248"/>
      <point x="163" y="-248" type="curve" smooth="yes"/>
      <point x="75" y="-248"/>
      <point x="16" y="-205"/>
      <point x="16" y="-169" type="curve" smooth="yes"/>
      <point x="16" y="-160"/>
      <point x="21" y="-150"/>
      <point x="29" y="-143" type="curve"/>
      <point x="60" y="-177"/>
      <point x="99" y="-195"/>
    </contour>
  </outline>
</glyph>
<glyph name="onesuperior" format="1">
  <advance width="181"/>
  <unicode hex="00B9"/>
  <outline>
    <contour>
      <point x="150" y="341" type="curve"/>
      <point x="150" y="674" type="line" smooth="yes"/>
      <point x="150" y="704"/>
      <point x="131" y="725"/>
      <point x="95" y="725" type="curve" smooth="yes"/>
      <point x="52" y="725"/>
      <point x="14" y="698"/>
      <point x="14" y="681" type="curve" smooth="yes"/>
      <point x="14" y="674"/>
      <point x="18" y="670"/>
      <point x="22" y="670" type="curve"/>
      <point x="39" y="678"/>
      <point x="56" y="684"/>
      <point x="72" y="684" type="curve" smooth="yes"/>
      <point x="88" y="684"/>
      <point x="96" y="677"/>
      <point x="96" y="665" type="curve" smooth="yes"/>
      <point x="96" y="340" type="line" smooth="yes"/>
      <point x="96" y="313"/>
      <point x="108" y="300"/>
      <point x="131" y="300" type="curve" smooth="yes"/>
      <point x="146" y="300"/>
      <point x="157" y="308"/>
      <point x="165" y="318" type="curve"/>
      <point x="155" y="321"/>
      <point x="150" y="328"/>
    </contour>
  </outline>
</glyph>
<glyph name="ordmasculine" format="1">
  <advance width="415"/>
  <unicode hex="00BA"/>
  <outline>
    <contour>
      <point x="38" y="516" type="curve" smooth="yes"/>
      <point x="38" y="396"/>
      <point x="102" y="306"/>
      <point x="212" y="306" type="curve" smooth="yes"/>
      <point x="322" y="306"/>
      <point x="385" y="396"/>
      <point x="385" y="516" type="curve" smooth="yes"/>
      <point x="385" y="643"/>
      <point x="322" y="726"/>
      <point x="212" y="726" type="curve" smooth="yes"/>
      <point x="102" y="726"/>
      <point x="38" y="643"/>
    </contour>
    <contour>
      <point x="207" y="687" type="curve" smooth="yes"/>
      <point x="267" y="687"/>
      <point x="313" y="641"/>
      <point x="316" y="525" type="curve" smooth="yes"/>
      <point x="320" y="409"/>
      <point x="278" y="346"/>
      <point x="216" y="346" type="curve" smooth="yes"/>
      <point x="156" y="346"/>
      <point x="111" y="391"/>
      <point x="107" y="506" type="curve" smooth="yes"/>
      <point x="102" y="623"/>
      <point x="146" y="687"/>
    </contour>
  </outline>
</glyph>
<glyph name="guillemotright" format="1">
  <advance width="614"/>
  <unicode hex="00BB"/>
  <outline>
    <contour>
      <point x="309" y="273" type="curve" smooth="yes"/>
      <point x="309" y="350"/>
      <point x="147" y="525"/>
      <point x="105" y="525" type="curve" smooth="yes"/>
      <point x="90" y="525"/>
      <point x="78" y="511"/>
      <point x="76" y="504" type="curve"/>
      <point x="162" y="407"/>
      <point x="214" y="329"/>
      <point x="214" y="273" type="curve" smooth="yes"/>
      <point x="214" y="219"/>
      <point x="162" y="139"/>
      <point x="76" y="44" type="curve"/>
      <point x="78" y="37"/>
      <point x="90" y="23"/>
      <point x="105" y="23" type="curve" smooth="yes"/>
      <point x="148" y="23"/>
      <point x="309" y="198"/>
    </contour>
    <contour>
      <point x="533" y="273" type="curve" smooth="yes"/>
      <point x="533" y="350"/>
      <point x="371" y="525"/>
      <point x="329" y="525" type="curve" smooth="yes"/>
      <point x="314" y="525"/>
      <point x="303" y="511"/>
      <point x="301" y="504" type="curve"/>
      <point x="386" y="407"/>
      <point x="438" y="329"/>
      <point x="438" y="273" type="curve" smooth="yes"/>
      <point x="438" y="219"/>
      <point x="386" y="139"/>
      <point x="301" y="44" type="curve"/>
      <point x="303" y="37"/>
      <point x="314" y="23"/>
      <point x="329" y="23" type="curve" smooth="yes"/>
      <point x="372" y="23"/>
      <point x="533" y="198"/>
    </contour>
  </outline>
</glyph>
<glyph name="onequarter" format="1">
  <advance width="663"/>
  <unicode hex="00BC"/>
  <outline>
    <contour>
      <point x="574" y="391" type="curve" smooth="yes"/>
      <point x="574" y="37" type="line" smooth="yes"/>
      <point x="574" y="24"/>
      <point x="580" y="18"/>
      <point x="592" y="13" type="curve"/>
      <point x="582" y="2"/>
      <point x="570" y="-5"/>
      <point x="555" y="-5" type="curve" smooth="yes"/>
      <point x="529" y="-5"/>
      <point x="516" y="9"/>
      <point x="516" y="36" type="curve" smooth="yes"/>
      <point x="516" y="344" type="line" smooth="yes"/>
      <point x="516" y="350"/>
      <point x="514" y="354"/>
      <point x="509" y="354" type="curve" smooth="yes"/>
      <point x="486" y="354"/>
      <point x="379" y="206"/>
      <point x="379" y="152" type="curve" smooth="yes"/>
      <point x="379" y="142"/>
      <point x="383" y="138"/>
      <point x="396" y="138" type="curve" smooth="yes"/>
      <point x="590" y="138" type="line" smooth="yes"/>
      <point x="602" y="138"/>
      <point x="622" y="140"/>
      <point x="632" y="149" type="curve"/>
      <point x="637" y="144"/>
      <point x="642" y="136"/>
      <point x="642" y="128" type="curve" smooth="yes"/>
      <point x="642" y="111"/>
      <point x="624" y="97"/>
      <point x="596" y="97" type="curve" smooth="yes"/>
      <point x="382" y="97" type="line" smooth="yes"/>
      <point x="345" y="97"/>
      <point x="326" y="113"/>
      <point x="326" y="139" type="curve" smooth="yes"/>
      <point x="326" y="222"/>
      <point x="473" y="427"/>
      <point x="538" y="427" type="curve" smooth="yes"/>
      <point x="557" y="427"/>
      <point x="574" y="417"/>
    </contour>
    <contour>
      <point x="514" y="725" type="curve" smooth="yes"/>
      <point x="522" y="725"/>
      <point x="533" y="723"/>
      <point x="542" y="708" type="curve"/>
      <point x="536" y="704"/>
      <point x="529" y="691"/>
      <point x="523" y="681" type="curve" smooth="yes"/>
      <point x="141" y="21" type="line" smooth="yes"/>
      <point x="131" y="4"/>
      <point x="123" y="-8"/>
      <point x="107" y="-8" type="curve" smooth="yes"/>
      <point x="100" y="-8"/>
      <point x="88" y="-7"/>
      <point x="79" y="8" type="curve"/>
      <point x="84" y="13"/>
      <point x="92" y="27"/>
      <point x="98" y="37" type="curve" smooth="yes"/>
      <point x="480" y="697" type="line" smooth="yes"/>
      <point x="485" y="705"/>
      <point x="498" y="725"/>
    </contour>
    <contour>
      <point x="168" y="337" type="line"/>
      <point x="168" y="324"/>
      <point x="174" y="319"/>
      <point x="186" y="315" type="curve"/>
      <point x="178" y="303"/>
      <point x="165" y="296"/>
      <point x="151" y="296" type="curve" smooth="yes"/>
      <point x="125" y="296"/>
      <point x="112" y="310"/>
      <point x="112" y="337" type="curve" smooth="yes"/>
      <point x="112" y="661" type="line" smooth="yes"/>
      <point x="112" y="676"/>
      <point x="105" y="683"/>
      <point x="88" y="683" type="curve" smooth="yes"/>
      <point x="71" y="683"/>
      <point x="63" y="678"/>
      <point x="46" y="667" type="curve"/>
      <point x="40" y="669"/>
      <point x="36" y="674"/>
      <point x="36" y="680" type="curve" smooth="yes"/>
      <point x="36" y="697"/>
      <point x="67" y="725"/>
      <point x="112" y="725" type="curve" smooth="yes"/>
      <point x="150" y="725"/>
      <point x="168" y="704"/>
      <point x="168" y="672" type="curve" smooth="yes"/>
    </contour>
  </outline>
</glyph>
